<?xml version="1.0" standalone="no"?>
<!DOCTYPE svg PUBLIC "-//W3C//DTD SVG 1.1//EN" "http://www.w3.org/Graphics/SVG/1.1/DTD/svg11.dtd" >
<svg>
<metadata>
Created by FontForge 20090622 at Mon Mar  2 07:18:45 2020
 By deploy user
</metadata>
<defs>
<font id="MisterLondonScript-Regular" horiz-adv-x="579" >
  <font-face 
    font-family="Mister London Script"
    font-weight="400"
    font-stretch="normal"
    units-per-em="1000"
    panose-1="0 0 0 0 0 0 0 0 0 0"
    ascent="750"
    descent="-250"
    x-height="294"
    cap-height="725"
    bbox="-731.128 -607 994.316 872"
    underline-thickness="50"
    underline-position="-75"
    unicode-range="U+000D-U+FB00"
  />
<missing-glyph horiz-adv-x="250" 
 />
    <glyph glyph-name="f_f" unicode="ff" horiz-adv-x="462" 
d="M485 298q12 1 17 -8.5t0 -20t-17 -11.5q-101 -9 -193 -28q-7 -22 -8 -29q22 -45 26 -115t0 -107t-14 -114q-1 -7 -4 -38.5t-6 -49.5t-11 -41.5t-21 -35.5q-12 -12 -24 -12q-15 0 -26 16t-14 35q-31 170 51 457q-9 15 -21 27q-8 7 -5 19t14 14q5 2 16 4.5t16 3.5l30 93
q-66 -66 -195 -118q-6 -1 -11 -4q-1 -6 -3.5 -17.5t-3.5 -17.5q18 -55 18 -175v-15v-29t-0.5 -35.5t-2 -40.5l-3.5 -40t-6.5 -39t-10 -31.5t-14 -22t-18.5 -7.5q-11 0 -18 5q-26 14 -30 63t1 74q4 104 43 288q-5 11 -14 22q-2 0 -5.5 -0.5t-5.5 -0.5q-26 0 -48 15
q-10 7 -8.5 19.5t13.5 16.5q18 5 30 5q22 0 40 -13q8 2 11 3q38 184 32 309q0 19 19 19q21 0 21 -19q6 -113 -28 -292q157 71 231 175q3 10 13.5 42.5t16.5 49.5t18.5 40.5t26.5 37.5q6 6 14 6q9 0 15 -7.5t4 -17.5q-18 -91 -72 -169q-3 -7 -5 -13q-18 -50 -50 -150
q99 18 179 25zM53 -78q8 100 3 169q-5 -28 -13 -84q-11 -80 -10 -147q4 -40 5 -40q4 0 8 16t7 86zM261 -96q18 161 4 229q-31 -116 -39 -218q-2 -14 -1.5 -94.5t6.5 -79.5q5 1 9.5 16.5t8 38.5t6 45t4.5 41.5t2 21.5z" />
    <glyph glyph-name="c_k" unicode="ck" horiz-adv-x="613" 
d="M412 336q0 -4 -2 -12q-12 -51 -18 -104l151 101q5 3 10 3q13 0 19 -14.5t-5 -22.5q-37 -27 -163 -109q22 -22 58 -22q81 0 151 79q6 6 12 6q13 0 21.5 -12.5t-0.5 -21.5q-31 -35 -82 -63.5t-99 -28.5q-47 0 -81 31q0 -5 -0.5 -13.5t-0.5 -12.5q0 -5 -1 -28t-1.5 -32
t-0.5 -31t1 -34t3 -31t5.5 -32.5t9.5 -29t14 -27.5q7 -12 1 -21t-17 -9q-10 0 -16 10q-21 35 -31 80.5t-9 85.5t1 83q1 93 20 187q-78 -64 -182.5 -128t-162.5 -64q-47 0 -48 48q-2 68 59 116t133 56h3q16 0 18 -18.5t-16 -20.5q-78 -10 -123 -65q-37 -49 -33 -67
q3 -12 17 -12q6 0 14.5 2.5t14.5 5.5t13 6t8 4q136 61 300 211q1 1 3 11q36 133 98 245l14 27.5t20 35.5l20 27.5t28 25t31 7.5q9 0 18 -3q19 -5 17 -25q-24 -204 -214 -380zM582 699q-29 -16 -76 -112.5t-67 -159.5q118 131 143 272z" />
    <glyph glyph-name="d_d" unicode="dd" horiz-adv-x="480" 
d="M268 68q2 1 6 1q15 0 18.5 -17t-11.5 -22q-19 -6 -35 -6q-90 0 -90 184q-94 -111 -154 -111q-17 0 -31 10q-13 9 -15 24.5t1.5 25t11.5 27.5q22 45 58.5 84.5t75.5 39.5q28 0 55 -27l3 3q2 22 3 35q20 121 61 226q2 4 10 26t13 33.5t15.5 32t19.5 32t22 21.5t27 12
q15 0 22 -9q7 -8 9.5 -20.5t1.5 -23.5t-5 -27t-7 -25l-8.5 -24.5t-6.5 -18.5q-55 -164 -138 -287q-20 -202 50 -202q8 0 18 3zM217 381v-6q101 199 107 278q-54 -54 -107 -272zM43 156q47 30 95 96q-6 2 -9 5q-11 10 -24 10q-25 0 -50 -28t-39 -54q-17 -25 -12 -37
q4 -9 11 -9q4 0 9 3t10.5 7.5t8.5 6.5zM484 613q14 14 30 14q19 0 33 -22.5t14 -48.5q-1 -71 -50 -162t-110 -158q-16 -181 52 -303q6 -12 0.5 -21t-16.5 -9q-10 0 -16 10q-67 121 -64 279l-12 -12q-53 -46 -76 -46q-20 0 -30 22q-15 33 17 72.5t68 58.5q3 2 8 2
q14 0 21 -14.5t-7 -21.5q-44 -24 -64 -69l-5 -11q1 0 3.5 3l6 7t5.5 6q4 4 14.5 12t14.5 12q14 12 41 41q8 90 42 202.5t80 156.5zM509 498q3 10 5.5 22.5t0.5 25t-11 12.5q-3 0 -13 -5q-17 -11 -43.5 -101.5t-35.5 -137.5q73 101 97 184z" />
    <glyph glyph-name="g_h" unicode="gh" horiz-adv-x="625" 
d="M625 241q7 5 13 5q13 0 20.5 -11.5t-2.5 -21.5q-44 -38 -82 -38q-11 0 -28 5q-15 6 -25.5 16t-14.5 18t-9 25t-8 23l-23.5 -32l-26.5 -35t-25 -30t-29 -28q-14 -12 -29 -12t-26 15q-11 14 -13 35t2.5 56.5t4.5 37.5q-38 -56 -70 -95q-18 -228 -160 -412
q-18 -25 -48.5 -49.5t-58.5 -24.5q-21 0 -37 19q-12 15 -13.5 37t4 41.5t19 45.5t22 39.5l21.5 33.5l6 9q39 60 207 280q3 49 -2 105q-6 -7 -32.5 -41t-42.5 -51q-54 -57 -90 -57q-12 0 -21 4q-22 9 -28.5 29.5t-1.5 39.5t16 37q22 39 62 60t88 21q13 0 21 -12l27 30
q7 5 13 5q19 0 22 -19q9 -56 10 -97q61 84 76 107q33 211 120 390q44 88 80 88q19 0 33 -27q5 -10 5.5 -22.5t-3 -26.5t-7 -25t-9 -26t-7.5 -20q-51 -167 -174 -347q-2 -14 -4 -42l-2 -33.5t-2 -38.5t-2 -33q-1 -18 2 -18q1 0 4 3.5t7 10.5t8 11l93 114q5 6 12 6
q12 0 20 -10q6 -7 9 -14t6.5 -18.5t5.5 -15.5q1 -2 4.5 -13t7.5 -17.5t10 -9.5q10 -4 17 -4q33 0 58 25zM488 724q-66 -131 -98 -279q73 123 115 250q1 2 5 13l7.5 20.5t7.5 22.5t4.5 20t-0.5 11q-2 3 -8.5 -4.5t-14 -20l-12 -20.5t-6.5 -13zM42 191q38 0 120 109
q-40 -1 -73 -21t-48 -55q-14 -33 1 -33zM116 -129q64 116 89 237l-70 -91q-83 -110 -105 -147q-44 -75 -51 -109q-5 -26 9 -26q3 0 15 2q13 2 26 11t22 18.5t20.5 27t16.5 26.5l16 29t12 22z" />
    <glyph glyph-name="l_l" unicode="ll" horiz-adv-x="430" 
d="M559 822q3 -10 3.5 -22.5t-2.5 -27t-5.5 -25.5t-7 -27t-6.5 -22q-26 -111 -84 -229.5t-128 -207.5l-3 -28q-23 -234 69 -279q14 -8 9 -22t-20 -14q-3 0 -9 2q-95 47 -93 239q0 17 2 47q-108 -120 -183 -120q-48 0 -79 51q-10 16 -15 38t-7 37.5t1.5 45t5 39.5t9 44
t7.5 36q29 142 95 293q4 10 15 10t18 -9.5t2 -20.5q-40 -89 -75.5 -215.5t-35.5 -207.5q-2 -42 17 -68.5t51 -26.5q42 0 92.5 45t87.5 95q14 122 57.5 269t98.5 237q15 24 39 49t44 25t30 -30zM518 779q4 26 -1 26t-22 -25q-51 -71 -91.5 -193.5t-61.5 -239.5q1 1 2.5 3.5
t2.5 3.5q132 202 171 425z" />
    <glyph glyph-name="o_m" unicode="om" horiz-adv-x="740" 
d="M743 237q7 8 17 8q12 0 18.5 -8.5t-0.5 -19.5q-82 -107 -151 -107q-38 0 -65.5 24.5t-29.5 62.5q0 1 0.5 8t0.5 11v6q-2 1 -16 -10t-18 -15l-83 -63q-4 -3 -10 -3q-8 0 -14 8t-5 17q2 11 7 31t8.5 36.5t3.5 30.5q0 3 0.5 7.5t1 7t0.5 5.5t-1.5 4t-3.5 1q-4 0 -12 -4
q-7 -3 -29 -25q-56 -52 -108 -144q-6 -10 -17 -10q-9 0 -15 6q-14 11 -16 33.5t2 41t13 48t10 35.5q1 3 4.5 17t5 23t-1 19.5t-10.5 15.5q-1 0 -3 1q-4 0 -52 -19q-18 -6 -64 -26q3 -7 -1 -14q20 -19 22 -50q2 -38 -25.5 -74.5t-62.5 -46.5q-11 -3 -21 -3q-26 0 -41.5 18.5
t-11.5 46.5q5 53 62 100q-7 6 -7 15.5t10 14.5q38 20 108 49t96 29q15 0 26 -8q22 -17 16 -64q-1 -6 -14.5 -55t-17.5 -75q20 30 43.5 60t59.5 61t62 31q58 0 26 -125l24 18l17.5 14.5t23 18t19.5 11.5q12 4 18 4q15 0 25 -12q9 -12 7 -42t11 -44q18 -21 41 -21q50 0 118 89
zM65 167q13 13 19.5 42.5t-6.5 45.5q-49 -33 -59 -64q-18 -24 27 -40z" />
    <glyph glyph-name="o_n" unicode="on" horiz-adv-x="572" 
d="M572 235q6 6 14 6q12 0 18 -11.5t-4 -22.5q-41 -39 -85 -39q-36 0 -61 28q-4 4 -17.5 29t-23.5 30q-6 3 -10 3q-7 0 -14 -5.5t-11 -10.5t-10.5 -15.5t-7.5 -12.5q-8 -11 -24 -35.5t-30 -43t-29 -31.5q-17 -15 -34 -15q-15 0 -26 11q-5 5 -7.5 11.5t-3.5 12t0 14.5t2 13.5
t3 14.5t3 13q8 39 18 74q1 2 6.5 16.5t4.5 19.5q-4 35 -30 35q-7 0 -36 -8q-27 -7 -58 -12q8 -11 12 -22q13 -36 -2 -72.5t-47 -62.5q-34 -28 -64 -28q-26 0 -37 27q-22 57 65 141q6 6 13 6q12 0 18.5 -11.5t-3.5 -22.5q-28 -26 -45 -58q-8 -14 -5.5 -24t12.5 -10q4 0 12 3
q36 15 44.5 65.5t-23.5 64.5q-13 -1 -41 -1q-17 1 -19.5 18t13.5 21q11 4 25 4q6 0 18 -2q52 4 127 21q18 5 35 5q24 0 39 -12q24 -18 21 -56q-2 -14 -11 -40t-11 -34q-18 -72 -16 -74q1 -1 4 -1q12 0 65.5 75.5t71.5 79.5q4 1 11 1q24 0 44 -24l39 -48t39 -24q22 0 49 26z
" />
    <glyph glyph-name="o_o" unicode="oo" horiz-adv-x="378" 
d="M400 325q2 1 7 1q14 0 16 -16t-13 -23q-73 -28 -123 -28q7 -39 -1 -83.5t-30 -77t-52 -32.5h-4q-67 5 -29 150q1 5 8 22t12 32t3 22q9 9 5 9q-2 0 -8 -3q-68 -15 -119 -19q0 -1 0.5 -4t0.5 -5v-2q13 -31 16.5 -62t-9.5 -58t-44 -35q-12 -3 -20 -3q-23 0 -31 19t-2.5 47
t15.5 55t22 48q-2 1 -4 3q-9 10 -4 22t18 12q56 2 105 10q6 1 30 8t37 7q25 0 34 -18q25 0 38 -25q60 0 126 27zM17 153q5 -5 11 -5q10 0 15.5 20.5t5 38.5t-0.5 21q-1 4 -5 17q-1 -2 -3 -5.5t-3 -5.5q-25 -76 -20 -81zM243 191q6 42 -1 76q-1 0 -8 5q-4 -13 -15 -37
t-17 -44t-3 -37q0 -13 -1 -19q1 -19 10 -19q7 0 15.5 11t9.5 20q8 13 10 44z" />
    <glyph glyph-name="r_r" unicode="rr" horiz-adv-x="359" 
d="M170 301q-1 4 -6 4q-13 0 -44 -39t-43 -60q-18 -34 -52 -118q-4 -13 -21 -13q-19 0 -18 19l24 251q2 20 21 20q8 0 13.5 -5.5t4.5 -14.5l-12 -130q22 45 59 90t71 45q23 0 37 -29q5 -11 -2 -20.5t-18 -9.5q-10 0 -14 10zM361 262q5 5 14 5q13 0 19 -11.5t-4 -21.5
q-49 -41 -82 -41q-2 0 -5 0.5t-5 0.5q-28 5 -42 25q-10 -12 -20 -31.5t-15.5 -32t-14 -38t-10.5 -30.5q-5 -14 -19 -14q-7 0 -14 5q-5 4 -8.5 9t-4.5 12t-1.5 11.5t0 13.5t0.5 12q0 70 1 105q2 20 21 20q8 0 14 -5.5t5 -14.5q0 -10 -0.5 -30t-0.5 -30q11 25 34 58.5t40 33.5
q7 0 13 -6.5t7 -14.5q1 -19 18 -19q27 0 60 29z" />
    <glyph glyph-name="s_s" unicode="ss" horiz-adv-x="327" 
d="M270 297q-16 -19 -36 -36q4 -14 29.5 -55.5t25.5 -68.5q-1 -28 -16.5 -48t-42.5 -25h-4q-17 0 -20.5 17t14.5 21q46 10 6 93l-21 40l-42 -35q24 -36 -4 -77q-31 -47 -91 -47q-22 2 -33.5 17.5t-4.5 36.5q2 8 9 16.5t10.5 12t16.5 13.5l12 9q3 3 8.5 8t8.5 7q-2 1 -9 2
t-14 3q-4 1 -34 12q-15 7 -23.5 12t-18 14t-9 18.5t3.5 25.5q21 55 93 79q2 1 6 1q10 0 15 -8.5t2.5 -18.5t-12.5 -13q-19 -6 -40 -19t-23 -27q-1 -6 1.5 -11.5t6 -8.5t10.5 -6.5t11 -4.5t12.5 -3.5t9.5 -2.5l21.5 -5.5t26.5 -8.5l34 30l24 20q-6 55 40 91q23 17 43 17
q16 0 25 -12q18 -24 -27 -75zM100 123q31 10 14 38q-31 -23 -32 -28q12 -6 18 -10z" />
    <glyph glyph-name="t_t" unicode="tt" horiz-adv-x="407" 
d="M498 512q18 -1 21.5 -18.5t-11.5 -20.5h-6q-22 1 -121 1h-42q-23 -79 -45 -132v-5q-12 -110 -8 -216q1 -40 4 -63.5t15.5 -56.5t36.5 -54q10 -10 4.5 -22t-17.5 -12q-7 0 -13 6q-55 49 -67.5 127t-4.5 182q-32 -62 -78 -113.5t-96 -51.5q-34 0 -56 26q-30 38 -14 146
q12 78 46 208q-55 -12 -99 -25h-3l-2 -1q-17 0 -21.5 17.5t11.5 22.5q61 16 128 30q19 63 49 148q3 11 13 11q11 0 19 -10t4 -22q-33 -99 -39 -119q91 14 176 17q25 112 72 233q4 10 14 10t17 -7.5t6 -17.5q-17 -123 -42 -216q123 0 149 -2zM254 343q4 46 20 129
q-87 -4 -180 -20q-22 -74 -40 -153q-2 -7 -7 -27t-7 -29.5t-5.5 -30t-2.5 -30l3 -29.5q10 -45 35 -45q34 0 90 72q56 73 94 163z" />
    <glyph glyph-name="line01" unicode="_&#x31;" horiz-adv-x="0" 
d="M101 7q120 12 148 12q32 0 56.5 -3.5t45 -13t23 -26t-7.5 -41.5q-4 -9 -15 -9q-10 0 -16.5 8.5t-0.5 19.5q4 8 -2 13t-19 7.5t-25.5 3.5t-27.5 1q-9 0 -19 -0.5t-11 -0.5q-13 0 -39.5 -1.5t-40.5 -2.5q-254 -23 -482 -91q-2 -1 -6 -1q-15 0 -17 17t13 21q222 66 443 87z
" />
    <glyph glyph-name="line02" unicode="_&#x32;" horiz-adv-x="0" 
d="M283 2q72 -5 97 -19q22 -13 32 -36q4 -10 -2.5 -18.5t-16.5 -8.5t-15 10q-4 8 -11 14.5t-13 9.5t-18 5.5t-18 3t-19.5 1t-16.5 0.5q-64 4 -94 4q-304 0 -582 -82q-3 -1 -6 -1q-15 0 -16.5 16.5t13.5 21.5q275 83 564 83q67 0 122 -4z" />
    <glyph glyph-name="line03" unicode="_&#x33;" horiz-adv-x="0" 
d="M521 -66q37 -41 5 -83q-6 -7 -14 -7q-11 0 -17.5 10t1.5 20q12 17 -1.5 30t-46.5 20.5t-50 10.5t-35 5q-171 22 -313 22q-169 0 -321 -23l-41 -6t-45.5 -7t-39.5 -8t-44 -12t-37 -15.5t-38 -21.5q-4 -4 -10 -4q-13 0 -18.5 12.5t6.5 21.5q37 26 93 44t87 23t104 15
q147 20 307 20q178 0 362 -31l11 -2q12 -1 14 -1.5t12.5 -2t13.5 -2.5t11.5 -3.5t13 -4.5t10.5 -5t11 -7t9 -8z" />
    <glyph glyph-name="line04" unicode="_&#x34;" horiz-adv-x="0" 
d="M408 11q76 -10 108 -44q19 -21 20.5 -52t-16.5 -54.5t-48 -23.5h-6q-11 0 -15 10t1.5 19.5t16.5 8.5h2q21 0 26.5 23.5t-6.5 37.5q-14 23 -55 31q-42 11 -154 13q-133 0 -320 -21q-44 -5 -149 -18t-161 -18q-1 0 -47.5 -5.5t-70.5 -5.5q-76 0 -111 38q-9 10 -2.5 21
t17.5 11q9 0 14 -6q23 -26 83 -26q19 0 41 2t45 5.5t31 4.5q24 2 190 21q280 35 434 35q72 0 132 -7z" />
    <glyph glyph-name="line05" unicode="_&#x35;" horiz-adv-x="0" 
d="M502 -8q7 -1 30 -3t37.5 -4t37.5 -6t37.5 -11t28.5 -17t19.5 -25.5t1.5 -35.5q-2 -15 -16 -15q-9 0 -15.5 7t-4.5 17q2 14 -10 24t-35.5 15.5t-42 8.5t-43 5t-25.5 2q-234 26 -461 26q-376 0 -748 -71q-1 0 -3 -1h-1q-16 0 -19.5 17t12.5 21q381 72 770 72q235 0 450 -26
z" />
    <glyph glyph-name=".notdef" horiz-adv-x="250" 
 />
    <glyph glyph-name="uni0000" horiz-adv-x="0" 
 />
    <glyph glyph-name="uni0000" horiz-adv-x="0" 
 />
    <glyph glyph-name="uni000D" unicode="&#xd;" horiz-adv-x="250" 
 />
    <glyph glyph-name="space" unicode=" " horiz-adv-x="260" 
 />
    <glyph glyph-name="exclam" unicode="!" horiz-adv-x="240" 
d="M139 227q0 -1 -1 -3v-2q-10 -47 -10 -86q0 -20 -21 -20t-21 20q0 56 12 96q4 15 18 15q9 0 16 -6t7 -14zM301 780q0 -5 -3 -10q-7 -17 -31 -71l-35 -80t-27 -69t-27 -80q-15 -53 -24 -106q0 -3 -2 -20t-4 -25q-4 -21 -23 -21q-18 0 -18 17v3q16 163 109 371q39 88 47 103
q4 10 15 10q9 0 16 -6.5t7 -15.5z" />
    <glyph glyph-name="quotedbl" unicode="&#x22;" horiz-adv-x="218" 
d="M143 414q0 -22 -13.5 -52.5t-32.5 -30.5q-8 0 -15 6.5t-7 14.5q0 4 3 10q3 4 11 12q14 21 14 38q0 1 -0.5 5t-0.5 6q0 25 19 25q22 0 22 -34zM43 450q14 0 19 -19q4 -11 4 -33q0 -25 -12 -56t-31 -31q-9 0 -16 6t-7 14q0 4 4 9l3.5 7t4.5 8q12 22 12 44q0 6 -2 16
q0 1 -0.5 3.5t-0.5 3.5t-0.5 3.5t-0.5 3.5q0 9 7 15t16 6z" />
    <glyph glyph-name="numbersign" unicode="#" horiz-adv-x="575" 
d="M23 285q-9 0 -16 7t-7 16q0 10 10 15q85 43 201 73h1l62 130q3 6 13.5 28.5t16.5 33.5q5 10 15 10q9 0 16.5 -7t7.5 -15q0 -10 -76 -162l-2 -5l6 1q54 10 82 14h2l1 2q41 94 85 164q6 10 16 10q9 0 16 -6t7 -14q0 -3 -4 -11q-60 -112 -70 -135l-2 -4h5q27 3 53 3
q90 0 90 -41q0 -13 -6.5 -25t-16.5 -12q-9 0 -16 6.5t-7 15.5q0 5 3 10l-5 3l1 1h-1q-2 -2 -16 -2q-10 0 -38 -2q-28 -1 -65 -1h-2l-1 -2l-20.5 -49.5l-18.5 -44.5l-2 -5l6 1q33 7 58 7q52 0 68 -38q2 -6 2 -9q0 -9 -7 -16.5t-16 -7.5q-8 0 -9 3q-1 1 -3 5l-2 2q-1 2 -2 3
q-12 16 -44 16q-20 0 -66 -8h-1l-1 -2q-15 -45 -15 -77q0 -22 10 -44q10 -20 10 -21q0 -7 -7 -12.5t-16 -5.5q-19 0 -29 27t-10 51q0 28 11 68l1 5l-5 -1q-21 -5 -59.5 -15l-49.5 -13h-1l-1 -2q-3 -5 -11.5 -21.5t-12.5 -26.5q-14 -30 -14 -52q0 -4 2 -14q2 -8 2 -12
q0 -8 -6.5 -14t-14.5 -6q-14 0 -20 16q-6 11 -6 30q0 27 20 77l2 6l-6 -2q-11 -4 -34 -11q-22 -8 -30 -8q-18 0 -18 21q0 16 14 21q7 3 100 31h1l1 1q35 64 53 104l3 6l-7 -2q-51 -16 -149 -58q-6 -2 -9 -2zM191 257l-3 -6l7 2q42 12 98 22h1l1 2l17.5 45t21.5 53l2 5l-7 -1
q-64 -11 -87 -18l-2 -2q-14 -32 -49 -102z" />
    <glyph glyph-name="dollar" unicode="$" horiz-adv-x="387" 
d="M364 677q0 -2 -2 -8q-55 -138 -73 -191v-2q5 -10 5 -17q0 -18 -18 -21h-1l-1 -3l-37 -122l-1 -5h5q113 -16 113 -55q0 -30 -38 -52q-6 -5 -33 -19q-30 -17 -91 -41l-2 -1v-1q-11 -59 -11 -98q0 -63 27 -113q4 -8 4 -11q0 -8 -7 -14t-16 -6q-23 0 -35.5 51t-12.5 86
q0 42 8 85l1 5l-5 -1q-7 -1 -16 -5q-51 -17 -88 -17q-39 0 -39 24q0 14 7 24t19 10q8 0 14.5 -5t6.5 -12q0 -2 -2 -8l6 -2q4 11 28 18q7 2 20 4.5l18 3.5q7 2 20 6.5l19 6.5l2 2q3 13 12 46t13 51l1 4h-4q-25 2 -42.5 5t-41 10.5t-36 23t-12.5 38.5q0 50 69 99t125 49h8h2
l1 2q44 129 69 178q6 15 22 15q20 0 20 -17zM204 197l-2 -7l6 3l10 5l18.5 9l18.5 9q17 8 26 15q7 5 12 9q1 1 1 4q0 7 -10 11q-15 8 -56 15h-2l-1 -2zM237 454l2 5l-6 -1q-20 -5 -69 -34t-56 -44q-7 -14 -7 -27q0 -19 25 -27q7 -2 20 -2.5t17 -1.5q21 -4 30 -5h2l1 2
q16 60 41 135z" />
    <glyph glyph-name="percent" unicode="%" horiz-adv-x="386" 
d="M285 53q-43 0 -43 48q0 46 49 89l1 1v2q0 1 -0.5 2t-0.5 2q0 22 38 22q25 0 42 -18.5t17 -44.5q0 -36 -34 -69.5t-69 -33.5zM344 167q-4 8 -9 10l-3 1l-1 -4q-2 -6 -5 -9q-4 -4 -5 -6q-1 -1 -3.5 -2.5t-3.5 -3.5q-18 -16 -26 -37q-4 -8 -4 -20v-1h1q2 -2 4 -2q3 0 11 5
q6 3 10 7l12 9q2 2 6 5.5t6 5.5q11 15 11 30q0 8 -1 12zM249 297q-25 -40 -74 -109t-64 -94q-33 -55 -48 -90q-1 -2 -1 -6t-1 -5q0 -6 -3 -9l-3 -3l4 -2q13 -7 13 -21q0 -10 -9.5 -19.5t-19.5 -9.5q-14 0 -23 15.5t-9 31.5q0 33 47 113q6 11 72 109q165 227 165 309
q0 49 -62 49q-11 0 -35 -1.5t-36 -1.5h-4l1 -4q3 -13 3 -27q0 -26 -27.5 -50t-56.5 -33q-13 -5 -25 -5q-23 0 -38 11.5t-15 33.5q0 30 28 63t59 49q6 3 10 3q2 0 4 -1q14 0 40 4q60 5 74 5q121 0 121 -91q0 -74 -87 -214zM106 534q0 8 -1 12l-1 5l-3 -2q-50 -30 -50 -53
q0 -8 5.5 -13.5t13.5 -5.5q17 0 26.5 20t9.5 37z" />
    <glyph glyph-name="ampersand" unicode="&#x26;" horiz-adv-x="547" 
d="M525 284q0 -12 -15 -17q-34 -12 -66 -33q-24 -17 -109 -86l-2 -2l2 -2q19 -22 49 -49l26.5 -21.5l26.5 -21.5q10 -7 10 -18q0 -9 -6 -16t-14 -7q-24 0 -127 108l-2 2l-2 -2q-1 -1 -2.5 -2t-2.5 -2l-2 -1l-3 -3l-43.5 -34t-63.5 -46q-71 -46 -120 -46q-26 0 -42.5 13.5
t-16.5 38.5q0 43 47 113q16 23 44.5 60t33.5 44l59 81l1 1v2q-17 55 -17 123q0 34 5 65t16.5 61.5t35.5 51t57 25.5q2 0 5 0.5t4 0.5q29 0 42.5 -24t13.5 -57q0 -40 -21.5 -91.5t-41 -82.5t-53.5 -81l-1 -2v-1q24 -79 74 -145l2 -2l3 2l39.5 32.5t55.5 43.5q72 51 99 51
q9 0 15.5 -7t6.5 -17zM214 388l1 -7l4 6q87 131 87 203q0 29 -23 29q-28 0 -46.5 -32.5t-24 -65.5t-5.5 -60q0 -39 7 -73zM203 282l-2 5l-3 -4q-152 -203 -152 -230q0 -10 9.5 -16.5t19.5 -6.5q35 0 196 122l2 1l-2 3q-43 60 -68 126z" />
    <glyph glyph-name="quotesingle" unicode="'" horiz-adv-x="103" 
d="M83 441q0 -73 -48 -119q-6 -6 -13 -6q-9 0 -15.5 7t-6.5 15t6 14q34 38 34 89q0 20 22 20q21 0 21 -20z" />
    <glyph glyph-name="parenleft" unicode="(" horiz-adv-x="185" 
d="M290 631q0 -7 -7 -14l-50 -48q-103 -110 -152 -248q-40 -118 -40 -201q0 -87 50 -138q7 -9 7 -13q0 -9 -7 -15.5t-16 -6.5q-6 0 -14 6q-61 52 -61 164q0 139 73.5 289.5t180.5 240.5q7 5 13 5q9 0 16 -6.5t7 -14.5z" />
    <glyph glyph-name="parenright" unicode=")" horiz-adv-x="248" 
d="M250 394q0 -91 -45 -173t-122 -166q-38 -41 -47 -49q-6 -6 -14 -6q-9 0 -15.5 6.5t-6.5 15.5q0 8 6 14l49 51q152 161 152 307q0 95 -66 227q-3 6 -3 10q0 9 7 15.5t17 6.5q9 0 15 -11q3 -3 10 -18q2 -3 9 -20q54 -115 54 -210z" />
    <glyph glyph-name="asterisk" unicode="*" horiz-adv-x="274" 
d="M236 467q0 -21 -27 -21q-25 0 -77 -2h-6l2 -4q2 -3 4.5 -7.5l6.5 -12t7 -11.5q12 -26 12 -27q0 -8 -7 -14t-16 -6q-12 0 -18 11q-1 1 -7 10q-4 8 -5 11l-3 5l-24 -40q-4 -10 -16 -10q-9 0 -16 6t-7 14q0 6 14.5 31t20.5 32l3 7l-6 -1l-25 -6q-3 0 -8 -1t-9 -1.5t-7 -0.5
q-9 0 -15.5 7.5t-6.5 17.5q0 14 15 17q11 2 47 7h4l-1 4q-1 2 -3.5 8.5t-3.5 9.5q-3 9 -3 16q0 18 21 18q12 0 19 -13q2 -4 5 -13t5 -13l3 -5l3 5q18 32 29 47q7 10 18 10q8 0 15 -6t7 -13q0 -5 -8 -21q-5 -8 -14 -20l-2 -5h5q18 1 55 1q8 0 14 -6.5t6 -14.5z" />
    <glyph glyph-name="plus" unicode="+" horiz-adv-x="381" 
d="M74 260q0 16 15 19h15q3 0 8 -0.5t7 -0.5q18 0 56 2h3v3l6 55t7 55q3 20 23 20q18 0 18 -17q0 -11 -12 -110v-3h3q12 1 37 1q39 0 64 -5q15 -3 15 -17q0 -9 -6.5 -16t-15.5 -7h-4q-30 5 -55 5q-13 0 -41 -2h-3v-3q-11 -85 -17 -114q-3 -15 -16 -15q-10 0 -17 6.5t-7 16.5
v4l4.5 30.5l5.5 37t5 31.5l1 3h-4q-32 -2 -46 -2h-17q-6 0 -16 2q-16 5 -16 21z" />
    <glyph glyph-name="comma" unicode="," horiz-adv-x="117" 
d="M110 150q11 -47 -13 -89t-70 -54q-2 -1 -7 -1q-12 0 -19 10t-3.5 22t16.5 15q27 7 42 31.5t8 52.5q-3 13 5.5 21.5t19.5 8.5q17 0 21 -17z" />
    <glyph glyph-name="hyphen" unicode="-" horiz-adv-x="282" 
d="M251 204q-17 0 -51 1.5t-51 1.5q-9 0 -29 -0.5t-29 -0.5q-20 0 -20 20t20 22q19 1 58 1q69 0 102 -3q21 -2 21 -22t-21 -20z" />
    <glyph glyph-name="period" unicode="." horiz-adv-x="159" 
d="M121 193q14 -25 -8 -43q-7 -6 -19 -6q-15 0 -25 10q-20 22 -6 43q1 1 10 8q9 6 10 6q3 1 8 1q21 0 30 -19z" />
    <glyph glyph-name="slash" unicode="/" horiz-adv-x="432" 
d="M493 530q0 -8 -6 -14l-91 -93q-118 -120 -292 -320l-69 -84q-7 -7 -14 -7q-8 0 -14.5 7t-6.5 15q0 7 5 14q88 111 228 262q139 154 225 235q6 6 14 6t14.5 -6.5t6.5 -14.5z" />
    <glyph glyph-name="zero" unicode="0" horiz-adv-x="330" 
d="M307 444q0 -109 -38 -220t-114 -158q-30 -21 -57 -21q-48 0 -73 53t-25 109q0 79 34.5 174t85.5 149l1 1v2q-2 6 -2 8q0 13 15 19q26 13 73 13q100 0 100 -129zM199 528q-13 0 -19 -1h-1l-2 -2q-61 -47 -98.5 -145t-37.5 -186q0 -37 14 -69.5t47 -32.5q26 0 52 26
q52 49 81.5 141t29.5 173q0 21 -2 35t-8 29.5t-20 23.5t-36 8z" />
    <glyph glyph-name="one" unicode="1" horiz-adv-x="161" 
d="M184 622q0 -3 -2 -7q-80 -218 -98 -276q-3 -12 -13 -45.5t-15 -52.5q-14 -58 -14 -101q0 -42 15 -84q2 -6 2 -7q0 -8 -6.5 -13t-15.5 -5q-11 0 -19.5 12.5t-11.5 32t-4.5 34t-1.5 26.5q0 105 84 338l6 17l-11 -14q-20 -24 -24 -28q-18 -20 -26 -20t-14.5 7.5t-6.5 16.5
q0 7 6 14q4 5 12 13.5l11 11.5q25 28 47 56l30.5 42.5l28.5 40.5q7 9 18 9q9 0 16 -5t7 -13z" />
    <glyph glyph-name="two" unicode="2" horiz-adv-x="327" 
d="M368 151q0 -14 -15 -20q-10 -4 -44 -14q-81 -26 -165 -49q-23 -5 -45 -5q-27 0 -48.5 11t-21.5 34q0 35 55 98q86 102 96 115q40 48 76.5 107t36.5 98q0 61 -59 61q-22 0 -43 -6q-127 -34 -150 -95q-5 -15 -19 -15q-8 0 -15 6t-7 14q0 4 1 6q12 40 55.5 72.5t94 47.5
t94.5 15q42 0 66 -27.5t24 -71.5q0 -87 -127 -246l-88 -104q-41 -48 -41 -62q0 -9 11 -14q9 -3 18 -3q8 0 26 4q4 1 12 3.5t12 3.5q81 22 184 56q2 1 7 1q19 0 19 -21z" />
    <glyph glyph-name="three" unicode="3" horiz-adv-x="334" 
d="M345 579q0 -50 -101 -141l-38 -34t-32 -29q-32 -32 -32 -46q0 -7 6 -15q2 -3 6 -7q2 -1 5 -4q13 -12 35 -23q3 -2 14.5 -9t17.5 -11q33 -24 33 -66q0 -60 -80 -117q-89 -66 -138 -66q-17 0 -29 9t-12 26t13.5 40t27.5 23q8 0 15 -7t7 -15t-8 -16q-1 0 -8 -5q-4 -2 -5 -7
l-2 -5l5 1l9 3q6 2 8 3q32 13 62 29.5t61.5 46.5t31.5 58q0 26 -36 49q-14 6 -24 13q-64 34 -64 71q0 19 16 39q4 5 42 41q151 132 151 160q0 7 -8 9q-3 2 -10 2q-22 0 -56 -16l-53 -27q-56 -29 -90 -52q-6 -4 -17.5 -13t-17.5 -13q-4 -3 -11 -3t-13 7t-6 15q0 10 10 18
q50 41 135 85.5t131 44.5q22 0 35.5 -12t13.5 -34z" />
    <glyph glyph-name="four" unicode="4" horiz-adv-x="330" 
d="M365 645q0 -12 -64 -159q-70 -161 -78 -181q-40 -96 -58 -165q-5 -20 -18 -96t-15 -80l-4 -5h6q20 0 20 -20q0 -23 -20 -23q-42 0 -42 67q0 125 125 415l6 14l-11 -11q-31 -31 -72 -55t-76 -24q-64 0 -64 74q0 38 20.5 88t47.5 81q9 10 18 10t15.5 -6t6.5 -15
q0 -3 -9 -18q-1 -2 -9 -15l-13 -21q-33 -52 -33 -97q0 -38 27 -38q39 0 101 59q63 59 116 160q4 7 17.5 33.5t20.5 37.5q6 11 16 11q9 0 16 -6t7 -15z" />
    <glyph glyph-name="five" unicode="5" horiz-adv-x="350" 
d="M305 302q0 -29 -15 -61q-52 -117 -201 -226q-33 -24 -54 -24q-14 0 -24.5 10.5t-10.5 24.5q0 11 9 23t20 12q7 0 12.5 -6t6.5 -14l1 -8l4 6q5 6 24 20l15.5 12.5t12.5 9.5q110 87 146 174l3 9t4 9q1 2 3 6.5t3 6.5q3 6 3 15q0 22 -30 24q-11 8 -24 8q-4 0 -10 -2l-9 -3
q-12 -4 -18 -5q-12 -4 -18 -7q-59 -37 -86 -37q-16 0 -25 10.5t-9 27.5q0 22 45 118l61 124v2q-2 8 -2 10q0 14 16 19q2 2 11 2q6 1 17.5 4.5t14.5 4.5q166 40 303 56h4q16 0 16 -18q0 -20 -20 -23q-15 -3 -46 -6.5t-46 -6.5q-117 -20 -222 -49h-1l-1 -2l-84 -178
q-2 -8 -22 -42l-9 -12l12 7q92 51 150 51q32 0 51 -21.5t19 -54.5z" />
    <glyph glyph-name="six" unicode="6" horiz-adv-x="317" 
d="M198 315q-16 0 -29 -6q-28 -8 -60 -33q-10 -8 -27.5 -24.5t-21.5 -19.5q-8 -6 -15 -6h-2l-1 -2q-4 -12 -4 -31q0 -30 14.5 -52t43.5 -22q50 0 95.5 51.5t45.5 101.5q0 43 -39 43zM88 76q-88 0 -88 109q0 105 74.5 230t167.5 218q7 7 14 7q8 0 15 -7t7 -16q0 -6 -6 -14
l-27 -29.5t-29 -32.5q-114 -132 -154 -244l-3 -10l8 7q83 67 145 67q34 0 51 -25.5t17 -63.5q0 -72 -60 -134t-132 -62z" />
    <glyph glyph-name="seven" unicode="7" horiz-adv-x="277" 
d="M251 382l-37 -70l-39 -71l-24 -43q-36 -65 -64 -126l-13 -29t-15 -34q-19 -43 -20 -62v-2l2 -1q17 -5 17 -24t-30 -19q-28 0 -28 35q0 72 124 299q83 150 122 236q5 11 17 35q9 22 9 38q0 26 -18 26q-6 0 -18 -4q-23 -10 -94.5 -35.5t-79.5 -25.5q-18 0 -18 21
q0 14 14 20q7 3 21 7.5t18 6.5l34.5 12.5l41.5 14.5l35 12q6 2 17 6.5l16 6.5q17 6 33 6q22 0 34.5 -14.5t12.5 -36.5q0 -47 -70 -185z" />
    <glyph glyph-name="eight" unicode="8" horiz-adv-x="235" 
d="M259 611q0 -50 -38.5 -137.5t-74.5 -141.5l-2 -2l2 -2q37 -42 37 -87q0 -47 -36 -91.5t-81 -44.5q-31 0 -48.5 18t-17.5 48q0 82 58 173l1 3l-2 1q-54 47 -54 102q0 50 47 101q33 36 85 74t85 38q39 0 39 -52zM201 611q-1 0 -2 -0.5t-2 -0.5q-4 -2 -5 -2q-6 -4 -7 -4
q-24 -10 -47 -28l-13 -11t-15 -14l-12 -12q-57 -52 -57 -91q0 -38 43 -69l1 -1h2q2 1 5 1q16 0 21 -12l3 -5l3 4q52 80 89 203q5 23 5 26q0 5 -3.5 10.5t-8.5 5.5zM95 318l-3 2l-2 -2q-50 -89 -50 -134q0 -35 27 -35t50.5 29.5t23.5 57.5q0 45 -46 82z" />
    <glyph glyph-name="nine" unicode="9" horiz-adv-x="296" 
d="M311 587q0 -23 -12 -52q-3 -8 -6.5 -16.5t-8.5 -18.5t-7 -15l-72 -173t-72 -174l-14.5 -35t-15.5 -38q-19 -49 -19 -76q0 -18 12 -28q2 -2 4 -3l3 -3q2 -4 2 -10q0 -10 -6 -17t-14 -7q-4 0 -10 4q-31 20 -31 60q0 45 60 197q20 49 88 204l45 110q3 7 12.5 27.5t13.5 32.5
l3 11l-8 -8q-73 -60 -136 -104l-17.5 -12.5t-21.5 -14.5q-24 -14 -43 -14q-14 0 -27 9t-13 22q0 5 3 11q19 47 76.5 109t97.5 62q30 0 46 -36l2 -4l3 3q7 5 20.5 17.5t20.5 17.5q7 6 16 6q13 0 19.5 -14t6.5 -30zM128 506q21 16 66 53l3 2l-3 3q-2 1 -4 5q-1 1 -2 3l-2 2
q-6 8 -12 8q-15 0 -42 -22.5t-41 -39.5q-18 -20 -37 -55l-4 -7l8 3q29 14 70 45z" />
    <glyph glyph-name="colon" unicode=":" horiz-adv-x="167" 
d="M102 277q-14 0 -23.5 9.5t-9.5 23.5q0 12 9.5 21t20.5 9q13 0 22.5 -10t9.5 -24q0 -13 -8.5 -21t-20.5 -8zM84 127q-14 0 -23.5 10t-9.5 24q0 11 9.5 20t20.5 9q13 0 22.5 -10t9.5 -24q0 -12 -8.5 -20.5t-20.5 -8.5z" />
    <glyph glyph-name="semicolon" unicode=";" horiz-adv-x="179" 
d="M116 287q-14 0 -23.5 10t-9.5 24q0 11 9.5 20t20.5 9q13 0 23 -10t10 -23t-9 -21.5t-21 -8.5zM28 17q-2 -1 -6 -1q-8 0 -14 7t-6 15q0 14 15 19q54 19 54 72q0 3 -1.5 11t-1.5 11q0 9 7 15t16 6q21 0 21 -42q0 -39 -23.5 -71t-60.5 -42z" />
    <glyph glyph-name="less" unicode="&#x3c;" horiz-adv-x="313" 
d="M270 334q0 -11 -10 -18q-58 -38 -104 -56q-26 -13 -31 -19q0 -1 -2 -1q-1 0 -2 -1q-4 -4 -4 -7q0 -5 3 -8q2 -1 5 -4q38 -40 107 -74q10 -5 10 -14t-7 -16t-16 -7q-3 0 -9 2q-49 19 -94 53.5t-45 72.5q0 18 21 32q7 6 19 11l10.5 5t8.5 4q21 10 57 32.5t52 30.5q8 4 11 4
q8 0 14 -7t6 -15z" />
    <glyph glyph-name="equal" unicode="=" horiz-adv-x="340" 
d="M251 151q-17 0 -51 1.5t-51 1.5q-9 0 -29 -0.5t-29 -0.5q-20 0 -20 20q0 21 20 23q19 1 58 1q69 0 102 -3q21 -2 21 -23q0 -20 -21 -20zM251 245q-17 0 -51 1.5t-51 1.5q-9 0 -29 -0.5t-29 -0.5q-20 0 -20 20t20 22q19 1 58 1q69 0 102 -3q21 -2 21 -22t-21 -20z" />
    <glyph glyph-name="greater" unicode="&#x3e;" horiz-adv-x="337" 
d="M295 243q-4 -16 -28 -32q-8 -5 -23 -12t-20 -10q-40 -27 -110 -83q-7 -5 -14 -5q-9 0 -16 6.5t-7 14.5q0 7 7 14q58 52 126 92l2 2q3 1 6.5 3t5.5 4q2 1 5 3t4 2q2 2 3 2v1l1 1q1 1 1 2v2l-2 1q-6 3 -30 14t-36 18q-18 11 -38 28.5t-20 30.5q0 9 7 14.5t16 5.5
q11 0 18 -9q20 -25 50 -40q1 -1 59 -27q34 -15 34 -36q0 -5 -1 -7z" />
    <glyph glyph-name="question" unicode="?" horiz-adv-x="329" 
d="M109 176l-2.5 -5l-2.5 -5q-8 -16 -9 -27q-2 -21 -21 -21q-8 0 -14.5 6t-6.5 13q0 21 10.5 45t26.5 24q9 0 15 -6.5t6 -15.5q0 -2 -2 -8zM401 636q0 -8 -2 -20q-4 -22 -21 -44.5t-30.5 -33l-40.5 -30.5l-39 -26l-87 -59q-47 -31 -55 -38q-2 -1 -10 -9q-11 -13 -29 -28
q-1 0 -2.5 -2t-2.5 -2l-2 -1l-20 -2l19 -4q15 -3 15 -18q0 -10 -6 -17t-15 -7q-14 0 -27.5 9.5t-13.5 23.5q0 28 45.5 68.5t90.5 68.5q10 7 48.5 30t59.5 38q72 53 72 100q0 46 -88 46q-44 0 -102 -23q-6 -2 -9 -2q-10 0 -17 7t-7 16q0 22 54 31.5t93 9.5q129 0 129 -82z
" />
    <glyph glyph-name="at" unicode="@" horiz-adv-x="519" 
d="M253 358h6q18 0 25 -11.5t13 -35.5q1 -6 5 -18q1 -6 6 -16q10 -17 29 -17q8 0 26.5 19.5t24.5 29.5q48 68 48 132q0 41 -25 60.5t-67 19.5q-110 0 -206 -88.5t-96 -198.5q0 -72 50 -106t124 -34q86 0 170 43q6 3 11 3q8 0 14.5 -7t6.5 -15q0 -14 -23 -25q-10 -4 -14 -6
q-83 -39 -164 -39q-90 0 -153.5 49.5t-63.5 136.5q0 123 108 226.5t230 103.5q63 0 101 -30.5t38 -90.5q0 -41 -20 -93.5t-58 -94.5t-80 -42q-40 0 -51 34q-3 6 -7 33q-2 20 -7 34l-1 3l-3 -1q-15 -7 -32 -20q-5 -4 -14 -12t-14 -12q-34 -30 -76 -37q-26 0 -26 18q0 5 1 7
q15 46 50 91.5t73 45.5q18 0 31.5 -10t10.5 -25zM221 345l6 3l-6 3q-6 2 -10 2q-20 0 -49 -38l-9 -16l14 11q31 24 54 35z" />
    <glyph glyph-name="A" unicode="A" 
d="M642 341q12 0 17 -9.5t0 -20t-17 -10.5q-75 -2 -148 -9q-17 -119 -25 -248q0 -19 -21 -19q-19 0 -18 19q6 122 24 243q-100 -13 -205 -41q-2 -3 -5.5 -9.5t-4.5 -9.5q-3 -7 -13 -28.5l-14.5 -31.5t-12 -29t-11.5 -31.5t-7.5 -29.5t-4.5 -33q0 -19 -21 -19q-19 0 -19 19
q2 31 13 67.5t19 55.5t29 63q1 1 1 2q-90 -27 -167 -61q-6 -2 -9 -2q-15 0 -20.5 15t8.5 22q100 42 210 73q96 194 176 294q23 29 36.5 44t38 32t50.5 22q23 0 25 -19q5 -43 -0.5 -89t-20.5 -109t-19 -88l-6 -34q70 7 142 9zM271 292q97 23 188 35q2 8 2 10q5 31 19 89.5
t22 107.5t6 91q-89 -41 -237 -333z" />
    <glyph glyph-name="B" unicode="B" horiz-adv-x="520" 
d="M625 636q17 -30 14.5 -64.5t-15 -64t-33.5 -57.5q-101 -131 -279 -223q48 -3 75 -24t24 -67q-4 -58 -70 -95.5t-137 -48.5q-4 -2 -9 -2q-4 0 -6 1q-19 6 -32 17.5t-17 31l-6.5 32.5t1.5 41t5.5 36t7.5 35q32 152 101 313q4 10 14 10q11 0 18 -9.5t2 -21.5
q-47 -110 -76 -217l-13 -45h1q1 1 2 1q179 75 305 197q29 27 45.5 45t33.5 49t18 60q2 40 -20.5 66.5t-55 36.5t-71.5 10q-60 0 -124.5 -16t-124 -46t-102.5 -80.5t-54 -111.5q-4 -11 -1 -35t15 -31q13 -9 8.5 -23.5t-18.5 -14.5q-5 0 -10 3q-36 22 -40.5 63.5t16 83.5
t47.5 78.5t52 56.5q67 54 158 83.5t180 29.5q128 0 171 -83zM366 119q19 37 -4 52t-69 15q-38 0 -86 -9q-1 0 -2.5 -0.5t-2.5 -0.5q-11 0 -16 9q-34 -133 9 -154h2q46 5 98.5 29.5t70.5 58.5z" />
    <glyph glyph-name="C" unicode="C" horiz-adv-x="457" 
d="M458 235q6 7 14 7q11 0 17 -12t-3 -23q-62 -74 -125.5 -117.5t-149.5 -62.5q-25 -6 -50 -6q-65 0 -109.5 38.5t-50.5 107.5q-7 81 35 170.5t107 169.5q114 145 194 145q36 0 63 -26q10 -10 3.5 -21.5t-18.5 -11.5q-8 0 -13 5q-16 15 -36 15q-34 0 -80.5 -40.5t-73.5 -76
t-49 -69.5q-106 -163 -91 -265q14 -100 113 -100q62 0 132 36q58 30 93 58t78 79z" />
    <glyph glyph-name="D" unicode="D" horiz-adv-x="700" 
d="M256 695q93 32 183 32q166 0 251 -97q40 -46 48.5 -97t-12 -100t-50.5 -90t-72 -82q-90 -87 -200 -151l-24 -14.5l-30.5 -18t-29.5 -15t-34 -12t-30 -3.5q2 -10 -5 -18t-16 -8q-10 0 -15 11q-15 32 -19.5 67t3.5 82t13 68t20 74t34 110l44.5 131l37.5 108q1 4 5 8
q-15 -2 -43 -8q-31 -8 -69.5 -24t-83 -41.5t-74.5 -56t-44.5 -67t7.5 -75.5q6 -11 -1 -20.5t-18 -9.5t-15 10q-17 37 -16.5 70.5t20 65t45.5 57.5t61 49t67 38.5t62 26.5zM564 277q207 192 101 321q-73 89 -228 89q-28 0 -55 -3q15 -7 9 -22l-99 -294q-4 -11 -11.5 -34.5
l-12.5 -39.5t-11.5 -39.5t-10 -42.5t-6.5 -40.5t-3 -42t4 -38.5q7 -3 18 -3q47 0 147 67.5t158 121.5z" />
    <glyph glyph-name="E" unicode="E" horiz-adv-x="443" 
d="M546 701q12 0 17 -9.5t0 -20t-17 -10.5q-148 -5 -333 -22q-46 -131 -71 -226q144 25 254 49h4q17 0 20.5 -17t-13.5 -22q-123 -25 -276 -52q-16 -62 -27 -128q-15 -91 34 -119q21 -11 48 -11q62 0 133.5 37t124.5 86q5 5 13 5q13 0 19 -11.5t-4 -21.5q-52 -48 -135 -93
t-152 -45q-79 0 -112 68q-7 14 -10.5 29.5t-3.5 33.5t1 31.5t6 35.5t7.5 32l9 34.5t8.5 30.5q-11 -2 -33 -5.5t-33 -5.5h-3q-11 0 -17.5 9t-4 18.5t13.5 11.5q25 3 89 14q33 124 67 227q-16 -1 -47.5 -5t-47.5 -5h-3q-10 0 -14 9t1 19t16 11q55 8 109 12q3 12 11 34
q4 14 19 14q10 0 16.5 -7t2.5 -18l-6 -18q158 15 319 21z" />
    <glyph glyph-name="F" unicode="F" horiz-adv-x="371" 
d="M409 366q12 -1 17 -11.5t0 -20t-17 -8.5q-10 1 -29 1q-126 0 -235 -57q-39 -216 45 -221q12 -1 17 -11.5t0 -20t-17 -8.5q-33 2 -54 19.5t-29.5 39.5t-10.5 57t0 57t7 55q0 1 0.5 5t0.5 5q-36 -23 -72 -56q-5 -5 -13 -5q-12 0 -18.5 11.5t3.5 21.5q54 50 109 79
q21 113 78 291q-52 -20 -108 -50q-4 -3 -10 -3q-13 0 -18.5 15t8.5 22q84 47 182 75.5t189 28.5q76 0 124 -34q12 -9 7.5 -23.5t-17.5 -14.5q-5 0 -10 4q-41 29 -108 29q-88 0 -192 -33q-60 -179 -83 -286q108 48 223 48q21 0 31 -1z" />
    <glyph glyph-name="G" unicode="G" horiz-adv-x="521" 
d="M673 416q10 -3 13 -12.5t-2 -18t-15 -8.5q-5 0 -7 1q-32 10 -82 10q-44 0 -86 -6q0 -1 -2 -7q-44 -107 -65 -218q-1 -4 -2 -11q-9 -50 -12.5 -80t5 -74t36.5 -65q12 -9 7.5 -23.5t-16.5 -14.5q-6 0 -11 4q-71 54 -57 193q10 86 29 155q-59 -71 -133 -118t-152 -47
q-112 0 -120 106q-11 151 164 344q121 137 200 137q42 0 74 -35q10 -10 3.5 -22t-18.5 -12q-7 0 -13 6q-22 23 -49 23q-26 0 -56 -17t-62 -50t-46.5 -50l-38.5 -47q-119 -151 -119 -262q0 -83 76 -83q39 0 87 20t82 44q89 67 163 197h-3q-92 -13 -193 -43q-2 -1 -6 -1
q-15 0 -18 17.5t13 22.5q193 56 343 56q50 0 89 -11z" />
    <glyph glyph-name="H" unicode="H" horiz-adv-x="654" 
d="M689 372q12 0 17 -9.5t0 -20t-17 -10.5q-71 -3 -153 -14q-24 -126 -24 -238q3 -47 4 -52q5 -21 20.5 -33.5t36.5 -12.5q17 0 20.5 -17.5t-14.5 -20.5q-14 -2 -19 -2q-140 0 -63 371q-128 -19 -264 -58q-39 -139 6 -195q8 -11 2 -23t-17 -12q-7 0 -13 7q-23 29 -30 68
t-3.5 67.5t13.5 74.5q-81 -26 -167 -62q-6 -2 -8 -2q-14 0 -16 16.5t13 23.5q93 39 189 69q28 109 96 302q6 13 20 13q10 0 16.5 -6.5t2.5 -16.5q-56 -153 -84 -254q-4 -16 -7 -25q127 36 259 54q38 167 105 364q4 13 19 13q10 0 16.5 -6.5t2.5 -17.5q-77 -235 -103 -346v-2
q64 8 144 13z" />
    <glyph glyph-name="I" unicode="I" horiz-adv-x="264" 
d="M389 645q-16 38 -65 38q-22 0 -46 -6q7 -10 3 -21q-88 -199 -149 -418q-2 -6 -8 -26.5t-8.5 -32t-4.5 -28.5t2 -30.5t14 -23.5q9 -9 5 -19l63 21q2 1 6 1q10 0 15 -8t2.5 -18t-12.5 -13q-36 -11 -103 -33.5l-79 -26.5q-2 -1 -6 -1q-10 0 -15 8t-2 18t13 13q71 24 85 30
q-18 18 -25.5 43.5t-2 58t11.5 55.5t19 60t16 47q50 161 124 333q-58 -22 -122 -62q-4 -3 -10 -3q-13 0 -18.5 15t8.5 23q138 86 228 86q70 0 95 -59q5 -12 -2.5 -21.5t-17.5 -9.5t-14 10z" />
    <glyph glyph-name="J" unicode="J" horiz-adv-x="494" 
d="M434 710q2 15 17 15q9 0 15.5 -5.5t6.5 -14.5t-4 -23q-8 -53 -18.5 -155t-18.5 -166t-31.5 -148.5t-60.5 -150.5q-100 -178 -220 -178q-40 0 -71.5 20.5t-46.5 57.5q-4 10 1.5 17t15.5 7q15 0 21 -14q21 -51 68 -51q36 0 78 27t69 59q70 83 107 214q13 45 23 100.5
t14.5 91t11.5 106t10 95.5q-62 -52 -152 -89t-177 -51h-3q-11 0 -17.5 9t-4 18.5t13.5 11.5q102 14 186 54q148 67 164 124q1 3 2 9.5t1 9.5z" />
    <glyph glyph-name="K" unicode="K" horiz-adv-x="714" 
d="M741 720q5 3 9 3q14 0 20.5 -14.5t-6.5 -23.5q-297 -195 -623 -350l-15 -71q192 -65 353 -65q122 0 236 36q2 1 6 1q15 0 19.5 -17.5t-10.5 -22.5q-120 -37 -243 -37q-168 0 -367 67q-20 -131 6 -216q4 -11 -2.5 -18t-16.5 -7q-14 0 -18 14q-29 98 -6 240q-22 8 -64 26
q-9 4 -11 14.5t4 16.5q36 36 93 66q21 111 77 331q3 13 18 13q10 0 17.5 -7t4.5 -17q-58 -238 -70 -296q11 5 22 11q272 129 567 323zM89 277q2 11 6 31q-17 -9 -30 -21q16 -6 24 -10z" />
    <glyph glyph-name="L" unicode="L" horiz-adv-x="484" 
d="M484 235q5 4 12 4q14 0 22 -11.5t-2 -21.5q-81 -71 -194.5 -141.5t-197.5 -70.5q-57 0 -88 38q-34 41 -26 122q5 44 41 194q49 196 120 379q4 10 14 10q11 0 18.5 -9.5t3.5 -20.5q-79 -198 -138 -462l-7.5 -33.5t-7.5 -34.5t-5 -35.5t0 -35.5q7 -72 73 -72q72 0 185 71.5
t177 129.5z" />
    <glyph glyph-name="M" unicode="M" horiz-adv-x="1047" 
d="M984 84q14 -7 9 -21.5t-19 -14.5q-7 0 -10 2q-6 3 -11 7t-8.5 8t-6.5 10.5t-5.5 10t-4 11.5t-2.5 11.5t-2 13t-1 12.5t-1 13t-1 12q-8 99 6 213q3 28 13 82q1 5 6.5 25.5t8 33.5t4 32t-5.5 22q-8 8 -17 8q-11 0 -25.5 -9.5t-27.5 -22t-28.5 -31t-25.5 -32l-21.5 -29
t-12.5 -17.5l-53 -78t-75 -102t-69 -64q-20 -15 -38 -15q-48 0 -39 119q3 31 13.5 90t13.5 86q6 46 3 92q0 3 -1 9.5t-1.5 9.5t-1.5 8t-3 7.5t-5 5.5t-7.5 4t-10.5 1q-3 0 -17 -2q-6 -1 -13 -6.5t-15 -13.5t-11 -10q-94 -78 -194 -237q-9 -14 -68.5 -113.5t-93.5 -149.5
q-1 -1 -8 -11t-9.5 -14t-10 -12t-12.5 -11.5t-13 -7t-15 -3.5q-4 0 -12 2q-31 10 -29 55q1 18 6.5 41.5t10 37t15.5 43t13 35.5q8 23 60 155q86 214 110 332q3 14 17 14q9 0 16 -7t5 -18q-4 -21 -9 -41t-11.5 -43.5l-11 -39t-14.5 -43l-14 -38.5l-16 -42t-14.5 -38
t-16.5 -42t-16 -39q-46 -114 -64 -173q0 -1 -4 -12l-8 -21.5t-8 -24t-5 -20t0 -10.5q5 -3 8 -3q5 0 10.5 4t10.5 9t10.5 13.5l8.5 13.5l7 12l5 8q22 33 90.5 149t121 186.5t118.5 126.5q65 55 103 55q32 0 47 -36q14 -34 14.5 -79t-6 -81.5l-16 -86t-12.5 -76.5
q0 -3 -1.5 -15t-2 -18.5t0 -15.5t3.5 -13.5t9 -4.5t16 6q14 9 52 58q30 36 97 128q54 73 94 121q2 2 12.5 14.5l14.5 17.5t14 15.5t17 16l16 12.5t18 11q15 8 29 8q20 0 30.5 -20.5t10 -53t-2.5 -55t-5 -43.5q-21 -110 -25 -188q-5 -26 -2 -101.5t28 -89.5z" />
    <glyph glyph-name="N" unicode="N" horiz-adv-x="617" 
d="M574 93q7 10 18 10t17 -9.5t0 -20.5q-20 -33 -57 -33q-42 0 -61.5 34t-20.5 80q-1 61 10.5 130t30.5 150t26 128q14 75 1 85q-5 4 -13 4q-13 0 -44 -21q-96 -72 -222 -251q-32 -45 -100 -162.5t-114 -174.5q-5 -6 -12 -6q-8 0 -16 6q-5 4 -8.5 9.5t-5.5 10t-2.5 12
t-0.5 11t1.5 12.5t2 11.5t3.5 13t3 11.5l42 180l88 369q3 14 18 14q10 0 16.5 -6.5t3.5 -17.5l-71 -300l-33 -139l-10 -31t-16 -55.5t-8 -46.5q37 51 100.5 161.5t100.5 161.5q2 3 28 38.5t33.5 45l31 40t37.5 43.5l36 34.5t42.5 35.5t42.5 24q25 11 39 11q73 0 36 -192
q-41 -196 -42 -202q-11 -64 -14 -121q-2 -26 8 -66t29 -40q11 0 26 19z" />
    <glyph glyph-name="O" unicode="O" horiz-adv-x="554" 
d="M451 662q63 -44 83.5 -125t6 -159.5t-49.5 -145.5q-49 -93 -141 -172.5t-186 -79.5q-28 0 -56 9q-33 10 -51 33t-19.5 54t5.5 64t23 70q-41 33 -56 78q-38 113 64 254q49 67 119.5 112t142.5 45q62 0 115 -37zM295 72q100 66 159.5 176t50.5 225q-7 80 -52 132.5
t-121 52.5q-97 0 -185 -90q-112 -116 -107 -224q3 -56 44 -96q36 67 73 112q6 6 13 6q12 0 18 -11.5t-3 -22.5q-42 -50 -69 -108q33 -20 99 -43q10 -3 13 -13t-2 -18t-15 -8q-4 0 -6 1q-71 24 -104 43q-12 -33 -18 -67q-15 -95 69 -95q70 0 143 48z" />
    <glyph glyph-name="P" unicode="P" horiz-adv-x="590" 
d="M268 695q71 17 145 17q177 0 241 -102q89 -140 -160 -327q-53 -40 -138 -85t-131 -45q-29 0 -48 18q-22 -157 47 -161q12 0 17 -10.5t0 -20t-17 -9.5q-33 2 -54 20.5t-26.5 45t-7.5 57t2 56.5q13 156 75 307q6 14 20 14q10 0 16 -7t2 -17q-41 -100 -67 -235q10 0 17 -9
q9 -12 27 -12q37 0 117 45t129 83q233 174 134 287q-59 68 -194 68q-62 0 -127 -14q-38 -8 -77 -22t-83 -37t-68.5 -58t-18.5 -75q1 -11 -5.5 -17.5t-16.5 -6.5q-13 0 -16 14q-7 40 8.5 76t43 61t67 46.5t75 33.5t72.5 21z" />
    <glyph glyph-name="Q" unicode="Q" horiz-adv-x="490" 
d="M433 864q74 -28 74 -213q2 -135 -40 -260q-45 -132 -129 -226q75 -164 212 -199q17 -4 16 -21.5t-17 -17.5q-4 0 -6 1q-151 37 -233 206q-94 -94 -172 -94q-55 1 -84.5 39t-33.5 92.5t5 120.5t23 116t28 85q4 11 17 11q11 0 17.5 -8.5t1.5 -19.5q-67 -163 -47 -309
q12 -84 71 -84q35 0 77.5 26.5t76.5 61.5l2 2q-45 112 -50 239q-6 157 43 302q11 33 25 63t42 61t58 31q10 0 23 -5zM468 639q0 125 -36 177q-10 3 -21 3q-29 0 -43 -26q-17 -19 -38 -71q-54 -133 -49 -296q3 -114 41 -220q144 180 146 433z" />
    <glyph glyph-name="R" unicode="R" horiz-adv-x="698" 
d="M698 235q2 1 7 1q15 0 17.5 -17t-13.5 -22q-138 -42 -265 -42q-156 0 -299 64q-7 -86 35 -108q14 -7 8.5 -22t-19.5 -15q-3 0 -9 2q-65 34 -50 159q-16 8 -24 13q-11 6 -9 19t14 17l28 9q17 96 89 278q6 13 20 13q10 0 16.5 -6.5t2.5 -17.5q-55 -138 -76 -214
q-1 -5 -2.5 -11t-4 -14.5t-3.5 -14.5q127 42 212 88l30.5 17.5l37 22.5t40 28l37.5 31.5t32.5 35t21.5 35.5t9 37.5t-10 37.5q-30 54 -137 54q-110 0 -215 -42.5t-185 -118.5q-6 -6 -13 -6q-12 0 -18.5 12t3.5 22q86 82 196.5 126.5t229.5 44.5q131 0 174 -71
q67 -111 -146 -260q-114 -78 -309 -139q138 -66 293 -66q123 0 254 40z" />
    <glyph glyph-name="S" unicode="S" horiz-adv-x="542" 
d="M68 504q64 60 169 107.5t186 47.5t105 -53q6 -11 -1 -20.5t-18 -9.5t-15 10q-14 30 -75 30q-83 0 -186.5 -50t-159.5 -113q-14 -17 -20 -25t-7 -25t15 -31q16 -13 76.5 -24t102.5 -15q141 -13 193 -32q35 -13 48.5 -36.5t7 -48.5t-25.5 -48.5t-46 -38.5q-98 -55 -193 -55
q-76 0 -115 43q-9 11 -3 22.5t18 11.5q7 0 13 -6q28 -31 86 -31q66 0 145 35q18 8 26 12t24 13.5t24 20.5t10 24q1 8 -1 15t-6.5 12.5t-10 9.5t-14 7.5l-15 6t-17 4.5l-16 3l-16 3t-13.5 2q-30 5 -103.5 11.5t-113.5 15.5q-106 22 -122 67q-19 50 64 128z" />
    <glyph glyph-name="T" unicode="T" horiz-adv-x="319" 
d="M536 693q35 0 57 -1.5t54.5 -8.5t53.5 -24.5t29 -45.5q3 -11 -3.5 -18t-16.5 -7q-15 0 -19 14q-15 51 -120 51q-133 0 -259 -25q10 0 17 -7t3 -17q-8 -32 -20.5 -69.5t-22 -63l-26.5 -69.5l-25 -64q-11 -33 -20.5 -65.5t-25.5 -96.5t-10.5 -103t33.5 -39q3 0 13 2
q2 1 6 1q10 0 15.5 -8.5t2.5 -18t-13 -12.5q-18 -5 -30 -5q-32 0 -49 24t-18 61t2.5 68.5t10.5 59.5q18 74 69.5 208.5t69.5 199.5q3 9 9 12q-217 -54 -265 -117q-5 -8 -17 -8q-11 0 -17.5 8.5t0.5 19.5q18 24 47 44t51.5 29.5t61.5 23.5q176 67 372 67z" />
    <glyph glyph-name="U" unicode="U" horiz-adv-x="467" 
d="M471 629q4 11 14 11t17.5 -10t2.5 -21q-80 -172 -112 -288q-9 -31 -13.5 -50.5t-11 -54t-5.5 -59.5t6 -53t20.5 -49t40.5 -35q14 -8 9 -22.5t-19 -14.5q-4 0 -10 3q-113 63 -72 272q8 44 25 101q-6 -7 -16 -21.5t-16 -21.5q-168 -217 -261 -217q-36 0 -55 31t-14 76
q13 115 79 351q4 14 18 14q10 0 16.5 -7t3.5 -17q-37 -131 -63 -266q0 -1 -4 -15.5t-6 -24t-4.5 -26.5t-1.5 -28t4 -23t12 -18t22 -6h7q11 1 23.5 7t27.5 18t22.5 18.5t24.5 22.5l16 17q162 160 273 406z" />
    <glyph glyph-name="V" unicode="V" horiz-adv-x="359" 
d="M441 756q23 -16 24 -43.5t-10 -51.5q-20 -63 -74 -185l-56.5 -126t-55.5 -105.5t-76 -114.5q-24 -30 -56.5 -51.5t-61.5 -21.5q-46 0 -64 60q-4 15 -6.5 32.5t-4 30t-1 35.5t1 30.5t2.5 35t2 30.5q4 42 10 126.5t0 85.5q-17 5 -14 22t19 17h2q2 -1 3 -1q5 -1 9 -3.5
l7 -4.5t5 -7l3 -7.5t1.5 -9t0.5 -9t0.5 -10t0.5 -8.5q3 -53 -5 -161q-7 -123 -4 -161q2 -36 5 -45q1 -3 2.5 -10.5t2 -9t2.5 -6t5 -5.5t7.5 -3t10.5 -3h7q7 0 13 1.5t13 6t11 6.5t11 10t9 9.5t10 12.5l9 10q11 13 21 26.5t20.5 30l18 28.5t18 31.5l16 29.5t16 32.5t14.5 30
t16 33t14 30.5q42 89 68 155q1 2 9 20.5l14 33t13.5 36.5t7 31.5t-5.5 18.5q-13 9 -8 23.5t18 14.5q5 0 10 -3z" />
    <glyph glyph-name="W" unicode="W" horiz-adv-x="704" 
d="M631 790q68 -7 73 -92q4 -75 -17 -204q-42 -240 -152 -398q-61 -88 -112 -92q-36 0 -59 23.5t-31 61.5q-14 65 -1 217q8 81 11 127q0 3 1.5 20.5t3 32.5t1 34t-2.5 30q-34 -41 -66 -106t-54 -119t-61 -110t-87 -88q-20 -12 -32 -12q-18 0 -29.5 17.5t-14.5 39.5t-1 44
q6 55 52 351q3 14 17 14q10 0 16.5 -6.5t5.5 -17.5q-21 -131 -42 -277q-11 -69 -11 -78q-2 -13 -0.5 -25t10.5 -12q8 0 21 7q22 11 68 82q21 33 81 159t114 183q5 5 14 5q7 0 10 -2q6 -4 11 -8.5t8 -11.5l5 -11.5t3 -14t1.5 -13t0.5 -15v-13.5q0 -47 -11 -177
q-10 -94 -9 -166v-24.5t1 -32.5t5 -25.5t12 -21.5q14 -13 34 -13q23 0 40 15q91 81 146 259.5t60 329.5v42q-1 16 -10 33.5t-23 18.5q-12 1 -17 11.5t0 20t17 8.5z" />
    <glyph glyph-name="X" unicode="X" horiz-adv-x="521" 
d="M639 684q6 2 8 2q14 0 16 -16.5t-13 -23.5q-249 -103 -425 -292q15 -52 26 -81q27 -70 80.5 -122.5t116.5 -52.5q31 0 64 15q6 2 9 2q15 0 20 -14.5t-9 -21.5q-39 -19 -81 -19q-58 0 -111 34t-89 89q-35 55 -58 133q-31 -37 -65 -87q-11 -16 -21.5 -33.5l-28 -49
t-27 -58.5t-14 -53.5t7 -43t39.5 -18.5q12 -1 17 -11.5t0 -20t-17 -8.5q-43 3 -64 32.5t-20.5 66.5t15.5 73q47 118 149 238q2 4 8 10.5t8 9.5q-16 68 -36 252q-1 19 17 19q21 0 22 -19q21 -162 31 -215q174 181 425 284z" />
    <glyph glyph-name="Y" unicode="Y" horiz-adv-x="469" 
d="M521 715q2 1 6 1q11 0 17.5 -9t2.5 -19q-128 -293 -168 -420q-36 -111 -55 -215q-1 -4 -6.5 -31.5t-8 -44t-6.5 -46t-2.5 -49t5 -41.5t14.5 -35t28 -18q16 -5 14.5 -23t-16.5 -18q-4 0 -6 1q-83 25 -75 155q9 169 62.5 335.5t145.5 380.5q-11 -16 -28.5 -45t-22.5 -36
l-92 -132q-24 -32 -52 -66t-69.5 -78.5t-82.5 -72.5t-71 -28t-45.5 23.5t-8.5 66.5q27 151 118 328q5 11 17 11q11 0 17.5 -8.5t0.5 -19.5q-72 -140 -108 -290q0 -2 -3 -11.5t-4 -15.5t-1.5 -15.5t2 -15.5t9.5 -10t18 -4q5 0 11.5 3t14.5 9t13.5 10.5l13.5 11.5t10 9
q48 41 96.5 98t77 96.5l78.5 112.5l33.5 55t54 75t51.5 35z" />
    <glyph glyph-name="Z" unicode="Z" horiz-adv-x="586" 
d="M586 235q6 2 8 2q14 0 15.5 -17t-13.5 -23q-42 -17 -136.5 -65t-145.5 -67q-14 -5 -52 -20t-60.5 -23t-55.5 -15.5t-60 -7.5q-16 0 -32 3q-41 6 -45.5 35.5t19.5 58.5q9 12 21 25l21 23t24.5 24l23 21t26.5 23t24 20.5t26.5 21.5t24.5 20l96.5 76.5l108.5 86.5
q107 84 144 130q30 24 -2 56l-30 -3q-64 -7 -136 -30.5t-121 -46.5l-129.5 -63.5t-119.5 -58.5q-6 -2 -9 -2q-15 0 -20 14.5t9 21.5l115.5 56l124 61t116 47.5t129.5 34.5q51 8 64 8q57 0 66 -46q3 -19 -3 -37.5t-22.5 -38t-28 -31t-35.5 -31t-28 -23.5
q-41 -36 -191.5 -154.5t-223.5 -193.5q-68 -68 -10 -68q20 0 66 11q39 10 154 54q52 19 146 66.5t137 64.5z" />
    <glyph glyph-name="bracketleft" unicode="[" horiz-adv-x="202" 
d="M252 603q-7 0 -14 5l-3 3q-1 1 -2 1t-2 1q-6 2 -10 2q-26 0 -42 -71q-4 -15 -7.5 -33.5l-6.5 -34.5t-4 -20q-13 -60 -54 -189.5t-54 -200.5q-4 -21 -5 -28q-3 -15 -3 -28q0 -8 4 -22l3.5 -10t3.5 -11l2 -6l4 6q5 10 16 10q9 0 16 -6.5t7 -15.5q0 -13 -13.5 -25t-26.5 -12
q-23 0 -40 21t-19 45q0 74 22 156q9 35 42 136q49 157 62 240q18 140 94 140q16 0 34.5 -9.5t18.5 -22.5q0 -8 -7.5 -14.5t-15.5 -6.5z" />
    <glyph glyph-name="backslash" unicode="\" horiz-adv-x="432" 
d="M473 12q-7 0 -14 7l-70 84q-137 160 -382 413q-6 6 -6 14t6.5 14.5t14.5 6.5t14 -6q108 -102 254 -266q149 -167 199 -231q5 -7 5 -13q0 -9 -6.5 -16t-14.5 -7z" />
    <glyph glyph-name="bracketright" unicode="]" horiz-adv-x="261" 
d="M269 594q0 -33 -12 -78q-16 -52 -22 -76q-11 -47 -35 -139q-60 -217 -86 -294q-26 -75 -73 -75q-12 0 -26.5 6.5t-14.5 17.5q0 9 7 16t16 7q4 0 6 -1q1 -1 4 -1q1 -1 4 -1q23 0 51 83q12 39 30 105l46 168q2 10 19 76.5l26 101.5q1 5 3 11t5 13.5t4 11.5q7 23 7 39
q0 11 -12 11q-13 0 -33 -4t-29 -4q-16 0 -16 18q0 21 20 24q29 6 61 6q50 0 50 -42z" />
    <glyph glyph-name="asciicircum" unicode="^" horiz-adv-x="277" 
d="M206 356q-14 0 -17 16q-4 18 -6 62q-1 24 -1 66q0 1 0.5 5.5t0.5 6.5q1 4 1 12l-1 4l-8 -4q-7 -15 -31 -43q-3 -3 -16.5 -18t-19.5 -23l-31 -42.5t-36 -47.5q-7 -9 -18 -9q-9 0 -16 5.5t-7 12.5q0 3 4 11q30 43 100 132q5 6 16.5 22t19.5 25q23 29 43 35q6 3 12 3
q20 0 27 -29q2 -7 4 -25v-21q0 -12 -0.5 -35.5t-0.5 -34.5q0 -34 4 -59q0 -27 -23 -27z" />
    <glyph glyph-name="underscore" unicode="_" horiz-adv-x="328" 
d="M288 68q-16 0 -50 2h-217q-20 0 -20 20t20 22q24 2 38 2q9 0 26.5 -0.5t25.5 -0.5q20 0 60.5 -0.5t60.5 -0.5q6 0 26 -0.5t30 -1.5q20 -3 20 -22q0 -20 -20 -20z" />
    <glyph glyph-name="grave" unicode="`" horiz-adv-x="199" 
d="M141 424q12 -6 7.5 -17.5t-16.5 -11.5q-35 0 -80 87q-4 9 1.5 16.5t13.5 7.5t12 -8q31 -60 62 -74z" />
    <glyph glyph-name="a" unicode="a" horiz-adv-x="372" 
d="M373 233q6 6 13 6q12 0 18.5 -11.5t-3.5 -22.5q-78 -82 -139 -82q-40 0 -65 23t-30 64q-59 -75 -119 -75q-50 0 -58 42q-9 47 35.5 95.5t93.5 48.5q32 0 53 -24q0 -1 1 -2.5t2 -2.5q5 5 12 5q9 0 15.5 -7.5t5.5 -17.5q-6 -42 6 -75t48 -33q22 0 44 12t34 23.5t33 33.5z
M49 178q54 0 107 84q-8 2 -12 7q-12 13 -27 13q-33 0 -68 -48q-5 -8 -9 -16t-7 -18t0.5 -16t15.5 -6z" />
    <glyph glyph-name="b" unicode="b" horiz-adv-x="352" 
d="M305 309q9 -16 5.5 -38.5t-11.5 -41t-19 -34.5q-39 -61 -117 -80q-1 0 -3 -1h-2q-17 0 -20.5 17t13.5 22q66 15 98 66q22 37 19 57q-1 8 -8 8q-6 0 -16 -6q-63 -36 -114 -144q-2 -4 -9.5 -23t-12.5 -29t-15.5 -21.5t-23.5 -13.5q-1 0 -3.5 -0.5t-3.5 -0.5q-32 0 -52 61
q-13 39 -15 82.5t7 93t17.5 83t24.5 86.5l6 20l13.5 46l12.5 43.5t11 36.5t12.5 37.5t12.5 34t15 38.5l17 37.5l21 44.5q5 11 17 11q10 0 17 -9t2 -20q-35 -69 -59.5 -134.5t-36.5 -108l-38 -141.5q-37 -139 -28 -221q12 -73 21 -75q8 -1 21 31q24 54 39 80q19 34 67 82
t83 48q22 0 35 -24z" />
    <glyph glyph-name="c" unicode="c" horiz-adv-x="253" 
d="M265 227q5 4 11 4q12 0 16.5 -14.5t-7.5 -23.5q-43 -34 -72 -54.5t-77 -42.5t-86 -22q-44 0 -62 31q-30 57 34 179q51 93 111 93q14 0 21 -2q17 -4 13.5 -21t-20.5 -17h-4q-3 1 -10 1q-24 0 -47 -26.5t-34.5 -53.5t-18.5 -53q-13 -49 -12 -62q4 -29 34 -29q11 0 39 7
q18 5 35.5 13.5t38 21.5t32 21.5l35 26.5t30.5 23z" />
    <glyph glyph-name="d" unicode="d" horiz-adv-x="324" 
d="M401 814q11 -3 17.5 -11.5t8 -21.5t1.5 -26t-3.5 -29.5l-6 -27.5t-6.5 -25.5t-5 -18.5q-44 -181 -176 -347q-31 -240 60 -381q7 -11 0 -20t-18 -9q-10 0 -16 9q-88 137 -72 346l-8 -8q-1 -2 -13 -15t-16 -17l-16 -16.5t-18.5 -18.5t-18.5 -16t-20.5 -15l-19.5 -11
t-21.5 -8t-20.5 -2q-22 0 -31.5 11.5t-7.5 29t7.5 33t13.5 29.5q59 99 139 99q12 0 17 -10t0 -20t-17 -10q-54 0 -100 -73q-6 -8 -14.5 -26.5t-0.5 -21.5q25 0 81.5 55.5t92.5 99.5q28 198 109 372q1 3 9.5 23t15 33.5t17 30.5t23 26.5t24.5 9.5q4 0 10 -2zM385 752
q0 15 -1 15t-2.5 -3t-4 -9t-4.5 -9q-13 -21 -24 -47q-67 -135 -103 -305q132 195 139 358z" />
    <glyph glyph-name="e" unicode="e" horiz-adv-x="227" 
d="M227 231q6 6 13 6q12 0 18.5 -11.5t-3.5 -22.5q-93 -91 -165 -91q-25 0 -46 10q-33 15 -42 52t-1 73t24 67q14 25 45.5 51.5t58.5 26.5q26 0 40 -29q19 -43 -29.5 -89t-102.5 -65q0 -25 13.5 -40.5t38.5 -15.5q55 0 138 78zM66 305q-13 -22 -21 -49q40 18 66 51
q24 37 13 43q-2 1 -5 1q-12 0 -29 -17t-24 -29z" />
    <glyph glyph-name="f" unicode="f" horiz-adv-x="174" 
d="M175 235q11 -1 16 -11t1 -19t-14 -9h-3q-14 2 -34 2q-14 0 -39.5 -3t-43.5 -4q-18 0 -27 -1q-5 -24 -16 -88q29 -69 41 -156q23 -154 5 -245q-5 -24 -18.5 -43t-30.5 -19t-32 19q-6 8 -11.5 18.5t-9 19.5t-6 23.5l-4 23.5t-2 26t-1 25t0.5 26t1 23.5t1.5 23.5t1.5 20
q4 88 21 201q-17 37 -40 73q-35 53 66 68q20 93 50 210q5 22 26 92t30.5 119t8.5 93q0 20 19 20q8 0 14.5 -5.5t6.5 -14.5q1 -37 -5.5 -74.5t-24 -99.5l-20.5 -73q-44 -176 -61 -252q0 -4 -2 -12q102 4 111 4q18 0 24 -1zM-17 158l3 9l2.5 10t1.5 9q-11 -1 -15.5 -2t-6 -3
t0 -3.5t6 -8t8.5 -11.5zM29 -199q-4 128 -28 211q-2 -24 -4 -36q-7 -70 -8 -128q-3 -26 -1.5 -69.5t13.5 -66.5q9 -17 14 -17q14 0 14 106z" />
    <glyph glyph-name="g" unicode="g" horiz-adv-x="358" 
d="M378 235q16 -5 13.5 -22t-18.5 -17q-4 0 -6 1q-3 1 -9 1q-18 0 -42 -16t-55 -43.5t-39 -33.5q3 -30 5 -90q0 -150 -39 -281q-12 -41 -34 -89t-53.5 -100t-73.5 -86.5t-84 -34.5q-25 0 -47 16q-67 50 -37 202q26 124 119.5 259t202.5 222l-3 30q-1 7 -4.5 42.5t-8 58.5
t-12.5 41q-2 2 -2 3q0 -5 -1 -6q-4 -5 -9.5 -14.5t-6.5 -11.5l-21 -41l-8 -15.5t-9.5 -17t-9.5 -16t-11 -18l-11.5 -16t-13.5 -16l-14 -12.5t-16 -11.5t-16 -7.5q-10 -3 -18 -3q-20 0 -26.5 18t-0.5 42q23 85 100 152q7 5 13 5q14 0 20 -11.5t-5 -21.5q-38 -33 -59 -67
q-10 -15 -23 -40.5t-9 -30.5q1 -1 3 -1q10 0 40.5 46t42.5 69q49 93 77 93q16 0 28 -26q7 -15 12 -35.5t7 -34.5t5 -41.5t4 -34.5l3 -22q6 4 40.5 31.5t59 41t46.5 13.5q4 0 14 -2zM113 -352q85 183 72 426q-1 -1 -4 -3q-145 -126 -234 -304q-89 -184 -45 -269
q18 -35 45 -35q29 0 67.5 41t61.5 78.5t37 65.5z" />
    <glyph glyph-name="h" unicode="h" horiz-adv-x="391" 
d="M391 235q6 6 14 6q11 0 15.5 -12t-5.5 -23q-65 -65 -104 -65q-23 0 -48 28.5t-41 28.5q-6 0 -18 -5q-6 -3 -12 -8.5t-9.5 -10.5t-9.5 -12t-8 -10q-6 -7 -32.5 -48.5t-51 -70t-43.5 -28.5q-21 0 -32 37q-13 42 -15 92t6.5 107.5t17.5 98.5t24 101q47 180 148 417
q6 14 20 14q10 0 15.5 -7t1.5 -17q-88 -206 -133 -363q-65 -225 -57 -365q2 -19 6 -47.5t7 -27.5q2 0 10 14l17.5 29.5t11.5 18.5q17 27 37.5 54t53 57t54.5 30q12 0 22 -7q5 -3 15 -16.5t22 -23t27 -9.5q30 0 74 43z" />
    <glyph glyph-name="i" unicode="i" horiz-adv-x="213" 
d="M213 235q6 6 13 6q12 0 18 -11.5t-3 -22.5q-111 -127 -179 -127q-15 0 -25 5q-63 30 -34 176q2 7 5 20q1 8 2 11q3 14 17 14q10 0 17 -7t4 -18q-1 -3 -3.5 -15.5l-4 -20.5l-4 -22t-3 -24t-0.5 -22.5t2.5 -21.5t6.5 -17t11.5 -13t17.5 -6h3q10 0 24 7t25.5 16t27.5 25
l24.5 25t22 25t15.5 18zM77 388q-3 -14 -16 -14q-10 0 -16.5 6.5t-5.5 17.5q11 75 70 123q5 5 13 5q13 0 19.5 -11.5t-4.5 -21.5q-49 -40 -60 -105z" />
    <glyph glyph-name="j" unicode="j" horiz-adv-x="148" 
d="M149 235q7 5 13 5q13 0 19.5 -12t-4.5 -22q-50 -42 -115 -130q10 -169 -17 -306q-23 -122 -79 -224q0 -1 -8.5 -17l-12.5 -23.5t-14 -22t-17.5 -22t-18.5 -14t-21 -6.5q-6 0 -9 1q-53 12 -33 155q19 129 69 261.5t121 230.5q-4 61 -20 183q-1 11 6 18t17 7q13 0 16 -15
q12 -98 16 -147q70 81 92 100zM17 -153q10 80 8 175q-102 -159 -151 -412q0 -2 -2.5 -13t-3.5 -17t-2.5 -17.5t-1 -18.5t1.5 -15t4.5 -13t9.5 -7q2 -1 5 -1q7 0 13 4.5t12.5 14t9.5 15t9.5 18.5t6.5 14q64 118 81 273zM21 411q-4 -14 -19 -14q-10 0 -16.5 7t-2.5 17
q18 57 27 111q3 14 16 14q10 0 16.5 -6.5t5.5 -17.5q-10 -64 -27 -111z" />
    <glyph glyph-name="k" unicode="k" horiz-adv-x="326" 
d="M326 235q4 3 10 3q13 0 18 -14t-8 -23q-112 -73 -239 -73q-48 0 -77 17q-3 -81 15 -143q3 -10 -3.5 -17t-16.5 -7q-14 0 -18 14q-25 84 -13 196q-9 27 7 49q5 34 26 130q32 155 108 415q4 14 18 14q10 0 16.5 -7t3.5 -17q-69 -238 -99 -376q-21 -91 -27 -119
q57 32 135 49h4q17 0 20 -17t-14 -22q-70 -15 -113 -37q-20 -10 -28.5 -27t-2.5 -27q18 -30 70 -30q49 0 111.5 23.5t96.5 45.5z" />
    <glyph glyph-name="l" unicode="l" horiz-adv-x="299" 
d="M297 232q5 8 17 8t18 -8.5t-1 -19.5q-28 -37 -61.5 -75.5t-83 -78.5t-82.5 -40q-39 0 -65 35t-33 81q-8 74 -4.5 130.5t18.5 129.5t30.5 129t32.5 128t24 128q3 19 22 19q8 0 13.5 -5t4.5 -14q-10 -81 -48 -232.5t-49 -225.5q-39 -258 57 -256q12 0 23 4t23.5 13.5
t18.5 14.5t21 20l17 17q41 39 87 98z" />
    <glyph glyph-name="m" unicode="m" horiz-adv-x="639" 
d="M640 235q6 6 13 6q12 0 18 -11.5t-3 -22.5q-60 -70 -126 -70q-62 0 -95 71q-12 24 -21 24q-6 0 -22 -8q-7 -4 -14 -9.5t-15.5 -14t-12.5 -11.5q-2 -2 -11 -9.5t-13 -10.5t-12 -7t-15 -5q-19 0 -31.5 10t-16.5 21t-10 33q-1 6 -1.5 20t-4.5 19.5t-17 9.5q-8 2 -10 2
q-31 0 -105 -113q-3 -4 -15 -25t-20.5 -34t-22.5 -26t-26 -14h-6q-32 0 -32 64q0 85 18 209q3 15 16 15q10 0 17 -7t6 -18q-21 -142 -17 -210v-2l2 2q4 5 27 38q30 45 42 61l24.5 33t28 33t39.5 34t37 11q38 0 50 -41q2 -5 4.5 -34.5t7.5 -34.5q4 -4 10 -4q20 0 50 26
q9 7 27 23q29 22 39 23q21 0 32 -9t22 -30q2 -4 7.5 -14l8 -14.5t8 -12.5t10 -11.5l10.5 -8t14 -6.5t17 -2q18 0 36.5 11.5t27.5 21t26 29.5z" />
    <glyph glyph-name="n" unicode="n" horiz-adv-x="419" 
d="M419 235q7 6 14 6q13 0 17.5 -11.5t-6.5 -22.5q-29 -28 -66 -48.5t-68 -20.5q-18 0 -31 7q-18 9 -30.5 26t-17.5 31t-11 25t-15 11q-21 0 -91 -81q-3 -3 -16.5 -20.5t-24.5 -30.5t-27 -24.5t-28 -11.5q-13 0 -22 13q-4 5 -6 12.5t-2 18v16.5t1.5 18.5t1.5 14.5l4 37.5
t4 42t0.5 35t-4.5 39.5q-3 11 4 18t18 7q15 0 18 -14q9 -40 4 -93q0 -5 -6.5 -37.5t-7.5 -49.5t4 -34q-3 4 52 63t74 76q38 32 61 32q18 0 31 -20q2 -4 15.5 -36t30.5 -44q10 -7 23 -7q46 0 103 57z" />
    <glyph glyph-name="o" unicode="o" horiz-adv-x="200" 
d="M226 316h4q17 0 20 -17t-14 -22q-32 -7 -107 -12q18 -41 -11.5 -98.5t-71.5 -72.5q-18 -6 -31 -6q-28 0 -35.5 29t2.5 70t21 73.5t21 52.5q4 10 15 10t18 -9.5t1 -20.5q-46 -93 -42 -126t19 -33q18 0 42 39q8 14 14 31t3 36.5t-23 24.5q-16 4 -14 21.5t19 17.5
q10 0 26.5 -0.5t22.5 -0.5q49 0 101 13z" />
    <glyph glyph-name="p" unicode="p" horiz-adv-x="286" 
d="M45 280q84 66 146 66q29 0 47.5 -17.5t16.5 -48.5q-3 -39 -32 -78.5t-66 -69.5q-49 -41 -76 -41q-21 0 -31 21q-6 11 1 20.5t18 9.5q9 0 15 -10q2 -5 34 20.5t41 34.5q46 50 53 81q8 36 -22 36q-33 0 -75.5 -26t-75.5 -57q-24 -202 -29 -251q-12 -120 -12 -212v-23.5v-26
t0.5 -25t2.5 -26.5t5 -24t7.5 -24.5t11 -20.5t15.5 -20q10 -10 3.5 -22t-18.5 -12q-7 0 -13 6q-44 42 -51 137q-8 96 3 233q4 50 34 303q-12 13 1 26l2 2q10 96 13 144q2 20 21 20q8 0 14 -5.5t5 -14.5z" />
    <glyph glyph-name="q" unicode="q" horiz-adv-x="315" 
d="M256 352q3 -8 5.5 -16.5t3 -18.5t1 -17.5t-0.5 -19t-1.5 -18t-2.5 -19.5t-3 -17.5t-3.5 -18.5t-3.5 -17q-11 -65 -45 -193l-56 -201q-1 -5 -8.5 -32l-12 -44t-9 -45.5t-3 -47t9 -36t23.5 -25.5q14 -8 9 -22t-20 -14q-3 0 -9 2q-22 11 -35 30.5t-15.5 46.5t-1.5 53.5t9 60
t14.5 57t16 53.5l12.5 40q56 207 62 231l10 37t10.5 40.5t9 43t5.5 43t-1 40.5q-99 -102 -143 -136q-51 -39 -81 -39q-19 0 -29 14q-25 33 47 114q2 3 3 4q54 61 94 61q19 0 35 -11q8 -6 8 -14q35 36 62 60q6 5 14 5q14 0 20 -14zM85 226l53 52q-2 0 -6 2q-5 4 -13 4
q-23 0 -56 -31t-39 -51q-3 -9 -3.5 -12.5t0.5 -3.5t3 1l6 3t8 3q9 3 47 33z" />
    <glyph glyph-name="r" unicode="r" horiz-adv-x="281" 
d="M300 270q4 3 9 3q14 0 19.5 -15t-8.5 -23q-58 -31 -106 -31q-54 0 -89 38q-1 1 -4.5 6t-7.5 10l-4 5l-4 -8q-4 -8 -11 -20t-10 -19q-18 -40 -51 -149q-5 -15 -20 -15q-5 0 -10 3q-12 7 -16.5 20.5t-3.5 25t4 31t4 25.5l9.5 93t10.5 95q2 20 21 20q8 0 13.5 -5.5
t4.5 -14.5l-6.5 -62.5t-6.5 -65.5q0 -5 -3 -18l9 20l46 77q13 10 24 10q12 0 24 -12q6 -5 17 -19t20.5 -20.5t25.5 -9.5q12 -2 18 -2q32 0 82 27z" />
    <glyph glyph-name="s" unicode="s" horiz-adv-x="253" 
d="M193 186q19 -41 -26.5 -77t-90.5 -43h-4q-11 0 -17 8.5t-3.5 18t13.5 11.5q26 4 53 16.5t32 31.5q3 10 -1.5 17.5t-15 11t-20 5.5t-22.5 3.5t-16 2.5q-23 5 -33 7.5t-26.5 12t-22.5 24.5q-14 32 5 70.5t54.5 64t67.5 25.5q19 0 19 -20t-19 -20q-26 1 -59 -30t-32 -58
q1 -10 7 -17.5t17.5 -11.5t20.5 -6.5t23 -4.5t17 -3q2 0 16.5 -3t20 -5l16 -6t16.5 -10t10 -15z" />
    <glyph glyph-name="t" unicode="t" horiz-adv-x="151" 
d="M321 502q12 0 17 -9.5t0 -20t-17 -10.5q-116 -2 -230 -18q-28 -100 -43 -172q-32 -143 -35 -203q-8 -133 58 -187q11 -10 5 -21.5t-20 -11.5q-6 0 -13 5q-27 22 -43 56t-21.5 64.5t-3.5 76.5t6 71.5l11 70.5q1 8 2 12q19 104 54 232q-86 -14 -163 -34q-1 0 -3 -1h-2
q-16 0 -19.5 17t13.5 22q97 25 186 38l55 178q4 14 19 14q10 0 16.5 -7t2.5 -18l-49 -160q115 15 217 16z" />
    <glyph glyph-name="u" unicode="u" horiz-adv-x="362" 
d="M-3 69q-14 13 -14.5 41.5t4.5 47.5q7 64 20 116q3 14 18 14q9 0 15.5 -6.5t3.5 -17.5q-10 -40 -17 -106q-6 -65 17 -65q7 0 16 6q36 25 62.5 74t43 84.5t33.5 36.5q10 1 16 -10q7 -17 7.5 -39.5t-2 -49.5t-1.5 -42q3 -55 25 -55q10 0 24.5 12t29.5 32l26.5 36.5t23.5 36
t13 20.5q6 10 16 10q11 0 16.5 -9t-0.5 -21q-93 -153 -156 -153q-55 0 -58 98q0 68 6 81q-1 -3 -11.5 -28.5t-22.5 -50t-29 -52t-38 -44.5t-42 -17q-22 0 -45 20z" />
    <glyph glyph-name="v" unicode="v" horiz-adv-x="356" 
d="M367 281q5 4 11 4q12 0 15.5 -14.5t-8.5 -23.5q-49 -36 -102 -36q-57 0 -102 40q-5 -16 -11.5 -43.5t-13 -47t-15.5 -41.5q-10 -23 -16 -34.5t-21 -27.5t-32 -17q-38 0 -54 55q-7 27 -10.5 56t-7 72.5t-4.5 57.5q-1 11 6 17.5t17 6.5q15 0 16 -14q2 -20 6.5 -60.5
t6.5 -60.5q0 -2 1 -15.5t2 -22t3.5 -19.5t7 -16.5t11.5 -5.5q5 0 13 5q7 5 13 13t10.5 21t6.5 20t5.5 23.5t4.5 18.5q15 66 27 104q5 14 18 14q11 0 18 -10q34 -49 93 -49q44 0 85 30z" />
    <glyph glyph-name="w" unicode="w" horiz-adv-x="490" 
d="M506 296q6 10 17 10t17.5 -9.5t-0.5 -20.5q-22 -33 -71 -33q-54 0 -126 35q21 -105 -15 -175q-12 -24 -31 -40.5t-39 -16.5q-56 0 -68 110q0 2 -3 55q0 25 -1 37q-6 11 -11 11q-6 0 -12 -13q-25 -15 -96 -126q-34 -54 -67 -72q-4 -3 -10 -3q-16 0 -19 14l-3 30.5t2.5 30
t6.5 29.5l8.5 29.5l8.5 29.5q19 73 26 119q3 14 16 14q10 0 17 -7t6 -18q-3 -17 -18 -81q-3 -13 -16.5 -56.5t-16.5 -67.5q5 6 50 71t74.5 95t54.5 30q13 0 24 -11q5 -4 8 -10t4 -14.5t1.5 -14t1 -16t0.5 -12.5q1 -15 0 -41t3 -54t14 -33q7 -15 17 -15q24 0 36.5 41t15.5 78
q0 47 -19 107q-3 9 4 17.5t16 8.5q5 0 9 -3q41 -27 83 -38q39 -13 68 -13q25 0 33 12z" />
    <glyph glyph-name="x" unicode="x" horiz-adv-x="272" 
d="M273 232q5 8 17 8q11 0 17.5 -9t-0.5 -19q-97 -127 -168 -127q-46 0 -77 46q-114 -115 -211 -252q-7 -9 -17 -9q-11 0 -17.5 9t0.5 20q101 142 225 268q-19 42 -33 140q-1 11 6 18t16 7q15 0 16 -15q13 -87 26 -119l39 36l59 53.5t62.5 53t35.5 21.5q14 0 20 -11.5
t-5 -21.5q-93 -72 -192 -168q18 -28 46 -28q32 0 69 30.5t66 68.5z" />
    <glyph glyph-name="y" unicode="y" horiz-adv-x="438" 
d="M438 235q12 0 17 -9.5t0 -19.5t-17 -10q-25 -1 -56 -16t-47.5 -27t-50.5 -39q2 -166 -37 -290q-40 -119 -109 -190q-56 -56 -105 -56q-22 0 -39 12q-56 39 -35 161q19 99 98 197.5t179 176.5q1 1 3.5 3t3.5 3q0 41 -7 176q-43 -60 -74 -99q-49 -60 -76 -78
q-17 -11 -33 -16q-16 -4 -22 -4q-74 0 -15 186q4 14 19 14q10 0 16.5 -7t2.5 -17q-1 -2 -8 -23.5t-10 -33.5t-7.5 -33t0.5 -22q7 -14 20 -14q5 0 11 3t11 6t12 10t10.5 10t10 10.5t7.5 8.5q47 54 123 167q7 10 17 10q18 0 20 -20q10 -130 12 -203l50 35t48 24.5t57 13.5z
M238 -16q3 32 5 96q-63 -52 -113 -105.5t-92 -128.5t-44 -143q-3 -57 10 -66q11 -8 36 -8q45 0 83 40.5t61 101t36.5 115.5t17.5 98z" />
    <glyph glyph-name="z" unicode="z" horiz-adv-x="415" 
d="M415 235q7 5 13 5q14 0 20 -11.5t-5 -21.5q-184 -143 -448 -143q-15 1 -19.5 15.5t9.5 21.5q94 48 163 111q116 108 99 127q-2 2 -78 -29q-67 -19 -110 -19q-48 0 -64 36q-5 11 2.5 21t17.5 10t14 -11q10 -21 40 -21q31 0 99.5 26.5t79.5 27.5h3q24 0 33.5 -17t1.5 -40
q-18 -53 -85.5 -117t-131.5 -103q180 3 346 132z" />
    <glyph glyph-name="braceleft" unicode="{" horiz-adv-x="253" 
d="M350 638q0 -14 -15 -17q-41 -10 -66 -39.5t-48 -78.5l-26.5 -64.5t-26.5 -61.5q-27 -57 -48 -86l-2 -3l2 -1q31 -23 31 -74q0 -27 -19 -86q-9 -25 -13 -40q-6 -19 -6 -38q0 -21 12 -45.5t31 -24.5q10 0 21 9q2 1 4 3q2 0 4 2q6 2 9 2q8 0 15.5 -6.5t7.5 -14.5
q0 -14 -20.5 -23.5t-37.5 -9.5q-40 0 -64.5 29t-24.5 70q0 32 18 88q10 28 13 42q6 21 6 45q0 31 -20 37h-2l-1 -1q-26 -24 -54 -24q-30 0 -30 20q0 17 24 31t45 17h2v1q33 41 64 107l52 115q18 40 32.5 64.5t42 48.5t62.5 30q26 0 26 -23z" />
    <glyph glyph-name="bar" unicode="|" horiz-adv-x="198" 
d="M217 667q0 -4 -1 -5q-87 -348 -124 -733q0 -4 -2 -34.5t-4 -43.5q-3 -21 -23 -21q-19 0 -19 20q0 1 2 26.5t2 26.5q30 358 114 718q0 1 6 26t7 26q5 16 19 16q9 0 16 -6.5t7 -15.5z" />
    <glyph glyph-name="braceright" unicode="}" horiz-adv-x="231" 
d="M112 230v-7l5 5q10 8 16 8q11 0 18.5 -9.5t7.5 -21.5q0 -13 -9.5 -24t-20.5 -11q-3 0 -5 1l-2 1l-2 -2q-17 -29 -21 -96q-6 -67 -22 -94q-13 -23 -36.5 -38.5t-49.5 -15.5q-45 0 -45 29q0 20 16 20q5 0 8 -1q2 -1 8 -3q15 -3 18 -3q40 0 55 66q1 2 14 96q7 40 23 64v3
q-18 35 -18 83q0 62 30 127q5 13 42 82q35 64 35 75q0 28 -27 28q-10 0 -35 -9l-15 -6q-8 -3 -11 -3q-9 0 -15.5 7t-6.5 16q0 16 34.5 24.5t57.5 8.5q63 0 63 -49q0 -30 -28 -86q-6 -12 -22.5 -41.5l-23.5 -42.5q-31 -69 -36 -125v-36v-20z" />
    <glyph glyph-name="exclamdown" unicode="&#xa1;" horiz-adv-x="239" 
d="M67 227q0 -1 -1 -3v-2q-10 -48 -10 -86q0 -20 -21 -20t-21 20q0 56 12 96q4 15 18 15q9 0 16 -6t7 -14zM227 780q0 -7 -2 -10q-7 -17 -25 -57.5l-27.5 -62.5l-23.5 -56t-24 -64t-19 -60q-15 -53 -24 -106q0 -3 -2 -20t-4 -25q-5 -22 -23 -22q-7 0 -12.5 5.5t-5.5 12.5v3
q16 158 108 371q38 86 47 102q5 12 15 12q9 0 15.5 -7t6.5 -16z" />
    <glyph glyph-name="cent" unicode="&#xa2;" horiz-adv-x="408" 
d="M223 76q0 -36 11 -65q2 -6 2 -9q0 -9 -7 -16t-16 -7q-17 0 -25 41t-8 70q0 11 2 35v3h-3q-129 0 -129 95q0 64 57 128.5t121 71.5h2l1 2q10 50 33.5 118.5t47.5 68.5q9 0 16 -6t7 -15q0 -3 -4 -11q-39 -72 -57 -155l-1 -3l3 -1q10 -3 13 -4q23 -5 23 -24q0 -8 -5 -14.5
t-12 -6.5q-2 0 -6.5 1.5t-6.5 1.5q-10 4 -14 5l-3 1l-1 -3q-25 -145 -31 -195l-1 -4l5 1q38 14 84 51q7 5 13 5q9 0 16 -6.5t7 -14.5q0 -7 -7 -14q-49 -49 -121 -66l-2 -1v-2q-4 -36 -4 -56zM217 378q-45 -12 -84.5 -59.5t-39.5 -93.5q0 -54 91 -54h3v3q3 21 10 58t9 51
q13 83 15 91l1 5z" />
    <glyph glyph-name="sterling" unicode="&#xa3;" horiz-adv-x="446" 
d="M395 140q0 -18 -27.5 -36.5t-49.5 -18.5q-25 0 -55 19q-19 11 -26 13q-17 7 -31 7q-23 0 -66 -18l-2 -2q-21 -45 -53 -45q-13 0 -24 10t-11 23q0 9 17 23q2 2 8 5l8 4q3 2 7 4l6 3l2 2l6.5 13t6.5 14q11 21 13 30q5 17 11.5 49t9.5 45l1 4h-4q-4 0 -10.5 -1t-11.5 -1.5
t-10 -0.5q-16 0 -16 19t20 24q11 4 38 4h2l1 2q13 55 33 101t61 84t92 38q26 0 26 -22q0 -20 -27 -20q-100 0 -141 -176l-1 -4h4q51 3 103 3q37 0 56 -1q20 -2 20 -22t-20 -20q-9 0 -28 0.5t-29 0.5q-62 0 -113 -4h-3v-2q-13 -68 -28 -128l-1 -5l5 1q29 9 57 9q29 0 57 -19
q7 -5 21 -13q12 -6 24 -6q16 0 29 17q3 3 4 5l5 5q4 4 11 4q9 0 16 -6t7 -14z" />
    <glyph glyph-name="yen" unicode="&#xa5;" horiz-adv-x="489" 
d="M317 227q19 0 43 -8q26 -10 26 -28q0 -9 -6.5 -16t-14.5 -7q-3 0 -8 3q-2 1 -8 5q-16 10 -38 10q-17 0 -46.5 -4.5t-43.5 -4.5h-2l-1 -2q-6 -24 -8 -37l-1 -4l4 1q20 2 31 2q55 0 68 -36q2 -6 2 -8q0 -7 -6.5 -12t-14.5 -5q-9 0 -15 6l-3 3q-8 12 -26 12q-15 0 -45 -4h-3
v-3q-13 -74 -13 -101q0 -31 15 -40q4 -2 5 -3q2 -1 4 -3q3 -6 3 -14t-5 -14.5t-12 -6.5q-3 0 -9 2q-39 15 -39 72q0 32 8 100l1 4l-5 -1q-1 0 -46 -12q-36 -9 -39 -9q-8 0 -13.5 6.5t-5.5 14.5q0 15 15 20q37 13 99 24h2v2q4 24 7 35l1 5l-5 -1l-16.5 -4t-18.5 -4
q-30 -6 -33 -6q-9 0 -15 7t-6 16q0 15 15 19q7 2 51 10l4 1l-2 3q-41 79 -41 297q0 15 1 22q5 24 23 24q19 0 19 -20q0 -9 -0.5 -28t-0.5 -29q0 -101 29 -219q1 -2 1.5 -5.5t0.5 -5.5q2 -8 6 -12l3 -3l2 4q5 8 16 8q5 0 7 -1h2l1 1q69 71 141 219q3 7 11 20.5t11 19.5
q14 28 17 43v2q-2 3 -2 10q0 9 7 14.5t16 5.5q21 0 21 -25q0 -17 -12 -43q-95 -205 -164 -283l-5 -6l7 1q5 0 23.5 2t28.5 2z" />
    <glyph glyph-name="dieresis" unicode="&#xa8;" horiz-adv-x="211" 
d="M50 405q12 50 29 50q9 0 14.5 -7.5t0.5 -16.5q-10 -16 -13 -34q-3 -12 -16 -12q-1 0 -2 0.5t-2 0.5q-13 3 -11 19zM118 401q4 50 26 50q9 0 14 -7t0 -16q-8 -12 -9 -27q0 -16 -15 -16q-6 0 -11.5 5t-4.5 11z" />
    <glyph glyph-name="acute" unicode="&#xb4;" horiz-adv-x="223" 
d="M145 500q4 4 11 4q10 0 15.5 -9t-3.5 -17q-46 -36 -91 -86q-5 -5 -10 -5q-9 0 -14.5 10t1.5 18q33 38 91 85z" />
    <glyph glyph-name="cedilla" unicode="&#xb8;" horiz-adv-x="239" 
d="M150 49q21 -16 16 -48q-6 -31 -38 -48.5t-69 -17.5q-11 0 -16 1q-9 1 -13 8.5t-1 15t11 7.5h3q2 0 6.5 -0.5t7.5 -0.5q65 0 75 35q7 24 -24 24q-6 0 -17.5 -1t-16.5 -1t-11 2q-14 7 -14 28q0 3 3.5 11t6.5 16l3 7q6 15 12 51q2 12 13 12q7 0 13 -6t5 -14q-7 -37 -10 -46
l-12 -30h3q6 0 19 1.5t19 1.5q16 0 26 -8z" />
    <glyph glyph-name="questiondown" unicode="&#xbf;" horiz-adv-x="328" 
d="M18 176l-5 -10q-8 -16 -8 -27q-2 -21 -20 -21q-8 0 -15 6t-7 13q0 21 10.5 44.5t26.5 23.5q8 0 14 -6t6 -15q0 -5 -2 -8zM310 636q0 -53 -53 -97q-7 -6 -39 -31l-40 -25l-87 -59q-45 -31 -55 -39q-2 -1 -6 -5q-3 -2 -5 -4q-6 -8 -14 -14q-10 -10 -14 -13l-5 -5l-3 -1
l-18 -2l18 -4q15 -3 15 -19q0 -9 -6 -16t-15 -7q-14 0 -27 9.5t-13 22.5q0 45 134 139q1 1 44 26t66 42q70 50 70 99q0 46 -87 46q-47 0 -103 -23q-6 -2 -9 -2q-9 0 -16.5 7t-7.5 16q0 22 54.5 31.5t93.5 9.5q128 0 128 -82z" />
    <glyph glyph-name="Agrave" unicode="&#xc0;" 
d="M642 341q12 0 17 -9.5t0 -20t-17 -10.5q-75 -2 -148 -9q-17 -119 -25 -248q0 -19 -21 -19q-19 0 -18 19q6 122 24 243q-100 -13 -205 -41q-2 -3 -5.5 -9.5t-4.5 -9.5q-3 -7 -13 -28.5l-14.5 -31.5t-12 -29t-11.5 -31.5t-7.5 -29.5t-4.5 -33q0 -19 -21 -19q-19 0 -19 19
q2 31 13 67.5t19 55.5t29 63q1 1 1 2q-90 -27 -167 -61q-6 -2 -9 -2q-15 0 -20.5 15t8.5 22q100 42 210 73q96 194 176 294q23 29 36.5 44t38 32t50.5 22q23 0 25 -19q5 -43 -0.5 -89t-20.5 -109t-19 -88l-6 -34q70 7 142 9zM271 292q97 23 188 35q2 8 2 10q5 31 19 89.5
t22 107.5t6 91q-89 -41 -237 -333zM564 729q12 -6 7.5 -17.5t-16.5 -11.5q-35 0 -80 87q-4 9 1.5 16.5t13.5 7.5t12 -8q31 -60 62 -74z" />
    <glyph glyph-name="Aacute" unicode="&#xc1;" 
d="M642 341q12 0 17 -9.5t0 -20t-17 -10.5q-75 -2 -148 -9q-17 -119 -25 -248q0 -19 -21 -19q-19 0 -18 19q6 122 24 243q-100 -13 -205 -41q-2 -3 -5.5 -9.5t-4.5 -9.5q-3 -7 -13 -28.5l-14.5 -31.5t-12 -29t-11.5 -31.5t-7.5 -29.5t-4.5 -33q0 -19 -21 -19q-19 0 -19 19
q2 31 13 67.5t19 55.5t29 63q1 1 1 2q-90 -27 -167 -61q-6 -2 -9 -2q-15 0 -20.5 15t8.5 22q100 42 210 73q96 194 176 294q23 29 36.5 44t38 32t50.5 22q23 0 25 -19q5 -43 -0.5 -89t-20.5 -109t-19 -88l-6 -34q70 7 142 9zM271 292q97 23 188 35q2 8 2 10q5 31 19 89.5
t22 107.5t6 91q-89 -41 -237 -333zM556 796q4 4 11 4q10 0 15.5 -9t-3.5 -17q-46 -36 -91 -86q-5 -5 -10 -5q-9 0 -14.5 10t1.5 18q33 38 91 85z" />
    <glyph glyph-name="Acircumflex" unicode="&#xc2;" 
d="M642 341q12 0 17 -9.5t0 -20t-17 -10.5q-75 -2 -148 -9q-17 -119 -25 -248q0 -19 -21 -19q-19 0 -18 19q6 122 24 243q-100 -13 -205 -41q-2 -3 -5.5 -9.5t-4.5 -9.5q-3 -7 -13 -28.5l-14.5 -31.5t-12 -29t-11.5 -31.5t-7.5 -29.5t-4.5 -33q0 -19 -21 -19q-19 0 -19 19
q2 31 13 67.5t19 55.5t29 63q1 1 1 2q-90 -27 -167 -61q-6 -2 -9 -2q-15 0 -20.5 15t8.5 22q100 42 210 73q96 194 176 294q23 29 36.5 44t38 32t50.5 22q23 0 25 -19q5 -43 -0.5 -89t-20.5 -109t-19 -88l-6 -34q70 7 142 9zM271 292q97 23 188 35q2 8 2 10q5 31 19 89.5
t22 107.5t6 91q-89 -41 -237 -333zM604 707q5 -8 -0.5 -16t-13.5 -8q-12 0 -25 30t-19 53q-34 -33 -72 -63q-4 -4 -11 -4q-10 0 -15.5 9.5t3.5 16.5q45 36 92 84q4 4 11 4q14 0 16 -11q13 -56 34 -95z" />
    <glyph glyph-name="Atilde" unicode="&#xc3;" 
d="M642 341q12 0 17 -9.5t0 -20t-17 -10.5q-75 -2 -148 -9q-17 -119 -25 -248q0 -19 -21 -19q-19 0 -18 19q6 122 24 243q-100 -13 -205 -41q-2 -3 -5.5 -9.5t-4.5 -9.5q-3 -7 -13 -28.5l-14.5 -31.5t-12 -29t-11.5 -31.5t-7.5 -29.5t-4.5 -33q0 -19 -21 -19q-19 0 -19 19
q2 31 13 67.5t19 55.5t29 63q1 1 1 2q-90 -27 -167 -61q-6 -2 -9 -2q-15 0 -20.5 15t8.5 22q100 42 210 73q96 194 176 294q23 29 36.5 44t38 32t50.5 22q23 0 25 -19q5 -43 -0.5 -89t-20.5 -109t-19 -88l-6 -34q70 7 142 9zM271 292q97 23 188 35q2 8 2 10q5 31 19 89.5
t22 107.5t6 91q-89 -41 -237 -333zM603 755q0 -19 -14.5 -32t-34.5 -13q-17 0 -39 11q-4 1 -10.5 3.5t-9.5 3.5q-9 3 -19 3q-14 0 -21 -9q-1 0 -1 -1l-2 -1q0 -1 -2 -3q-2 -1 -7 -1q-14 0 -14 11q0 2 2 6q16 23 45 23q10 0 19 -3q2 0 19 -6q26 -10 42 -10q19 0 21 18
q0 1 0.5 2.5t1.5 2.5q0 2 2 4q2 4 9 4q13 0 13 -13z" />
    <glyph glyph-name="Adieresis" unicode="&#xc4;" 
d="M642 341q12 0 17 -9.5t0 -20t-17 -10.5q-75 -2 -148 -9q-17 -119 -25 -248q0 -19 -21 -19q-19 0 -18 19q6 122 24 243q-100 -13 -205 -41q-2 -3 -5.5 -9.5t-4.5 -9.5q-3 -7 -13 -28.5l-14.5 -31.5t-12 -29t-11.5 -31.5t-7.5 -29.5t-4.5 -33q0 -19 -21 -19q-19 0 -19 19
q2 31 13 67.5t19 55.5t29 63q1 1 1 2q-90 -27 -167 -61q-6 -2 -9 -2q-15 0 -20.5 15t8.5 22q100 42 210 73q96 194 176 294q23 29 36.5 44t38 32t50.5 22q23 0 25 -19q5 -43 -0.5 -89t-20.5 -109t-19 -88l-6 -34q70 7 142 9zM271 292q97 23 188 35q2 8 2 10q5 31 19 89.5
t22 107.5t6 91q-89 -41 -237 -333zM468 721q12 50 29 50q9 0 14.5 -7.5t0.5 -16.5q-10 -16 -13 -34q-3 -12 -16 -12q-1 0 -4 1q-13 3 -11 19zM536 717q4 50 26 50q9 0 14 -7t0 -16q-8 -12 -9 -27q0 -16 -15 -16q-6 0 -11.5 5t-4.5 11z" />
    <glyph glyph-name="Aring" unicode="&#xc5;" 
d="M31 171q-6 -2 -9 -2q-15 0 -20.5 15t8.5 22q100 42 210 73q163 323 262 378q-8 7 -15 22q-16 39 27 97q4 6 11 6t12 -8q2 9 11 12q8 3 16 3q19 0 33.5 -13t18.5 -32q5 -26 -10.5 -52.5t-39.5 -39.5q5 -43 -0.5 -89t-20.5 -109t-19 -88l-6 -34q70 7 142 9q12 0 17 -9.5
t0 -20t-17 -10.5q-75 -2 -148 -9q-17 -119 -25 -248q0 -19 -21 -19q-19 0 -18 19q6 122 24 243q-100 -13 -205 -41q-2 -3 -5.5 -9.5t-4.5 -9.5q-3 -7 -13 -28.5l-14.5 -31.5t-12 -29t-11.5 -31.5t-7.5 -29.5t-4.5 -33q0 -19 -21 -19q-19 0 -19 19q2 31 13 67.5t19 55.5
t29 63q1 1 1 2q-90 -27 -167 -61zM271 292q97 23 188 35q2 8 2 10q5 31 19 89.5t22 107.5t6 91q-89 -41 -237 -333zM494 705q-1 -12 6 -20.5t17 -8.5q15 0 30 16.5t18 32.5q2 11 -4 21.5t-17 10.5q-2 0 -8 -2q-2 -1 -6 -1q-7 0 -10 6l-3 -6q-23 -31 -23 -49z" />
    <glyph glyph-name="AE" unicode="&#xc6;" horiz-adv-x="801" 
d="M30 171q-6 -2 -9 -2q-15 0 -21 15t9 22q96 41 210 73l64.5 125.5t68.5 112t87 108.5q-2 -1 -6 -1h-3q-10 0 -14 9t1 19t16 11q55 8 109 12q3 12 11 34q4 14 19 14q10 0 16.5 -7t2.5 -18l-6 -18q158 15 319 21q12 0 17 -9.5t0 -20t-17 -10.5q-148 -5 -333 -22
q-46 -131 -71 -226q144 25 254 49h4q17 0 20.5 -17t-13.5 -22q-123 -25 -276 -52q-16 -62 -27 -128q-15 -91 34 -119q21 -11 48 -11q62 0 133.5 37t124.5 86q5 5 13 5q13 0 19 -11.5t-4 -21.5q-52 -48 -135 -93t-152 -45q-79 0 -112 68q-26 53 -4 145q-93 -14 -179 -37
q-2 -3 -5.5 -9.5t-4.5 -9.5q-3 -7 -13 -28.5l-14.5 -31.5t-12 -29t-11.5 -31.5t-7.5 -29.5t-4.5 -33q0 -19 -21 -19q-19 0 -19 19q2 31 13 67.5t19 55.5t29 63q1 1 1 2q-90 -27 -167 -61zM270 292q88 21 168 32q2 6 5.5 20t5.5 21q-11 -2 -33 -5.5t-33 -5.5h-3
q-11 0 -17.5 9t-4 18.5t13.5 11.5q25 3 89 14q32 123 67 227h-4l-4 -4q-96 -31 -250 -338z" />
    <glyph glyph-name="Ccedilla" unicode="&#xc7;" horiz-adv-x="457" 
d="M1 167q-7 81 35 170.5t107 169.5q114 145 194 145q36 0 63 -26q10 -10 3.5 -21.5t-18.5 -11.5q-8 0 -13 5q-16 15 -36 15q-34 0 -80.5 -40.5t-73.5 -76t-49 -69.5q-106 -163 -91 -265q14 -100 113 -100q62 0 132 36q58 30 93 58t78 79q6 7 14 7q11 0 17 -12t-3 -23
q-62 -74 -125.5 -117.5t-149.5 -62.5q-8 -2 -12 -2q-4 -28 -9 -43l-12 -30h3q7 0 19 1.5t19 1.5q16 0 26 -8q21 -16 16 -48q-6 -31 -38 -48.5t-69 -17.5q-11 0 -16 1q-9 1 -13 8.5t-1 15t11 7.5h3q2 0 6.5 -0.5t7.5 -0.5q65 0 75 35q7 24 -24 24q-6 0 -17.5 -1t-16.5 -1
t-11 2q-14 7 -14 28q0 3 3.5 11t6.5 16l3 7q6 15 9 36q-70 0 -114 38.5t-51 107.5z" />
    <glyph glyph-name="Egrave" unicode="&#xc8;" horiz-adv-x="443" 
d="M546 701q12 0 17 -9.5t0 -20t-17 -10.5q-148 -5 -333 -22q-46 -131 -71 -226q144 25 254 49h4q17 0 20.5 -17t-13.5 -22q-123 -25 -276 -52q-16 -62 -27 -128q-15 -91 34 -119q21 -11 48 -11q62 0 133.5 37t124.5 86q5 5 13 5q13 0 19 -11.5t-4 -21.5q-52 -48 -135 -93
t-152 -45q-79 0 -112 68q-7 14 -10.5 29.5t-3.5 33.5t1 31.5t6 35.5t7.5 32l9 34.5t8.5 30.5q-11 -2 -33 -5.5t-33 -5.5h-3q-11 0 -17.5 9t-4 18.5t13.5 11.5q25 3 89 14q33 124 67 227q-16 -1 -47.5 -5t-47.5 -5h-3q-10 0 -14 9t1 19t16 11q55 8 109 12q3 12 11 34
q4 14 19 14q10 0 16.5 -7t2.5 -18l-6 -18q158 15 319 21zM345 790q12 -6 7.5 -17.5t-16.5 -11.5q-35 0 -80 87q-4 9 1.5 16.5t13.5 7.5t12 -8q31 -60 62 -74z" />
    <glyph glyph-name="Eacute" unicode="&#xc9;" horiz-adv-x="443" 
d="M546 701q12 0 17 -9.5t0 -20t-17 -10.5q-148 -5 -333 -22q-46 -131 -71 -226q144 25 254 49h4q17 0 20.5 -17t-13.5 -22q-123 -25 -276 -52q-16 -62 -27 -128q-15 -91 34 -119q21 -11 48 -11q62 0 133.5 37t124.5 86q5 5 13 5q13 0 19 -11.5t-4 -21.5q-52 -48 -135 -93
t-152 -45q-79 0 -112 68q-7 14 -10.5 29.5t-3.5 33.5t1 31.5t6 35.5t7.5 32l9 34.5t8.5 30.5q-11 -2 -33 -5.5t-33 -5.5h-3q-11 0 -17.5 9t-4 18.5t13.5 11.5q25 3 89 14q33 124 67 227q-16 -1 -47.5 -5t-47.5 -5h-3q-10 0 -14 9t1 19t16 11q55 8 109 12q3 12 11 34
q4 14 19 14q10 0 16.5 -7t2.5 -18l-6 -18q158 15 319 21zM383 835q4 4 11 4q10 0 15.5 -9.5t-3.5 -16.5q-46 -36 -91 -86q-5 -5 -10 -5q-9 0 -14.5 10t1.5 18q33 38 91 85z" />
    <glyph glyph-name="Ecircumflex" unicode="&#xca;" horiz-adv-x="443" 
d="M546 701q12 0 17 -9.5t0 -20t-17 -10.5q-148 -5 -333 -22q-46 -131 -71 -226q144 25 254 49h4q17 0 20.5 -17t-13.5 -22q-123 -25 -276 -52q-16 -62 -27 -128q-15 -91 34 -119q21 -11 48 -11q62 0 133.5 37t124.5 86q5 5 13 5q13 0 19 -11.5t-4 -21.5q-52 -48 -135 -93
t-152 -45q-79 0 -112 68q-7 14 -10.5 29.5t-3.5 33.5t1 31.5t6 35.5t7.5 32l9 34.5t8.5 30.5q-11 -2 -33 -5.5t-33 -5.5h-3q-11 0 -17.5 9t-4 18.5t13.5 11.5q25 3 89 14q33 124 67 227q-16 -1 -47.5 -5t-47.5 -5h-3q-10 0 -14 9t1 19t16 11q55 8 109 12q3 12 11 34
q4 14 19 14q10 0 16.5 -7t2.5 -18l-6 -18q158 15 319 21zM384 747q5 -8 -0.5 -16t-13.5 -8q-12 0 -25 30t-19 53q-34 -33 -72 -63q-4 -4 -11 -4q-10 0 -15.5 9.5t3.5 16.5q45 36 92 84q4 4 11 4q14 0 16 -11q13 -56 34 -95z" />
    <glyph glyph-name="Edieresis" unicode="&#xcb;" horiz-adv-x="443" 
d="M546 701q12 0 17 -9.5t0 -20t-17 -10.5q-148 -5 -333 -22q-46 -131 -71 -226q144 25 254 49h4q17 0 20.5 -17t-13.5 -22q-123 -25 -276 -52q-16 -62 -27 -128q-15 -91 34 -119q21 -11 48 -11q62 0 133.5 37t124.5 86q5 5 13 5q13 0 19 -11.5t-4 -21.5q-52 -48 -135 -93
t-152 -45q-79 0 -112 68q-7 14 -10.5 29.5t-3.5 33.5t1 31.5t6 35.5t7.5 32l9 34.5t8.5 30.5q-11 -2 -33 -5.5t-33 -5.5h-3q-11 0 -17.5 9t-4 18.5t13.5 11.5q25 3 89 14q33 124 67 227q-16 -1 -47.5 -5t-47.5 -5h-3q-10 0 -14 9t1 19t16 11q55 8 109 12q3 12 11 34
q4 14 19 14q10 0 16.5 -7t2.5 -18l-6 -18q158 15 319 21zM253 745q12 50 29 50q9 0 14.5 -7.5t0.5 -16.5q-10 -16 -13 -34q-3 -12 -16 -12l-2 1h-2q-13 3 -11 19zM321 741q4 50 26 50q9 0 14 -7t0 -16q-7 -12 -9 -27q0 -16 -15 -16q-6 0 -11.5 5t-4.5 11z" />
    <glyph glyph-name="Igrave" unicode="&#xcc;" horiz-adv-x="264" 
d="M389 645q-16 38 -65 38q-22 0 -46 -6q7 -10 3 -21q-88 -199 -149 -418q-2 -6 -8 -26.5t-8.5 -32t-4.5 -28.5t2 -30.5t14 -23.5q9 -9 5 -19l63 21q2 1 6 1q10 0 15 -8t2.5 -18t-12.5 -13q-36 -11 -103 -33.5l-79 -26.5q-2 -1 -6 -1q-10 0 -15 8t-2 18t13 13q71 24 85 30
q-18 18 -25.5 43.5t-2 58t11.5 55.5t19 60t16 47q50 161 124 333q-58 -22 -122 -62q-4 -3 -10 -3q-13 0 -18.5 15t8.5 23q138 86 228 86q70 0 95 -59q5 -12 -2.5 -21.5t-17.5 -9.5t-14 10zM326 778q12 -6 7.5 -17.5t-16.5 -11.5q-35 0 -80 87q-4 9 1.5 16.5t13.5 7.5t12 -8
q31 -60 62 -74z" />
    <glyph glyph-name="Iacute" unicode="&#xcd;" horiz-adv-x="264" 
d="M389 645q-16 38 -65 38q-22 0 -46 -6q7 -10 3 -21q-88 -199 -149 -418q-2 -6 -8 -26.5t-8.5 -32t-4.5 -28.5t2 -30.5t14 -23.5q9 -9 5 -19l63 21q2 1 6 1q10 0 15 -8t2.5 -18t-12.5 -13q-36 -11 -103 -33.5l-79 -26.5q-2 -1 -6 -1q-10 0 -15 8t-2 18t13 13q71 24 85 30
q-18 18 -25.5 43.5t-2 58t11.5 55.5t19 60t16 47q50 161 124 333q-58 -22 -122 -62q-4 -3 -10 -3q-13 0 -18.5 15t8.5 23q138 86 228 86q70 0 95 -59q5 -12 -2.5 -21.5t-17.5 -9.5t-14 10zM310 868q4 4 11 4q10 0 15.5 -9t-3.5 -17q-46 -36 -91 -86q-5 -5 -10 -5
q-9 0 -14.5 10t1.5 18q33 38 91 85z" />
    <glyph glyph-name="Icircumflex" unicode="&#xce;" horiz-adv-x="264" 
d="M389 645q-16 38 -65 38q-22 0 -46 -6q7 -10 3 -21q-88 -199 -149 -418q-2 -6 -8 -26.5t-8.5 -32t-4.5 -28.5t2 -30.5t14 -23.5q9 -9 5 -19l63 21q2 1 6 1q10 0 15 -8t2.5 -18t-12.5 -13q-36 -11 -103 -33.5l-79 -26.5q-2 -1 -6 -1q-10 0 -15 8t-2 18t13 13q71 24 85 30
q-18 18 -25.5 43.5t-2 58t11.5 55.5t19 60t16 47q50 161 124 333q-58 -22 -122 -62q-4 -3 -10 -3q-13 0 -18.5 15t8.5 23q138 86 228 86q70 0 95 -59q5 -12 -2.5 -21.5t-17.5 -9.5t-14 10zM379 766q5 -8 -0.5 -16t-13.5 -8q-12 0 -25 30t-19 53q-35 -33 -72 -63
q-4 -4 -11 -4q-10 0 -15.5 9.5t3.5 16.5q45 36 92 84q4 4 11 4q14 0 16 -11q13 -56 34 -95z" />
    <glyph glyph-name="Idieresis" unicode="&#xcf;" horiz-adv-x="264" 
d="M389 645q-16 38 -65 38q-22 0 -46 -6q7 -10 3 -21q-88 -199 -149 -418q-2 -6 -8 -26.5t-8.5 -32t-4.5 -28.5t2 -30.5t14 -23.5q9 -9 5 -19l63 21q2 1 6 1q10 0 15 -8t2.5 -18t-12.5 -13q-36 -11 -103 -33.5l-79 -26.5q-2 -1 -6 -1q-10 0 -15 8t-2 18t13 13q71 24 85 30
q-18 18 -25.5 43.5t-2 58t11.5 55.5t19 60t16 47q50 161 124 333q-58 -22 -122 -62q-4 -3 -10 -3q-13 0 -18.5 15t8.5 23q138 86 228 86q70 0 95 -59q5 -12 -2.5 -21.5t-17.5 -9.5t-14 10zM235 782q12 50 29 50q9 0 14.5 -7.5t0.5 -16.5q-10 -16 -13 -34q-3 -12 -16 -12h-2
q-1 1 -2 1q-13 3 -11 19zM303 778q4 50 26 50q9 0 14 -7t0 -16q-7 -12 -9 -27q0 -16 -15 -16q-6 0 -11.5 5t-4.5 11z" />
    <glyph glyph-name="Ntilde" unicode="&#xd1;" horiz-adv-x="617" 
d="M574 93q7 10 18 10t17 -9.5t0 -20.5q-20 -33 -57 -33q-42 0 -61.5 34t-20.5 80q-1 61 10.5 130t30.5 150t26 128q14 75 1 85q-5 4 -13 4q-13 0 -44 -21q-96 -72 -222 -251q-32 -45 -100 -162.5t-114 -174.5q-5 -6 -12 -6q-8 0 -16 6q-5 4 -8.5 9.5t-5.5 10t-2.5 12
t-0.5 11t1.5 12.5t2 11.5t3.5 13t3 11.5l42 180l88 369q3 14 18 14q10 0 16.5 -6.5t3.5 -17.5l-71 -300l-33 -139l-10 -31t-16 -55.5t-8 -46.5q37 51 100.5 161.5t100.5 161.5q2 3 28 38.5t33.5 45l31 40t37.5 43.5l36 34.5t42.5 35.5t42.5 24q25 11 39 11q73 0 36 -192
q-41 -196 -42 -202q-11 -64 -14 -121q-2 -26 8 -66t29 -40q11 0 26 19zM480 773q0 -19 -14.5 -32t-34.5 -13q-17 0 -39 11q-3 1 -9.5 3.5t-10.5 3.5q-9 3 -19 3q-14 0 -21 -9l-1 -1q-1 -1 -2 -1q0 -1 -2 -3q-2 -1 -7 -1q-14 0 -14 11q0 2 2 6q16 23 45 23q10 0 19 -3
q2 0 19 -6q26 -10 42 -10q19 0 21 18q0 1 0.5 2.5t1.5 2.5q0 2 2 4q2 4 9 4q13 0 13 -13z" />
    <glyph glyph-name="Ograve" unicode="&#xd2;" horiz-adv-x="554" 
d="M451 662q63 -44 83.5 -125t6 -159.5t-49.5 -145.5q-49 -93 -141 -172.5t-186 -79.5q-28 0 -56 9q-33 10 -51 33t-19.5 54t5.5 64t23 70q-41 33 -56 78q-38 113 64 254q49 67 119.5 112t142.5 45q62 0 115 -37zM295 72q100 66 159.5 176t50.5 225q-7 80 -52 132.5
t-121 52.5q-97 0 -185 -90q-112 -116 -107 -224q3 -56 44 -96q36 67 73 112q6 6 13 6q12 0 18 -11.5t-3 -22.5q-42 -50 -69 -108q33 -20 99 -43q10 -3 13 -13t-2 -18t-15 -8q-4 0 -6 1q-71 24 -104 43q-12 -33 -18 -67q-15 -95 69 -95q70 0 143 48zM373 755q12 -6 7.5 -17.5
t-16.5 -11.5q-35 0 -80 87q-4 9 1.5 16.5t13.5 7.5t12 -8q31 -60 62 -74z" />
    <glyph glyph-name="Oacute" unicode="&#xd3;" horiz-adv-x="554" 
d="M451 662q63 -44 83.5 -125t6 -159.5t-49.5 -145.5q-49 -93 -141 -172.5t-186 -79.5q-28 0 -56 9q-33 10 -51 33t-19.5 54t5.5 64t23 70q-41 33 -56 78q-38 113 64 254q49 67 119.5 112t142.5 45q62 0 115 -37zM295 72q100 66 159.5 176t50.5 225q-7 80 -52 132.5
t-121 52.5q-97 0 -185 -90q-112 -116 -107 -224q3 -56 44 -96q36 67 73 112q6 6 13 6q12 0 18 -11.5t-3 -22.5q-42 -50 -69 -108q33 -20 99 -43q10 -3 13 -13t-2 -18t-15 -8q-4 0 -6 1q-71 24 -104 43q-12 -33 -18 -67q-15 -95 69 -95q70 0 143 48zM350 836q4 4 11 4
q10 0 15.5 -9t-3.5 -17q-46 -36 -91 -86q-5 -5 -10 -5q-9 0 -14.5 10t1.5 18q33 38 91 85z" />
    <glyph glyph-name="Ocircumflex" unicode="&#xd4;" horiz-adv-x="554" 
d="M451 662q63 -44 83.5 -125t6 -159.5t-49.5 -145.5q-49 -93 -141 -172.5t-186 -79.5q-28 0 -56 9q-33 10 -51 33t-19.5 54t5.5 64t23 70q-41 33 -56 78q-38 113 64 254q49 67 119.5 112t142.5 45q62 0 115 -37zM295 72q100 66 159.5 176t50.5 225q-7 80 -52 132.5
t-121 52.5q-97 0 -185 -90q-112 -116 -107 -224q3 -56 44 -96q36 67 73 112q6 6 13 6q12 0 18 -11.5t-3 -22.5q-42 -50 -69 -108q33 -20 99 -43q10 -3 13 -13t-2 -18t-15 -8q-4 0 -6 1q-71 24 -104 43q-12 -33 -18 -67q-15 -95 69 -95q70 0 143 48zM419 740q5 -8 -0.5 -16
t-13.5 -8q-12 0 -25 30t-19 53q-35 -33 -72 -63q-4 -4 -11 -4q-10 0 -15.5 9.5t3.5 16.5q45 36 92 84q4 4 11 4q14 0 16 -11q13 -56 34 -95z" />
    <glyph glyph-name="Otilde" unicode="&#xd5;" horiz-adv-x="554" 
d="M451 662q63 -44 83.5 -125t6 -159.5t-49.5 -145.5q-49 -93 -141 -172.5t-186 -79.5q-28 0 -56 9q-33 10 -51 33t-19.5 54t5.5 64t23 70q-41 33 -56 78q-38 113 64 254q49 67 119.5 112t142.5 45q62 0 115 -37zM295 72q100 66 159.5 176t50.5 225q-7 80 -52 132.5
t-121 52.5q-97 0 -185 -90q-112 -116 -107 -224q3 -56 44 -96q36 67 73 112q6 6 13 6q12 0 18 -11.5t-3 -22.5q-42 -50 -69 -108q33 -20 99 -43q10 -3 13 -13t-2 -18t-15 -8q-4 0 -6 1q-71 24 -104 43q-12 -33 -18 -67q-15 -95 69 -95q70 0 143 48zM425 778q0 -19 -14.5 -32
t-34.5 -13q-17 0 -39 11q-3 1 -9.5 3.5t-10.5 3.5q-9 3 -19 3q-14 0 -21 -9l-1 -1q-2 0 -2 -1t-2 -3q-2 -1 -7 -1q-14 0 -14 11q0 2 2 6q16 23 45 23q10 0 19 -3q2 0 19 -6q26 -10 42 -10q19 0 21 18q0 1 0.5 2.5t1.5 2.5q0 2 2 4q2 4 9 4q13 0 13 -13z" />
    <glyph glyph-name="Odieresis" unicode="&#xd6;" horiz-adv-x="554" 
d="M451 662q63 -44 83.5 -125t6 -159.5t-49.5 -145.5q-49 -93 -141 -172.5t-186 -79.5q-28 0 -56 9q-33 10 -51 33t-19.5 54t5.5 64t23 70q-41 33 -56 78q-38 113 64 254q49 67 119.5 112t142.5 45q62 0 115 -37zM295 72q100 66 159.5 176t50.5 225q-7 80 -52 132.5
t-121 52.5q-97 0 -185 -90q-112 -116 -107 -224q3 -56 44 -96q36 67 73 112q6 6 13 6q12 0 18 -11.5t-3 -22.5q-42 -50 -69 -108q33 -20 99 -43q10 -3 13 -13t-2 -18t-15 -8q-4 0 -6 1q-71 24 -104 43q-12 -33 -18 -67q-15 -95 69 -95q70 0 143 48zM281 750q12 50 29 50
q9 0 14.5 -7.5t0.5 -16.5q-10 -16 -13 -34q-3 -12 -16 -12h-2l-2 1q-13 3 -11 19zM349 746q4 50 26 50q9 0 14 -7t0 -16q-7 -12 -9 -27q0 -16 -15 -16q-6 0 -11.5 5t-4.5 11z" />
    <glyph glyph-name="Oslash" unicode="&#xd8;" horiz-adv-x="554" 
d="M10 288q-38 113 64 254q49 67 119.5 112t142.5 45q51 0 97 -25.5t73 -68.5q11 -6 11 -19q26 -50 28.5 -116.5t-12.5 -126.5t-42 -111q-49 -93 -141 -172.5t-186 -79.5q-49 0 -84.5 22t-41.5 68q-14 7 -14 21q0 11 15 26q6 42 27 93q-41 33 -56 78zM128 160l-47 -58
q-5 -78 71 -78q70 0 143 48q100 66 159.5 176t50.5 225q-3 40 -18 76q-7 -8 -30.5 -31.5l-36.5 -37.5q-97 -98 -257 -279q14 -7 52 -20q10 -3 13 -13t-2 -18t-15 -8q-4 0 -6 1q-50 17 -69 26q-1 -1 -3.5 -4t-4.5 -5zM124 219l133 148q122 137 210 221q-47 70 -135 70
q-97 0 -185 -90q-112 -116 -107 -224q3 -56 44 -96q36 67 73 112q6 6 13 6q12 0 18 -11.5t-3 -22.5q-42 -50 -69 -108q2 -1 4.5 -2.5t3.5 -2.5z" />
    <glyph glyph-name="Ugrave" unicode="&#xd9;" horiz-adv-x="467" 
d="M471 629q4 11 14 11t17.5 -10t2.5 -21q-80 -172 -112 -288q-9 -31 -13.5 -50.5t-11 -54t-5.5 -59.5t6 -53t20.5 -49t40.5 -35q14 -8 9 -22.5t-19 -14.5q-4 0 -10 3q-113 63 -72 272q8 44 25 101q-6 -7 -16 -21.5t-16 -21.5q-168 -217 -261 -217q-36 0 -55 31t-14 76
q13 115 79 351q4 14 18 14q10 0 16.5 -7t3.5 -17q-37 -131 -63 -266q0 -1 -4 -15.5t-6 -24t-4.5 -26.5t-1.5 -28t4 -23t12 -18t22 -6h7q11 1 23.5 7t27.5 18t22.5 18.5t24.5 22.5l16 17q162 160 273 406zM295 617q12 -6 7.5 -17.5t-16.5 -11.5q-35 0 -80 87q-4 9 1.5 16.5
t13.5 7.5t12 -8q31 -60 62 -74z" />
    <glyph glyph-name="Uacute" unicode="&#xda;" horiz-adv-x="467" 
d="M471 629q4 11 14 11t17.5 -10t2.5 -21q-80 -172 -112 -288q-9 -31 -13.5 -50.5t-11 -54t-5.5 -59.5t6 -53t20.5 -49t40.5 -35q14 -8 9 -22.5t-19 -14.5q-4 0 -10 3q-113 63 -72 272q8 44 25 101q-6 -7 -16 -21.5t-16 -21.5q-168 -217 -261 -217q-36 0 -55 31t-14 76
q13 115 79 351q4 14 18 14q10 0 16.5 -7t3.5 -17q-37 -131 -63 -266q0 -1 -4 -15.5t-6 -24t-4.5 -26.5t-1.5 -28t4 -23t12 -18t22 -6h7q11 1 23.5 7t27.5 18t22.5 18.5t24.5 22.5l16 17q162 160 273 406zM309 695q4 4 11 4q10 0 15.5 -9.5t-3.5 -16.5q-46 -36 -91 -86
q-5 -5 -10 -5q-9 0 -14.5 10t1.5 18q33 38 91 85z" />
    <glyph glyph-name="Ucircumflex" unicode="&#xdb;" horiz-adv-x="467" 
d="M471 629q4 11 14 11t17.5 -10t2.5 -21q-80 -172 -112 -288q-9 -31 -13.5 -50.5t-11 -54t-5.5 -59.5t6 -53t20.5 -49t40.5 -35q14 -8 9 -22.5t-19 -14.5q-4 0 -10 3q-113 63 -72 272q8 44 25 101q-6 -7 -16 -21.5t-16 -21.5q-168 -217 -261 -217q-36 0 -55 31t-14 76
q13 115 79 351q4 14 18 14q10 0 16.5 -7t3.5 -17q-37 -131 -63 -266q0 -1 -4 -15.5t-6 -24t-4.5 -26.5t-1.5 -28t4 -23t12 -18t22 -6h7q11 1 23.5 7t27.5 18t22.5 18.5t24.5 22.5l16 17q162 160 273 406zM377 631q5 -8 -0.5 -16t-13.5 -8q-12 0 -25 30t-19 53
q-35 -33 -72 -63q-4 -4 -11 -4q-10 0 -15.5 9.5t3.5 16.5q45 36 92 84q4 4 11 4q14 0 16 -11q13 -56 34 -95z" />
    <glyph glyph-name="Udieresis" unicode="&#xdc;" horiz-adv-x="467" 
d="M471 629q4 11 14 11t17.5 -10t2.5 -21q-80 -172 -112 -288q-9 -31 -13.5 -50.5t-11 -54t-5.5 -59.5t6 -53t20.5 -49t40.5 -35q14 -8 9 -22.5t-19 -14.5q-4 0 -10 3q-113 63 -72 272q8 44 25 101q-6 -7 -16 -21.5t-16 -21.5q-168 -217 -261 -217q-36 0 -55 31t-14 76
q13 115 79 351q4 14 18 14q10 0 16.5 -7t3.5 -17q-37 -131 -63 -266q0 -1 -4 -15.5t-6 -24t-4.5 -26.5t-1.5 -28t4 -23t12 -18t22 -6h7q11 1 23.5 7t27.5 18t22.5 18.5t24.5 22.5l16 17q162 160 273 406zM232 627q12 50 29 50q9 0 14.5 -7.5t0.5 -16.5q-10 -16 -13 -34
q-3 -12 -16 -12q-1 0 -4 1q-13 3 -11 19zM300 623q4 50 26 50q9 0 14 -7t0 -16q-8 -12 -9 -27q0 -16 -15 -16q-6 0 -11.5 5t-4.5 11z" />
    <glyph glyph-name="Yacute" unicode="&#xdd;" horiz-adv-x="469" 
d="M521 715q2 1 6 1q11 0 17.5 -9t2.5 -19q-128 -293 -168 -420q-36 -111 -55 -215q-1 -4 -6.5 -31.5t-8 -44t-6.5 -46t-2.5 -49t5 -41.5t14.5 -35t28 -18q16 -5 14.5 -23t-16.5 -18q-4 0 -6 1q-83 25 -75 155q9 169 62.5 335.5t145.5 380.5q-11 -16 -28.5 -45t-22.5 -36
l-92 -132q-24 -32 -52 -66t-69.5 -78.5t-82.5 -72.5t-71 -28t-45.5 23.5t-8.5 66.5q27 151 118 328q5 11 17 11q11 0 17.5 -8.5t0.5 -19.5q-72 -140 -108 -290q0 -2 -3 -11.5t-4 -15.5t-1.5 -15.5t2 -15.5t9.5 -10t18 -4q5 0 11.5 3t14.5 9t13.5 10.5l13.5 11.5t10 9
q48 41 96.5 98t77 96.5l78.5 112.5l33.5 55t54 75t51.5 35zM330 723q4 4 11 4q10 0 15.5 -9.5t-3.5 -16.5q-46 -36 -91 -86q-5 -5 -10 -5q-9 0 -14.5 10t1.5 18q33 38 91 85z" />
    <glyph glyph-name="Thorn" unicode="&#xde;" horiz-adv-x="468" 
d="M86 110l-2 -2q-12 -44 -12 -69q0 -18 8 -36q1 -2 2.5 -6t2.5 -6q2 -6 2 -8q0 -7 -7 -13t-15 -6q-16 0 -25 22.5t-9 43.5q0 26 9 60v2l1 2q1 2 1 5v3h-3q-18 2 -31.5 14t-13.5 29q0 13 10 26.5t21 13.5q8 0 13.5 -6.5t5.5 -15.5q0 -11 -9 -18l4 -4q4 2 7 4q1 1 3.5 2
t3.5 1l2 1v1q33 131 55 202v2l-1 1q-8 6 -8 16q0 8 7 14l6 6q6 4 8 6h1v1q52 175 67 217q5 15 20 15q8 0 14.5 -5.5t6.5 -13.5q0 -4 -24 -80l-28 -91l-2 -8l6 3q73 39 139 39q52 0 89.5 -21.5t37.5 -67.5q0 -44 -41.5 -91.5t-101.5 -84t-118.5 -62.5t-101.5 -37zM331 430
q-93 0 -171 -58h-1v-1q-14 -45 -55 -202l-2 -8l5 1q66 13 183 88.5t117 129.5q0 50 -76 50z" />
    <glyph glyph-name="germandbls" unicode="&#xdf;" horiz-adv-x="389" 
d="M282 361q67 0 67 -43q0 -36 -34 -87t-71 -89q-15 -15 -23 -24q-1 -1 -11.5 -10.5t-16.5 -14.5q-34 -29 -61 -29q-10 0 -16.5 8t-6.5 18q0 8 9 17t17 9q5 0 11 -4l2 -2l2 1q29 17 89 89t60 98q0 20 -23 20q-37 0 -66 -8q-36 -10 -54 -13q-28 0 -28 21q0 4 1 6q13 40 48 98
l59 95q11 19 21 49.5t10 49.5q0 26 -21 26q-43 0 -101 -89q-107 -155 -107 -356q0 -63 10 -120q0 -27 -22 -27q-15 0 -18 17q-11 44 -11 131q0 135 43.5 254.5t135.5 198.5q44 38 84 38q50 0 50 -66q0 -60 -47 -140q-7 -12 -21 -34l-20 -32q-23 -38 -37 -65l-2 -5l6 1
q56 13 93 13z" />
    <glyph glyph-name="agrave" unicode="&#xe0;" horiz-adv-x="372" 
d="M373 233q6 6 13 6q12 0 18.5 -11.5t-3.5 -22.5q-78 -82 -139 -82q-40 0 -65 23t-30 64q-59 -75 -119 -75q-50 0 -58 42q-9 47 35.5 95.5t93.5 48.5q32 0 53 -24q0 -1 1 -2.5t2 -2.5q5 5 12 5q9 0 15.5 -7.5t5.5 -17.5q-6 -42 6 -75t48 -33q22 0 44 12t34 23.5t33 33.5z
M49 178q54 0 107 84q-8 2 -12 7q-12 13 -27 13q-33 0 -68 -48q-5 -8 -9 -16t-7 -18t0.5 -16t15.5 -6zM155 385q12 -6 7.5 -17.5t-16.5 -11.5q-35 0 -80 87q-4 9 1.5 16.5t13.5 7.5t12 -8q31 -60 62 -74z" />
    <glyph glyph-name="aacute" unicode="&#xe1;" horiz-adv-x="372" 
d="M373 233q6 6 13 6q12 0 18.5 -11.5t-3.5 -22.5q-78 -82 -139 -82q-40 0 -65 23t-30 64q-59 -75 -119 -75q-50 0 -58 42q-9 47 35.5 95.5t93.5 48.5q32 0 53 -24q0 -1 1 -2.5t2 -2.5q5 5 12 5q9 0 15.5 -7.5t5.5 -17.5q-6 -42 6 -75t48 -33q22 0 44 12t34 23.5t33 33.5z
M49 178q54 0 107 84q-8 2 -12 7q-12 13 -27 13q-33 0 -68 -48q-5 -8 -9 -16t-7 -18t0.5 -16t15.5 -6zM174 468q4 4 11 4q10 0 15.5 -9t-3.5 -17q-46 -36 -91 -86q-5 -5 -10 -5q-9 0 -14.5 10t1.5 18q33 38 91 85z" />
    <glyph glyph-name="acircumflex" unicode="&#xe2;" horiz-adv-x="372" 
d="M373 233q6 6 13 6q12 0 18.5 -11.5t-3.5 -22.5q-78 -82 -139 -82q-40 0 -65 23t-30 64q-59 -75 -119 -75q-50 0 -58 42q-9 47 35.5 95.5t93.5 48.5q32 0 53 -24q0 -1 1 -2.5t2 -2.5q5 5 12 5q9 0 15.5 -7.5t5.5 -17.5q-6 -42 6 -75t48 -33q22 0 44 12t34 23.5t33 33.5z
M49 178q54 0 107 84q-8 2 -12 7q-12 13 -27 13q-33 0 -68 -48q-5 -8 -9 -16t-7 -18t0.5 -16t15.5 -6zM193 366q5 -8 -0.5 -16t-13.5 -8q-12 0 -25 30t-19 53q-35 -33 -72 -63q-4 -4 -11 -4q-10 0 -15.5 9.5t3.5 16.5q45 36 92 84q4 4 11 4q14 0 16 -11q13 -56 34 -95z" />
    <glyph glyph-name="atilde" unicode="&#xe3;" horiz-adv-x="372" 
d="M373 233q6 6 13 6q12 0 18.5 -11.5t-3.5 -22.5q-78 -82 -139 -82q-40 0 -65 23t-30 64q-59 -75 -119 -75q-50 0 -58 42q-9 47 35.5 95.5t93.5 48.5q32 0 53 -24q0 -1 1 -2.5t2 -2.5q5 5 12 5q9 0 15.5 -7.5t5.5 -17.5q-6 -42 6 -75t48 -33q22 0 44 12t34 23.5t33 33.5z
M49 178q54 0 107 84q-8 2 -12 7q-12 13 -27 13q-33 0 -68 -48q-5 -8 -9 -16t-7 -18t0.5 -16t15.5 -6zM213 403q0 -19 -14.5 -32t-34.5 -13q-17 0 -39 11q-4 1 -10 3.5t-10 3.5q-9 3 -19 3q-14 0 -21 -9q-1 0 -1 -1l-2 -1q0 -1 -2 -3q-2 -1 -7 -1q-14 0 -14 11q0 2 2 6
q16 23 45 23q10 0 19 -3q2 0 19 -6q26 -10 42 -10q19 0 21 18q0 1 0.5 2.5t1.5 2.5q0 2 2 4q2 4 9 4q13 0 13 -13z" />
    <glyph glyph-name="adieresis" unicode="&#xe4;" horiz-adv-x="372" 
d="M373 233q6 6 13 6q12 0 18.5 -11.5t-3.5 -22.5q-78 -82 -139 -82q-40 0 -65 23t-30 64q-59 -75 -119 -75q-50 0 -58 42q-9 47 35.5 95.5t93.5 48.5q32 0 53 -24q0 -1 1 -2.5t2 -2.5q5 5 12 5q9 0 15.5 -7.5t5.5 -17.5q-6 -42 6 -75t48 -33q22 0 44 12t34 23.5t33 33.5z
M49 178q54 0 107 84q-8 2 -12 7q-12 13 -27 13q-33 0 -68 -48q-5 -8 -9 -16t-7 -18t0.5 -16t15.5 -6zM75 369q12 50 29 50q9 0 14.5 -7.5t0.5 -16.5q-10 -16 -13 -34q-3 -12 -16 -12l-2 1h-2q-13 3 -11 19zM143 365q4 50 26 50q9 0 14 -7t0 -16q-7 -12 -9 -27q0 -16 -15 -16
q-6 0 -11.5 5t-4.5 11z" />
    <glyph glyph-name="aring" unicode="&#xe5;" horiz-adv-x="372" 
d="M373 233q6 6 13 6q12 0 18.5 -11.5t-3.5 -22.5q-78 -82 -139 -82q-40 0 -65 23t-30 64q-59 -75 -119 -75q-50 0 -58 42q-9 47 35.5 95.5t93.5 48.5q32 0 53 -24q0 -1 1 -2.5t2 -2.5q5 5 12 5q9 0 15.5 -7.5t5.5 -17.5q-6 -42 6 -75t48 -33q22 0 44 12t34 23.5t33 33.5z
M49 178q54 0 107 84q-8 2 -12 7q-12 13 -27 13q-33 0 -68 -48q-5 -8 -9 -16t-7 -18t0.5 -16t15.5 -6zM203 457q5 -26 -10.5 -52.5t-39.5 -39.5q-16 -8 -30 -8q-35 0 -49 35q-16 39 27 97q5 6 11 6q7 0 12 -8q2 9 11 12q7 3 16 3q19 0 33.5 -13t18.5 -32zM172 438
q2 11 -4 21.5t-17 10.5q-2 0 -8 -2q-2 -1 -6 -1q-7 0 -10 6l-3 -6q-23 -31 -23 -49q-1 -12 6 -20.5t17 -8.5q15 0 30 16.5t18 32.5z" />
    <glyph glyph-name="ae" unicode="&#xe6;" horiz-adv-x="378" 
d="M-9 181q-9 46 35.5 95t93.5 49q29 0 51 -22q1 6 5 11q14 25 45.5 51.5t58.5 26.5q26 0 40 -29q19 -43 -29.5 -89t-102.5 -65q0 -25 13.5 -40.5t38.5 -15.5q55 0 138 78q6 6 13 6q12 0 18.5 -11.5t-3.5 -22.5q-93 -91 -165 -91q-38 0 -63 21t-29 59q-51 -53 -100 -53
q-50 0 -58 42zM50 238q-5 -8 -9 -16t-7 -18t0.5 -16t15.5 -6q54 0 107 84q-8 2 -12 7q-12 13 -27 13q-33 0 -68 -48zM209 276l-13 -19q39 16 66 50q24 37 13 43q-2 1 -5 1q-12 0 -29 -17t-24 -29q-2 -3 -5.5 -9t-4.5 -9q2 -3 2 -11z" />
    <glyph glyph-name="ccedilla" unicode="&#xe7;" horiz-adv-x="253" 
d="M-12 105q-30 57 34 179q51 93 111 93q14 0 21 -2q17 -4 13.5 -21t-20.5 -17h-4q-3 1 -10 1q-24 0 -47 -26.5t-34.5 -53.5t-18.5 -53q-13 -49 -12 -62q4 -29 34 -29q11 0 39 7q18 5 35.5 13.5t38 21.5t32 21.5l35 26.5t30.5 23q5 4 11 4q12 0 16.5 -14.5t-7.5 -23.5
q-101 -79 -164 -104q-2 -1 -5.5 -2.5t-5.5 -1.5q-7 -32 -9 -39q0 -1 -3 -7t-5.5 -12t-3.5 -11h3q6 0 19 1.5t19 1.5q16 0 26 -8q21 -16 16 -48q-6 -31 -38 -48.5t-69 -17.5q-11 0 -16 1q-9 1 -13 8.5t-1 15t11 7.5h3q2 0 6.5 -0.5t7.5 -0.5q65 0 75 35q7 24 -24 24
q-6 0 -17.5 -1t-16.5 -1t-11 2q-14 7 -14 28q0 3 3.5 11t6.5 16l3 7q6 18 8 27q-18 -2 -26 -2q-44 0 -62 31z" />
    <glyph glyph-name="egrave" unicode="&#xe8;" horiz-adv-x="227" 
d="M227 231q6 6 13 6q12 0 18.5 -11.5t-3.5 -22.5q-93 -91 -165 -91q-25 0 -46 10q-33 15 -42 52t-1 73t24 67q14 25 45.5 51.5t58.5 26.5q26 0 40 -29q19 -43 -29.5 -89t-102.5 -65q0 -25 13.5 -40.5t38.5 -15.5q55 0 138 78zM66 305q-13 -22 -21 -49q40 18 66 51
q24 37 13 43q-2 1 -5 1q-12 0 -29 -17t-24 -29zM169 439q12 -6 7.5 -17.5t-16.5 -11.5q-35 0 -80 87q-4 9 1.5 16.5t13.5 7.5t12 -8q31 -60 62 -74z" />
    <glyph glyph-name="eacute" unicode="&#xe9;" horiz-adv-x="227" 
d="M227 231q6 6 13 6q12 0 18.5 -11.5t-3.5 -22.5q-93 -91 -165 -91q-25 0 -46 10q-33 15 -42 52t-1 73t24 67q14 25 45.5 51.5t58.5 26.5q26 0 40 -29q19 -43 -29.5 -89t-102.5 -65q0 -25 13.5 -40.5t38.5 -15.5q55 0 138 78zM66 305q-13 -22 -21 -49q40 18 66 51
q24 37 13 43q-2 1 -5 1q-12 0 -29 -17t-24 -29zM146 517q4 4 11 4q10 0 15.5 -9.5t-3.5 -16.5q-46 -36 -91 -86q-5 -5 -10 -5q-9 0 -14.5 10t1.5 18q33 38 91 85z" />
    <glyph glyph-name="ecircumflex" unicode="&#xea;" horiz-adv-x="227" 
d="M227 231q6 6 13 6q12 0 18.5 -11.5t-3.5 -22.5q-93 -91 -165 -91q-25 0 -46 10q-33 15 -42 52t-1 73t24 67q14 25 45.5 51.5t58.5 26.5q26 0 40 -29q19 -43 -29.5 -89t-102.5 -65q0 -25 13.5 -40.5t38.5 -15.5q55 0 138 78zM66 305q-13 -22 -21 -49q40 18 66 51
q24 37 13 43q-2 1 -5 1q-12 0 -29 -17t-24 -29zM198 416q5 -8 -0.5 -16t-13.5 -8q-12 0 -25 30t-19 53q-34 -33 -72 -63q-4 -4 -11 -4q-10 0 -15.5 9.5t3.5 16.5q45 36 92 84q4 4 11 4q14 0 16 -11q13 -56 34 -95z" />
    <glyph glyph-name="edieresis" unicode="&#xeb;" horiz-adv-x="227" 
d="M227 231q6 6 13 6q12 0 18.5 -11.5t-3.5 -22.5q-93 -91 -165 -91q-25 0 -46 10q-33 15 -42 52t-1 73t24 67q14 25 45.5 51.5t58.5 26.5q26 0 40 -29q19 -43 -29.5 -89t-102.5 -65q0 -25 13.5 -40.5t38.5 -15.5q55 0 138 78zM66 305q-13 -22 -21 -49q40 18 66 51
q24 37 13 43q-2 1 -5 1q-12 0 -29 -17t-24 -29zM77 433q12 50 29 50q9 0 14.5 -7.5t0.5 -16.5q-10 -16 -13 -34q-3 -12 -16 -12l-2 1h-2q-13 3 -11 19zM145 429q4 50 26 50q9 0 14 -7t0 -16q-7 -12 -9 -27q0 -16 -15 -16q-6 0 -11.5 5t-4.5 11z" />
    <glyph glyph-name="igrave" unicode="&#xec;" horiz-adv-x="213" 
d="M213 235q6 6 13 6q12 0 18 -11.5t-3 -22.5q-111 -127 -179 -127q-15 0 -25 5q-63 30 -34 176q2 7 5 20q1 8 2 11q3 14 17 14q10 0 17 -7t4 -18q-1 -3 -3.5 -15.5l-4 -20.5l-4 -22t-3 -24t-0.5 -22.5t2.5 -21.5t6.5 -17t11.5 -13t17.5 -6h3q10 0 24 7t25.5 16t27.5 25
l24.5 25t22 25t15.5 18zM84 363q12 -6 7.5 -17.5t-16.5 -11.5q-35 0 -80 87q-4 9 1.5 16.5t13.5 7.5t12 -8q31 -60 62 -74z" />
    <glyph glyph-name="iacute" unicode="&#xed;" horiz-adv-x="213" 
d="M213 235q6 6 13 6q12 0 18 -11.5t-3 -22.5q-111 -127 -179 -127q-15 0 -25 5q-63 30 -34 176q2 7 5 20q1 8 2 11q3 14 17 14q10 0 17 -7t4 -18q-1 -3 -3.5 -15.5l-4 -20.5l-4 -22t-3 -24t-0.5 -22.5t2.5 -21.5t6.5 -17t11.5 -13t17.5 -6h3q10 0 24 7t25.5 16t27.5 25
l24.5 25t22 25t15.5 18zM93 459q4 4 11 4q10 0 15.5 -9.5t-3.5 -16.5q-46 -36 -91 -86q-5 -5 -10 -5q-9 0 -14.5 10t1.5 18q33 38 91 85z" />
    <glyph glyph-name="icircumflex" unicode="&#xee;" horiz-adv-x="213" 
d="M213 235q6 6 13 6q12 0 18 -11.5t-3 -22.5q-111 -127 -179 -127q-15 0 -25 5q-63 30 -34 176q2 7 5 20q1 8 2 11q3 14 17 14q10 0 17 -7t4 -18q-1 -3 -3.5 -15.5l-4 -20.5l-4 -22t-3 -24t-0.5 -22.5t2.5 -21.5t6.5 -17t11.5 -13t17.5 -6h3q10 0 24 7t25.5 16t27.5 25
l24.5 25t22 25t15.5 18zM117 370q5 -8 -0.5 -16t-13.5 -8q-12 0 -25 30t-19 53q-35 -33 -72 -63q-4 -4 -11 -4q-10 0 -15.5 9.5t3.5 16.5q45 36 92 84q4 4 11 4q14 0 16 -11q13 -56 34 -95z" />
    <glyph glyph-name="idieresis" unicode="&#xef;" horiz-adv-x="213" 
d="M213 235q6 6 13 6q12 0 18 -11.5t-3 -22.5q-111 -127 -179 -127q-15 0 -25 5q-63 30 -34 176q2 7 5 20q1 8 2 11q3 14 17 14q10 0 17 -7t4 -18q-1 -3 -3.5 -15.5l-4 -20.5l-4 -22t-3 -24t-0.5 -22.5t2.5 -21.5t6.5 -17t11.5 -13t17.5 -6h3q10 0 24 7t25.5 16t27.5 25
l24.5 25t22 25t15.5 18zM-21 378q12 50 29 50q9 0 14.5 -7.5t0.5 -16.5q-10 -16 -13 -34q-3 -12 -16 -12h-2l-2 1q-13 3 -11 19zM47 374q4 50 26 50q9 0 14 -7t0 -16q-7 -12 -9 -27q0 -16 -15 -16q-6 0 -11.5 5t-4.5 11z" />
    <glyph glyph-name="ntilde" unicode="&#xf1;" horiz-adv-x="419" 
d="M419 235q7 6 14 6q13 0 17.5 -11.5t-6.5 -22.5q-29 -28 -66 -48.5t-68 -20.5q-18 0 -31 7q-18 9 -30.5 26t-17.5 31t-11 25t-15 11q-21 0 -91 -81q-3 -3 -16.5 -20.5t-24.5 -30.5t-27 -24.5t-28 -11.5q-13 0 -22 13q-4 5 -6 12.5t-2 18v16.5t1.5 18.5t1.5 14.5l4 37.5
t4 42t0.5 35t-4.5 39.5q-3 11 4 18t18 7q15 0 18 -14q9 -40 4 -93q0 -5 -6.5 -37.5t-7.5 -49.5t4 -34q-3 4 52 63t74 76q38 32 61 32q18 0 31 -20q2 -4 15.5 -36t30.5 -44q10 -7 23 -7q46 0 103 57zM210 404q0 -19 -14.5 -32t-34.5 -13q-17 0 -39 11q-4 1 -10 3.5t-10 3.5
q-9 3 -19 3q-14 0 -21 -9q0 -1 -1 -1t-2 -1q0 -1 -2 -3q-2 -1 -7 -1q-14 0 -14 11q0 2 2 6q16 23 45 23q10 0 19 -3q2 0 19 -6q26 -10 42 -10q19 0 21 18q0 1 0.5 2.5t1.5 2.5q0 2 2 4q2 4 9 4q13 0 13 -13z" />
    <glyph glyph-name="ograve" unicode="&#xf2;" horiz-adv-x="215" 
d="M226 316h4q17 0 20 -17t-14 -22q-32 -7 -107 -12q18 -41 -11.5 -98.5t-71.5 -72.5q-18 -6 -31 -6q-28 0 -35.5 29t2.5 70t21 73.5t21 52.5q4 10 15 10t18 -9.5t1 -20.5q-46 -93 -42 -126t19 -33q18 0 42 39q8 14 14 31t3 36.5t-23 24.5q-16 4 -14 21.5t19 17.5
q10 0 26.5 -0.5t22.5 -0.5q49 0 101 13zM123 384q12 -6 7.5 -17.5t-16.5 -11.5q-35 0 -80 87q-4 9 1.5 16.5t13.5 7.5t12 -8q31 -60 62 -74z" />
    <glyph glyph-name="oacute" unicode="&#xf3;" horiz-adv-x="215" 
d="M226 316h4q17 0 20 -17t-14 -22q-32 -7 -107 -12q18 -41 -11.5 -98.5t-71.5 -72.5q-18 -6 -31 -6q-28 0 -35.5 29t2.5 70t21 73.5t21 52.5q4 10 15 10t18 -9.5t1 -20.5q-46 -93 -42 -126t19 -33q18 0 42 39q8 14 14 31t3 36.5t-23 24.5q-16 4 -14 21.5t19 17.5
q10 0 26.5 -0.5t22.5 -0.5q49 0 101 13zM130 467q4 4 11 4q10 0 15.5 -9.5t-3.5 -16.5q-46 -36 -91 -86q-5 -5 -10 -5q-9 0 -14.5 10t1.5 18q33 38 91 85z" />
    <glyph glyph-name="ocircumflex" unicode="&#xf4;" horiz-adv-x="215" 
d="M226 316h4q17 0 20 -17t-14 -22q-32 -7 -107 -12q18 -41 -11.5 -98.5t-71.5 -72.5q-18 -6 -31 -6q-28 0 -35.5 29t2.5 70t21 73.5t21 52.5q4 10 15 10t18 -9.5t1 -20.5q-46 -93 -42 -126t19 -33q18 0 42 39q8 14 14 31t3 36.5t-23 24.5q-16 4 -14 21.5t19 17.5
q10 0 26.5 -0.5t22.5 -0.5q49 0 101 13zM166 378q5 -8 -0.5 -16t-13.5 -8q-12 0 -25 30t-19 53q-34 -33 -72 -63q-4 -4 -11 -4q-10 0 -15.5 9.5t3.5 16.5q45 36 92 84q4 4 11 4q14 0 16 -11q13 -56 34 -95z" />
    <glyph glyph-name="otilde" unicode="&#xf5;" horiz-adv-x="215" 
d="M226 316h4q17 0 20 -17t-14 -22q-32 -7 -107 -12q18 -41 -11.5 -98.5t-71.5 -72.5q-18 -6 -31 -6q-28 0 -35.5 29t2.5 70t21 73.5t21 52.5q4 10 15 10t18 -9.5t1 -20.5q-46 -93 -42 -126t19 -33q18 0 42 39q8 14 14 31t3 36.5t-23 24.5q-16 4 -14 21.5t19 17.5
q10 0 26.5 -0.5t22.5 -0.5q49 0 101 13zM187 402q0 -19 -14.5 -32t-34.5 -13q-17 0 -39 11l-10 3.5l-10 3.5q-9 3 -19 3q-14 0 -21 -9l-1 -1q-2 0 -2 -1t-2 -3q-2 -1 -7 -1q-14 0 -14 11q0 2 2 6q16 23 45 23q10 0 19 -3q2 0 19 -6q26 -10 42 -10q19 0 21 18q0 1 0.5 2.5
t1.5 2.5q0 2 2 4q2 4 9 4q13 0 13 -13z" />
    <glyph glyph-name="odieresis" unicode="&#xf6;" horiz-adv-x="215" 
d="M226 316h4q17 0 20 -17t-14 -22q-32 -7 -107 -12q18 -41 -11.5 -98.5t-71.5 -72.5q-18 -6 -31 -6q-28 0 -35.5 29t2.5 70t21 73.5t21 52.5q4 10 15 10t18 -9.5t1 -20.5q-46 -93 -42 -126t19 -33q18 0 42 39q8 14 14 31t3 36.5t-23 24.5q-16 4 -14 21.5t19 17.5
q10 0 26.5 -0.5t22.5 -0.5q49 0 101 13zM46 386q12 50 29 50q9 0 14.5 -7.5t0.5 -16.5q-10 -16 -13 -34q-3 -12 -16 -12h-2l-2 1q-13 3 -11 19zM114 382q4 50 26 50q9 0 14 -7t0 -16q-8 -12 -9 -27q0 -16 -15 -16q-6 0 -11.5 5t-4.5 11z" />
    <glyph glyph-name="oslash" unicode="&#xf8;" horiz-adv-x="215" 
d="M-169 -30q0 7 5 14q59 75 141 167q3 38 18.5 87.5t28.5 74.5q4 10 15 10t18 -9.5t1 -20.5q-35 -74 -40 -97l46 50q2 2 7 7.5t8 8.5q-2 0 -4 1l-4 2q-16 4 -14 21.5t19 17.5q8 0 21 -0.5t19 -0.5q106 115 173 178q6 6 14 6t14.5 -6.5t6.5 -14.5t-6 -14l-91 -93l-51 -53
q21 3 50 10h4q17 0 20 -17t-14 -22q-36 -8 -98 -11l-7 -7q13 -42 -15.5 -96t-69.5 -69q-18 -6 -31 -6q-18 0 -27 11l-53 -60l-69 -84q-7 -7 -14 -7q-8 0 -14.5 7t-6.5 15zM64 185l-40 -44q4 -6 11 -6q19 0 37 30.5t22 53.5q-10 -12 -30 -34z" />
    <glyph glyph-name="ugrave" unicode="&#xf9;" horiz-adv-x="362" 
d="M-3 69q-14 13 -14.5 41.5t4.5 47.5q7 64 20 116q3 14 18 14q9 0 15.5 -6.5t3.5 -17.5q-10 -40 -17 -106q-6 -65 17 -65q7 0 16 6q36 25 62.5 74t43 84.5t33.5 36.5q10 1 16 -10q7 -17 7.5 -39.5t-2 -49.5t-1.5 -42q3 -55 25 -55q10 0 24.5 12t29.5 32l26.5 36.5t23.5 36
t13 20.5q6 10 16 10q11 0 16.5 -9t-0.5 -21q-93 -153 -156 -153q-55 0 -58 98q0 68 6 81q-1 -3 -11.5 -28.5t-22.5 -50t-29 -52t-38 -44.5t-42 -17q-22 0 -45 20zM50 418q-4 9 1.5 16.5t13.5 7.5t12 -8q31 -60 62 -74q12 -6 7.5 -17.5t-16.5 -11.5q-35 0 -80 87z" />
    <glyph glyph-name="uacute" unicode="&#xfa;" horiz-adv-x="362" 
d="M-3 69q-14 13 -14.5 41.5t4.5 47.5q7 64 20 116q3 14 18 14q9 0 15.5 -6.5t3.5 -17.5q-10 -40 -17 -106q-6 -65 17 -65q7 0 16 6q36 25 62.5 74t43 84.5t33.5 36.5q10 1 16 -10q7 -17 7.5 -39.5t-2 -49.5t-1.5 -42q3 -55 25 -55q10 0 24.5 12t29.5 32l26.5 36.5t23.5 36
t13 20.5q6 10 16 10q11 0 16.5 -9t-0.5 -21q-93 -153 -156 -153q-55 0 -58 98q0 68 6 81q-1 -3 -11.5 -28.5t-22.5 -50t-29 -52t-38 -44.5t-42 -17q-22 0 -45 20zM88 318q-9 0 -14.5 10t1.5 18q33 38 91 85q4 4 11 4q10 0 15.5 -9.5t-3.5 -16.5q-46 -36 -91 -86
q-5 -5 -10 -5z" />
    <glyph glyph-name="ucircumflex" unicode="&#xfb;" horiz-adv-x="362" 
d="M-3 69q-14 13 -14.5 41.5t4.5 47.5q7 64 20 116q3 14 18 14q9 0 15.5 -6.5t3.5 -17.5q-10 -40 -17 -106q-6 -65 17 -65q7 0 16 6q36 25 62.5 74t43 84.5t33.5 36.5q10 1 16 -10q7 -17 7.5 -39.5t-2 -49.5t-1.5 -42q3 -55 25 -55q10 0 24.5 12t29.5 32l26.5 36.5t23.5 36
t13 20.5q6 10 16 10q11 0 16.5 -9t-0.5 -21q-93 -153 -156 -153q-55 0 -58 98q0 68 6 81q-1 -3 -11.5 -28.5t-22.5 -50t-29 -52t-38 -44.5t-42 -17q-22 0 -45 20zM48 341q-10 0 -15.5 9.5t3.5 16.5q45 36 92 84q4 4 11 4q14 0 16 -11q13 -56 34 -95q5 -8 -0.5 -16t-13.5 -8
q-12 0 -25 30t-19 53q-35 -33 -72 -63q-4 -4 -11 -4z" />
    <glyph glyph-name="udieresis" unicode="&#xfc;" horiz-adv-x="362" 
d="M-13 158q7 64 20 116q3 14 18 14q9 0 15.5 -6.5t3.5 -17.5q-10 -40 -17 -106q-6 -65 17 -65q7 0 16 6q36 25 62.5 74t43 84.5t33.5 36.5q10 1 16 -10q7 -17 7.5 -39.5t-2 -49.5t-1.5 -42q3 -55 25 -55q10 0 24.5 12t29.5 32l26.5 36.5t23.5 36t13 20.5q6 10 16 10
q11 0 16.5 -9t-0.5 -21q-93 -153 -156 -153q-55 0 -58 98q0 68 6 81l1 1q0 2 1 2q-1 0 -1 -1t-1 -2q-1 -3 -11.5 -28.5t-22.5 -50t-29 -52t-38 -44.5t-42 -17q-22 0 -45 20q-14 13 -14.5 41.5t4.5 47.5zM60 326q-13 3 -11 19q12 50 29 50q9 0 14.5 -7.5t0.5 -16.5
q-10 -16 -13 -34q-3 -12 -16 -12q-1 0 -4 1zM133 325q-6 0 -11.5 5t-4.5 11q4 50 26 50q9 0 14 -7t0 -16q-7 -12 -9 -27q0 -16 -15 -16z" />
    <glyph glyph-name="yacute" unicode="&#xfd;" horiz-adv-x="438" 
d="M438 235q12 0 17 -9.5t0 -19.5t-17 -10q-25 -1 -56 -16t-47.5 -27t-50.5 -39q2 -166 -37 -290q-40 -119 -109 -190q-56 -56 -105 -56q-22 0 -39 12q-56 39 -35 161q19 99 98 197.5t179 176.5q1 1 3.5 3t3.5 3q0 41 -7 176q-43 -60 -74 -99q-49 -60 -76 -78
q-17 -11 -33 -16q-16 -4 -22 -4q-74 0 -15 186q4 14 19 14q10 0 16.5 -7t2.5 -17q-1 -2 -8 -23.5t-10 -33.5t-7.5 -33t0.5 -22q7 -14 20 -14q5 0 11 3t11 6t12 10t10.5 10t10 10.5t7.5 8.5q47 54 123 167q7 10 17 10q18 0 20 -20q10 -130 12 -203l50 35t48 24.5t57 13.5z
M238 -16q3 32 5 96q-63 -52 -113 -105.5t-92 -128.5t-44 -143q-3 -57 10 -66q11 -8 36 -8q45 0 83 40.5t61 101t36.5 115.5t17.5 98zM163 451q4 4 11 4q10 0 15.5 -9.5t-3.5 -16.5q-46 -36 -91 -86q-5 -5 -10 -5q-9 0 -14.5 10t1.5 18q33 38 91 85z" />
    <glyph glyph-name="thorn" unicode="&#xfe;" horiz-adv-x="275" 
d="M236 306q0 -12 -5 -25q-21 -56 -90 -108t-131 -63h-1l-1 -2q-3 -12 -30 -87q-19 -57 -19 -85q0 -17 9 -28l1 -1q1 -1 1 -2l3 -3q2 -4 2 -8q0 -8 -7 -14.5t-15 -6.5q-15 0 -25 18.5t-10 36.5q0 23 19 91q5 19 15 51.5t13 41.5v2l-1 1q-14 12 -14 21q0 20 26 20h2l5 11
l89 298q2 7 14 45t19 58q5 14 19 14q9 0 15.5 -5.5t6.5 -13.5q0 -4 -34.5 -116.5t-43.5 -138.5l-3 -10l8 7q60 56 108 56q24 0 39.5 -15.5t15.5 -39.5zM171 318q-8 0 -23 -11q-10 -6 -21 -15q-46 -32 -84 -85q-3 -5 -7 -6l-1 -1v-1q-3 -14 -11 -38l-2 -6l6 2q73 22 132 92
q29 32 29 51q0 7 -5.5 12.5t-12.5 5.5z" />
    <glyph glyph-name="ydieresis" unicode="&#xff;" horiz-adv-x="438" 
d="M438 235q12 0 17 -9.5t0 -19.5t-17 -10q-25 -1 -56 -16t-47.5 -27t-50.5 -39q2 -166 -37 -290q-40 -119 -109 -190q-56 -56 -105 -56q-22 0 -39 12q-56 39 -35 161q19 99 98 197.5t179 176.5q1 1 3.5 3t3.5 3q0 41 -7 176q-43 -60 -74 -99q-49 -60 -76 -78
q-17 -11 -33 -16q-16 -4 -22 -4q-74 0 -15 186q4 14 19 14q10 0 16.5 -7t2.5 -17q-1 -2 -8 -23.5t-10 -33.5t-7.5 -33t0.5 -22q7 -14 20 -14q5 0 11 3t11 6t12 10t10.5 10t10 10.5t7.5 8.5q47 54 123 167q7 10 17 10q18 0 20 -20q10 -130 12 -203l50 35t48 24.5t57 13.5z
M238 -16q3 32 5 96q-63 -52 -113 -105.5t-92 -128.5t-44 -143q-3 -57 10 -66q11 -8 36 -8q45 0 83 40.5t61 101t36.5 115.5t17.5 98zM86 400q12 50 29 50q9 0 14.5 -7.5t0.5 -16.5q-10 -16 -13 -34q-3 -12 -16 -12q-1 0 -2 0.5t-2 0.5q-13 3 -11 19zM154 396q4 50 26 50
q9 0 14 -7t0 -16q-8 -12 -9 -27q0 -16 -15 -16q-6 0 -11.5 5t-4.5 11z" />
    <glyph glyph-name="dotlessi" unicode="&#x131;" horiz-adv-x="213" 
d="M213 235q6 6 13 6q12 0 18 -11.5t-3 -22.5q-111 -127 -179 -127q-15 0 -25 5q-63 30 -34 176q2 7 5 20q1 8 2 11q3 14 17 14q10 0 17 -7t4 -18q-1 -3 -3.5 -15.5l-4 -20.5l-4 -22t-3 -24t-0.5 -22.5t2.5 -21.5t6.5 -17t11.5 -13t17.5 -6h3q10 0 24 7t25.5 16t27.5 25
l24.5 25t22 25t15.5 18z" />
    <glyph glyph-name="Lslash" unicode="&#x141;" horiz-adv-x="484" 
d="M-29 315q0 20 20 22q19 1 58 1q0 4 2 10q49 196 120 379q4 10 14 10q11 0 18.5 -9.5t3.5 -20.5q-55 -139 -103 -315q-3 -9 -7.5 -27t-6.5 -27q31 0 61 -3q21 -2 21 -22t-21 -20q-23 0 -71 2l-5.5 -25.5t-5.5 -24.5l-7.5 -33.5t-7.5 -34.5t-5 -35.5t0 -35.5q7 -72 73 -72
q72 0 185 71.5t177 129.5q5 4 12 4q14 0 22 -11.5t-2 -21.5q-81 -71 -194.5 -141.5t-197.5 -70.5q-57 0 -88 38q-34 41 -26 122q6 48 28 142q-8 0 -24 -0.5t-23 -0.5q-20 0 -20 20z" />
    <glyph glyph-name="lslash" unicode="&#x142;" horiz-adv-x="299" 
d="M-65 330q0 20 20 22q19 1 57 1q11 64 48 207t47 219q3 19 22 19q8 0 13.5 -5t4.5 -14q-10 -79 -45.5 -222t-46.5 -204q7 0 19.5 -0.5t22.5 -1t18 -1.5q21 -2 21 -22t-21 -20t-67 2q-35 -247 59 -245q12 0 23 4t23.5 13.5t18.5 14.5t21 20l17 17q41 39 87 98q5 8 17 8
t18 -8.5t-1 -19.5q-28 -37 -61.5 -75.5t-83 -78.5t-82.5 -40q-39 0 -65 35t-33 81q-12 77 0 177q-9 0 -26 -0.5t-25 -0.5q-20 0 -20 20z" />
    <glyph glyph-name="OE" unicode="&#x152;" horiz-adv-x="698" 
d="M14 315q-38 113 64 254q49 66 119.5 111t141.5 45q57 0 106 -30l2.5 7.5t2.5 6.5q4 14 19 14q10 0 16.5 -7t2.5 -18l-6 -18q158 15 319 21q12 0 17 -9.5t0 -20t-17 -10.5q-148 -5 -333 -22q-46 -131 -71 -226q144 25 254 49h4q17 0 20.5 -17t-13.5 -22q-123 -25 -276 -52
q-16 -62 -27 -128q-15 -91 34 -119q21 -11 48 -11q62 0 133.5 37t124.5 86q5 5 13 5q13 0 19 -11.5t-4 -21.5q-53 -48 -136 -93t-151 -45q-41 0 -69 18q-47 -31 -109.5 -54t-110.5 -23q-24 0 -39 5q-33 10 -51 33t-19.5 54t5.5 64t23 70q-41 33 -56 78zM151 595
q-112 -116 -107 -224q3 -56 44 -96q63 119 87 119q11 0 17 -12t-3 -23q-41 -46 -69 -108q33 -20 99 -43q10 -3 13 -13t-2 -18t-15 -8q-4 0 -6 1q-71 24 -104 43q-12 -33 -18 -67q-13 -82 71 -82q82 0 181 56q-7 9 -11 18q-7 14 -10.5 29.5t-3.5 33.5t1 31.5t6 35.5t7.5 32
l9 34.5t8.5 30.5q-11 -2 -33 -5.5t-33 -5.5h-3q-11 0 -17.5 9t-4 18.5t13.5 11.5q25 3 89 14q33 124 67 227q-16 -1 -47.5 -5t-47.5 -5h-3q-10 0 -14 9t1 19t16 11l72 9q-30 13 -66 13q-97 0 -185 -90z" />
    <glyph glyph-name="oe" unicode="&#x153;" horiz-adv-x="323" 
d="M109 147q-37 -59 -90 -59q-28 0 -35.5 29t2.5 70t21 73.5t21 52.5q4 10 15 10t18 -9.5t1 -20.5q-46 -93 -42 -126t19 -33t31 22.5t23 42.5q-1 20 4 48q-5 14 -22 18q-16 4 -13.5 21.5t18.5 17.5h25l6 -12q2 5 5.5 12.5t4.5 9.5q14 25 45.5 51.5t58.5 26.5q26 0 40 -29
q19 -43 -29.5 -89t-102.5 -65q0 -25 13.5 -40.5t38.5 -15.5q55 0 138 78q6 6 13 6q12 0 18.5 -11.5t-3.5 -22.5q-93 -91 -165 -91q-49 0 -77 35zM141 256q40 18 66 51q24 37 13 43q-2 1 -5 1q-12 0 -29 -17t-24 -29q-13 -22 -21 -49z" />
    <glyph glyph-name="Scaron" unicode="&#x160;" horiz-adv-x="542" 
d="M68 504q64 60 169 107.5t186 47.5t105 -53q6 -11 -1 -20.5t-18 -9.5t-15 10q-14 30 -75 30q-83 0 -186.5 -50t-159.5 -113q-14 -17 -20 -25t-7 -25t15 -31q16 -13 76.5 -24t102.5 -15q141 -13 193 -32q35 -13 48.5 -36.5t7 -48.5t-25.5 -48.5t-46 -38.5q-98 -55 -193 -55
q-76 0 -115 43q-9 11 -3 22.5t18 11.5q7 0 13 -6q28 -31 86 -31q66 0 145 35q18 8 26 12t24 13.5t24 20.5t10 24q1 8 -1 15t-6.5 12.5t-10 9.5t-14 7.5l-15 6t-17 4.5l-16 3l-16 3t-13.5 2q-30 5 -103.5 11.5t-113.5 15.5q-106 22 -122 67q-19 50 64 128zM407 788q4 7 13 7
t14.5 -7t0.5 -16q-22 -35 -56.5 -74t-57.5 -39q-18 0 -28 23q-6 15 -27 91q-3 9 2.5 15t13.5 6q11 0 14 -12q14 -45 17 -59q0 -1 2 -8.5t4 -14t3 -6.5q2 -1 6 1.5t8 6.5l3 3q43 40 68 83z" />
    <glyph glyph-name="scaron" unicode="&#x161;" horiz-adv-x="259" 
d="M199 186q19 -41 -26.5 -77t-90.5 -43h-4q-11 0 -17 8.5t-3.5 18t13.5 11.5q26 4 53 16.5t32 31.5q3 10 -1.5 17.5t-15 11t-20 5.5t-22.5 3.5t-16 2.5q-23 5 -33 7.5t-26.5 12t-22.5 24.5q-14 32 5 70.5t54.5 64t67.5 25.5q19 0 19 -20t-19 -20q-26 1 -59 -30t-32 -58
q1 -10 7 -17.5t17.5 -11.5t20.5 -6.5t23 -4.5t17 -3q2 0 16.5 -3t20 -5l16 -6t16.5 -10t10 -15zM176 548q4 7 13 7t14.5 -7t0.5 -16q-22 -35 -56.5 -74t-57.5 -39q-18 0 -28 23q-6 15 -27 91q-3 9 2.5 15t13.5 6q11 0 14 -12q14 -45 17 -59q0 -1 2 -8.5t4 -14t3 -6.5
q2 -1 6 1.5t7 6.5l4 3q43 40 68 83z" />
    <glyph glyph-name="Ydieresis" unicode="&#x178;" horiz-adv-x="469" 
d="M521 715q2 1 6 1q11 0 17.5 -9t2.5 -19q-128 -293 -168 -420q-36 -111 -55 -215q-1 -4 -6.5 -31.5t-8 -44t-6.5 -46t-2.5 -49t5 -41.5t14.5 -35t28 -18q16 -5 14.5 -23t-16.5 -18q-4 0 -6 1q-83 25 -75 155q9 169 62.5 335.5t145.5 380.5q-11 -16 -28.5 -45t-22.5 -36
l-92 -132q-24 -32 -52 -66t-69.5 -78.5t-82.5 -72.5t-71 -28t-45.5 23.5t-8.5 66.5q27 151 118 328q5 11 17 11q11 0 17.5 -8.5t0.5 -19.5q-72 -140 -108 -290q0 -2 -3 -11.5t-4 -15.5t-1.5 -15.5t2 -15.5t9.5 -10t18 -4q5 0 11.5 3t14.5 9t13.5 10.5l13.5 11.5t10 9
q48 41 96.5 98t77 96.5l78.5 112.5l33.5 55t54 75t51.5 35zM227 654q12 50 29 50q9 0 14.5 -7.5t0.5 -16.5q-10 -16 -13 -34q-3 -12 -16 -12h-2l-2 1q-13 3 -11 19zM295 650q4 50 26 50q9 0 14 -7t0 -16q-7 -12 -9 -27q0 -16 -15 -16q-6 0 -11.5 5t-4.5 11z" />
    <glyph glyph-name="Zcaron" unicode="&#x17d;" horiz-adv-x="586" 
d="M586 235q6 2 8 2q14 0 15.5 -17t-13.5 -23q-42 -17 -136.5 -65t-145.5 -67q-14 -5 -52 -20t-60.5 -23t-55.5 -15.5t-60 -7.5q-16 0 -32 3q-41 6 -45.5 35.5t19.5 58.5q9 12 21 25l21 23t24.5 24l23 21t26.5 23t24 20.5t26.5 21.5t24.5 20l96.5 76.5l108.5 86.5
q107 84 144 130q30 24 -2 56l-30 -3q-64 -7 -136 -30.5t-121 -46.5l-129.5 -63.5t-119.5 -58.5q-6 -2 -9 -2q-15 0 -20 14.5t9 21.5l115.5 56l124 61t116 47.5t129.5 34.5q51 8 64 8q57 0 66 -46q3 -19 -3 -37.5t-22.5 -38t-28 -31t-35.5 -31t-28 -23.5
q-41 -36 -191.5 -154.5t-223.5 -193.5q-68 -68 -10 -68q20 0 66 11q39 10 154 54q52 19 146 66.5t137 64.5zM447 791q4 7 13 7t14.5 -7t0.5 -16q-22 -35 -56.5 -74t-57.5 -39q-18 0 -28 23q-6 15 -27 91q-3 9 2.5 15t13.5 6q11 0 14 -12l17 -59q0 -1 2 -8.5t4 -14t3 -6.5
q2 -1 6 1.5t8 5.5l3 4q43 40 68 83z" />
    <glyph glyph-name="zcaron" unicode="&#x17e;" horiz-adv-x="415" 
d="M415 235q7 5 13 5q14 0 20 -11.5t-5 -21.5q-184 -143 -448 -143q-15 1 -19.5 15.5t9.5 21.5q94 48 163 111q116 108 99 127q-2 2 -78 -29q-67 -19 -110 -19q-48 0 -64 36q-5 11 2.5 21t17.5 10t14 -11q10 -21 40 -21q31 0 99.5 26.5t79.5 27.5h3q24 0 33.5 -17t1.5 -40
q-18 -53 -85.5 -117t-131.5 -103q180 3 346 132zM226 520q4 7 13 7t14.5 -7t0.5 -16q-22 -35 -56.5 -74t-57.5 -39q-18 0 -28 23q-6 15 -27 91q-3 9 2.5 15t13.5 6q11 0 14 -12q14 -45 17 -59q0 -1 2 -8.5t4 -14t3 -6.5q2 -1 6 1.5t7 6.5l4 3q43 40 68 83z" />
    <glyph glyph-name="circumflex" unicode="&#x2c6;" horiz-adv-x="260" 
d="M208 405q5 -8 -0.5 -16t-13.5 -8q-12 0 -25 30t-19 53q-34 -33 -72 -63q-4 -4 -11 -4q-10 0 -15.5 9.5t3.5 16.5q45 36 92 84q4 4 11 4q14 0 16 -11q13 -56 34 -95z" />
    <glyph glyph-name="caron" unicode="&#x2c7;" horiz-adv-x="272" 
d="M192 512q4 7 13 7t14.5 -7t0.5 -16q-22 -35 -56.5 -74t-57.5 -39q-18 0 -28 23q-6 15 -27 91q-3 9 2.5 15t13.5 6q11 0 14 -12l17 -59q0 -1 2 -8.5t4 -14t3 -6.5q2 -1 6 1.5t7 6.5l4 3q43 40 68 83z" />
    <glyph glyph-name="ring" unicode="&#x2da;" horiz-adv-x="235" 
d="M184 485q5 -26 -10.5 -52.5t-39.5 -39.5q-16 -8 -30 -8q-35 0 -49 35q-16 39 27 97q5 6 11 6q7 0 12 -8q2 9 11 12q7 3 16 3q19 0 33.5 -13t18.5 -32zM153 466q2 11 -4 21.5t-17 10.5q-2 0 -8 -2q-2 -1 -6 -1q-7 0 -10 6l-3 -6q-23 -31 -23 -49q-1 -12 6 -20.5t17 -8.5
q15 0 30 16.5t18 32.5z" />
    <glyph glyph-name="tilde" unicode="&#x2dc;" horiz-adv-x="250" 
d="M224 410q0 -19 -14.5 -32t-34.5 -13q-17 0 -39 11q-4 1 -10 3.5t-10 3.5q-9 3 -19 3q-14 0 -21 -9q0 -1 -1 -1t-2 -1q0 -1 -2 -3q-2 -1 -7 -1q-14 0 -14 11q0 2 2 6q16 23 45 23q10 0 19 -3q2 0 19 -6q26 -10 42 -10q19 0 21 18q0 1 0.5 2.5t1.5 2.5q0 2 2 4q2 4 9 4
q13 0 13 -13z" />
    <glyph glyph-name="quoteleft" unicode="&#x2018;" horiz-adv-x="107" 
d="M82 506q2 1 6 1q8 0 14 -7t6 -15q0 -15 -15 -19q-24 -8 -39 -27t-15 -44q0 -4 1.5 -11.5t1.5 -11.5q0 -9 -7 -14.5t-16 -5.5q-13 0 -18 13q-3 9 -3 28q0 40 23.5 71.5t60.5 41.5z" />
    <glyph glyph-name="quoteright" unicode="&#x2019;" horiz-adv-x="169" 
d="M133 338q-2 -1 -6 -1q-8 0 -14 7t-6 15q0 15 15 19q54 17 54 71q0 4 -1.5 11.5t-1.5 11.5q0 9 7 14.5t16 5.5q13 0 18 -13q3 -9 3 -28q0 -40 -23.5 -71.5t-60.5 -41.5z" />
    <glyph glyph-name="quotedblleft" unicode="&#x201c;" horiz-adv-x="258" 
d="M90 497q2 1 6 1q8 0 14 -7t6 -15q0 -14 -15 -19q-24 -8 -39 -27t-15 -44q0 -4 1.5 -11.5t1.5 -11.5q0 -9 -7 -14.5t-16 -5.5q-13 0 -18 13q-3 9 -3 28q0 39 23.5 71t60.5 42zM205 500q2 1 6 1q9 0 15 -6.5t6 -15.5q0 -15 -15 -19q-25 -8 -40 -27t-15 -44q0 -4 1.5 -11.5
t1.5 -11.5q0 -9 -7 -14.5t-16 -5.5q-13 0 -18 13q-3 9 -3 28q0 40 23.5 71.5t60.5 41.5z" />
    <glyph glyph-name="quotedblright" unicode="&#x201d;" horiz-adv-x="354" 
d="M249 341q-2 -1 -6 -1q-9 0 -15 6.5t-6 15.5q0 14 15 19q55 17 55 71q0 4 -1.5 11.5t-1.5 11.5q0 9 7 14.5t16 5.5q13 0 18 -13q3 -9 3 -28q0 -40 -23.5 -71.5t-60.5 -41.5zM133 338q-2 -1 -6 -1q-8 0 -14 7t-6 15q0 15 15 19q54 17 54 71q0 4 -1.5 11.5t-1.5 11.5
q0 9 7 14.5t16 5.5q13 0 18 -13q3 -9 3 -28q0 -40 -23.5 -71.5t-60.5 -41.5z" />
    <glyph glyph-name="Euro" unicode="&#x20ac;" horiz-adv-x="486" 
d="M67 188q-7 0 -12 6.5t-5 14.5q0 15 14 21q12 6 35 14t27 10l2 1v2q0 5 1.5 17t2.5 18v4l-4 -1q-2 -1 -10 -4l-13 -5q-18 -6 -20 -6q-7 0 -12 6.5t-5 14.5q0 16 14 22q12 5 60 20l3 2q27 93 88.5 163.5t145.5 70.5q25 0 37 -3q20 -7 20 -21q0 -9 -6.5 -16t-15.5 -7
q-5 0 -17 2t-18 2q-64 0 -112.5 -53t-73.5 -122l-2 -5l6 1q68 16 120 16q20 0 20 -19q0 -20 -20 -22q-89 -9 -137 -22l-2 -1l-7 -41l5 1q64 20 97 20q19 0 32 -6q18 -7 18 -20q0 -8 -6.5 -15t-14.5 -7q-5 0 -7 1t-8 3q-10 4 -19 4q-20 0 -49 -9q-5 -1 -46 -15h-2v-3
q2 -43 10 -78q10 -38 33.5 -72t56.5 -34q15 0 31 10q8 4 11 6q6 2 8 2q8 0 14 -7t6 -16q0 -16 -24 -26t-44 -10q-68 0 -104 65t-41 144v4l-4 -1l-30 -12q-23 -9 -27 -9z" />
    <glyph glyph-name="uni0000.1" horiz-adv-x="0" 
 />
    <glyph glyph-name="uni000D.1" horiz-adv-x="250" 
 />
    <glyph glyph-name="b.salt" horiz-adv-x="315" 
d="M325 221q10 -11 3.5 -22.5t-19.5 -11.5q-8 0 -13 5q-4 4 -11 4q-24 0 -66 -31q-6 -36 -26.5 -61t-52.5 -25q-8 0 -24 4q-11 3 -13 13.5t5 19.5q29 37 72 72q-2 12 -4 18q2 15 -3 15q-4 0 -8 -4q-57 -73 -91 -138q-4 -10 -17 -10q-5 0 -10 3q-28 20 -37.5 49t-10.5 72
q0 34 1 51q-2 5 0 11q3 67 14 144q16 96 56 214.5t86 175.5q17 24 42 24q21 0 28 -25q2 -17 1.5 -23t-4 -26t-4.5 -23q-40 -278 -180 -474q-5 -90 13 -120q81 144 126 144q18 0 30 -23q6 -10 10 -28q36 21 65 21q24 0 42 -15zM161 720q-97 -179 -116 -397q55 91 95.5 214
t43.5 220l1 15q-2 -11 -6 -21q-2 -6 -9 -16.5t-9 -14.5z" />
    <glyph glyph-name="g.salt" horiz-adv-x="272" 
d="M181 297q27 -122 -10 -245.5t-116 -257.5q-98 -165 -167 -223q-46 -38 -83 -38q-30 0 -57 28q-10 11 -4 22.5t18 11.5q8 0 14 -6q12 -13 27 -13q23 0 56 27.5t62 64.5t60 84.5t47.5 76l28.5 49.5q109 204 93 363q-81 -107 -127 -107q-18 0 -31 16q-28 33 24 104
q43 62 99 72h4q17 0 20.5 -17t-13.5 -21q-37 -7 -65 -39q-50 -57 -15 -61q7 -1 45 45.5t54 68.5q6 9 18 9q15 0 18 -14z" />
    <glyph glyph-name="h.salt" horiz-adv-x="367" 
d="M406 213q0 -8 -6 -14q-27 -31 -65 -54.5t-72 -23.5q-54 0 -89 52q-11 11 -16 11q-18 0 -44 -32l-13 -15.5t-13 -17l-8 -11.5l-28 -33q-15 -20 -27 -32q-5 -5 -14 -5q-17 0 -26 23.5t-9 46.5q0 61 75 293q5 17 24.5 89t31.5 111q9 28 23.5 67t39 84t41.5 45q7 0 15 -6
q41 -35 41 -100q0 -74 -51 -181.5t-108 -184.5q-32 -47 -49 -64q-2 -3 -6 -7.5t-4 -5.5v-2q-1 -1 -1 -2t-2 -7q-1 -2 -1.5 -4t-1.5 -4l-1 -2q-1 -4 -7.5 -24t-9.5 -32q-8 -30 -8 -57v-14l5 6q59 71 65 77q48 52 78 52q19 0 36 -22q2 -2 4.5 -6.5t3.5 -6.5q6 -12 11.5 -19
t16.5 -13.5t26 -6.5q30 0 59 24q27 22 48 43q8 6 14 6q9 0 15.5 -6.5t6.5 -14.5zM226 685q0 28 -10 49l-3 6l-3 -6q-31 -58 -60 -149q-34 -101 -63 -209l-5 -19l11 16q49 75 91 164.5t42 147.5z" />
    <glyph glyph-name="j.salt" horiz-adv-x="126" 
d="M65 459q0 -6 -4 -10q-27 -44 -27 -98q0 -7 -5.5 -12t-13.5 -5q-22 0 -22 29t13.5 72.5t35.5 43.5q9 0 16 -6t7 -14zM20 248q18 0 23 -25q1 -7 1 -23q0 -162 -49 -303.5t-145 -305.5q-1 -2 -18.5 -35t-28.5 -50q-13 -21 -35.5 -48t-36.5 -27q-8 0 -13.5 7t-5.5 16t9 18
q8 6 11 10q33 25 65 90q8 14 21.5 42.5t21.5 42.5q78 144 120.5 268t42.5 255q0 9 -1 26t-1 25q0 17 19 17z" />
    <glyph glyph-name="k.salt" horiz-adv-x="284" 
d="M323 213q0 -7 -6 -13q-26 -30 -79 -57t-92 -29h-4q-58 0 -101 34l-2 2l-4 -3h-1q-1 -2 -3 -2l-2 -1v-2l-6 -66q0 -3 -0.5 -15.5t-1.5 -18.5q-3 -19 -22 -19q-20 0 -20 19q0 40 10 112q31 274 139 514q5 12 15 38l18 35q23 37 60 46q2 1 6 1q21 0 21 -33q0 -133 -48 -242
t-143 -236q-10 -13 -11 -14v-2q0 -1 -1 -2q0 -3 -1 -5q0 -5 -2 -17q-4 -24 -4 -27v-1l5 -5l2 2l101 74q9 6 26 19l25 19q5 3 10 3q8 0 13.5 -7.5t5.5 -16.5t-9 -18q-10 -8 -22 -16q-2 -2 -22 -16l-96 -70l-4 -2l4 -3q22 -11 52 -11q78 0 158 69q7 6 14 6q8 0 15 -7t7 -16z
M205 721v10l-5 -8q-8 -11 -18 -33q-10 -24 -15 -35q-74 -174 -97 -281l-3 -15l8 12q125 180 130 350z" />
    <glyph glyph-name="l.salt" horiz-adv-x="225" 
d="M0 214q0 62 17 135.5t35.5 124.5t50.5 129q7 19 23.5 54.5l23.5 51.5q10 26 18 38q17 31 43 31q21 0 31 -29q6 -20 6 -50q0 -179 -204 -466l-4 -4q-1 0 -1 -1l-1 -1v-45q0 -30 6 -50q12 -31 36 -31q34 0 85 49q26 28 38 42q19 22 31 33q7 5 12 5q7 0 12.5 -6t5.5 -13
q0 -8 -12 -22q-7 -9 -19 -21l-31 -32q-50 -55 -106 -71q-10 -5 -21 -5q-75 0 -75 154zM46 300l7 11q73 104 124 244q38 114 38 152q0 8 -2 13q-2 8 -11 8t-13 -11q-2 -3 -4.5 -8t-3.5 -6q-5 -8 -11 -26t-9 -24q-4 -10 -15 -40t-18 -46q-60 -145 -80 -252z" />
    <glyph glyph-name="r.salt" horiz-adv-x="298" 
d="M340 220q0 -20 -61.5 -77.5t-92.5 -76.5q-26 -19 -48 -19q-21 0 -33.5 12.5t-12.5 33.5q0 14 8 40q4 11 5 19q3 9 3 19q0 16 -22 20q-6 1 -16 1.5t-13 0.5q-70 9 -70 67q0 40 30 82t67 42q19 0 30.5 -11t11.5 -30q0 -39 -53 -104l-4 -4l6 -1q6 -1 20.5 -1.5t21.5 -2.5
q33 -8 33 -48q0 -5 -1.5 -16.5t-1.5 -12.5q0 -2 -2 -8l-3 -9q-4 -12 -4 -19q0 -17 12 -17q5 0 13 4q1 1 5 3l6 3q43 21 71 52q17 17 27 33l28 35q8 9 18 9q9 0 15.5 -5.5t6.5 -13.5zM82 334q0 4 -4 4q-3 0 -4 -1l-1 -1h-2q-1 -1 -3 -2l-2 -2q-33 -23 -33 -56q0 -8 1 -12
l2 -5l3 4q8 9 25.5 36.5t17.5 34.5z" />
    <glyph glyph-name="s.salt" horiz-adv-x="274" 
d="M310 252q0 -15 -15 -18q-65 -16 -112 -41l-5 -3l4 -4q29 -16 29 -52q0 -38 -42.5 -69.5t-82.5 -31.5q-26 0 -44.5 14t-18.5 39q0 28 40 68l19 19l4 4l-5 1q-33 8 -60 26t-27 46q0 15 7 26q18 35 59.5 57.5t87.5 30.5q27 0 27 -23q0 -14 -15 -17q-109 -25 -109 -70
q0 -21 29 -33q8 -4 24 -8q4 -1 7.5 -1.5t7.5 -1.5t5 -1h2l1 1q73 47 158 64q25 0 25 -22zM135 161h-2l-1 -1q-2 -2 -8.5 -7t-13.5 -11t-13 -12q-25 -23 -25 -38q0 -16 26 -16q17 0 42.5 17.5t25.5 34.5q0 20 -31 33z" />
    <glyph glyph-name="t.salt" horiz-adv-x="151" 
d="M362 455q-15 0 -45.5 1.5t-45.5 1.5q-66 0 -129 -6h-2l-1 -2q-14 -52 -41.5 -118t-54.5 -100q-1 -2 -3 -5.5t-3 -5.5q-3 -9 -8.5 -85t-5.5 -96q0 -69 25 -124q3 -6 3 -10q0 -9 -7 -15.5t-16 -6.5q-24 0 -37 66t-13 107q0 95 18 174q2 8 4 25t2 18q10 67 31 160l1 6l-5 -1
q-67 -13 -152 -35q-2 -1 -6 -1q-8 0 -14 7t-6 15q0 15 15 20q58 21 177 38h2l1 2q34 126 73 218q6 14 20 14q18 0 21 -21q4 -22 4 -69q0 -60 -13 -128l-1 -4h4q69 5 165 5q22 0 43 -3q20 -3 20 -23q0 -19 -20 -19zM107 493l13 94q-18 -58 -28 -93l-1 -4h4q7 0 10 1l2 1v1z
M94 443l1 4l-16 -1l-1 -2q-3 -14 -9 -45.5t-8 -40.5q7 0 33 85z" />
    <glyph glyph-name="y.salt" horiz-adv-x="371" 
d="M112 -319l-38 -64t-49 -72.5t-61 -76t-64.5 -52.5t-68.5 -23q-56 0 -68 58q0 26 23 26q10 0 13 -6l3 -6l3 -9q7 -25 27 -25q36 0 109 80q106 118 197 310q114 243 114 455v6l-5 -4q-17 -13 -50.5 -43.5l-47.5 -42.5q-61 -52 -112 -52q-43 0 -43 46q0 25 15.5 73.5
t35.5 48.5q8 0 15 -6.5t7 -14.5q0 -6 -4 -13q-2 -3 -5.5 -9t-4.5 -9q-15 -25 -15 -59q5 -12 13 -12q15 0 50 26q18 14 62 53q88 78 109 78q17 0 21 -23q2 -15 1 -22q0 -162 -46.5 -311t-135.5 -305z" />
    <glyph glyph-name="a.calt" horiz-adv-x="532" 
d="M516 358q12 -14 14 -29.5t-5.5 -32.5t-15.5 -28.5t-21 -27.5q-48 -57 -133.5 -106t-153.5 -49q-30 0 -52 13q-40 25 -29 95q-54 -45 -100 -54q-4 -1 -13 -1q-21 0 -33.5 11t-8.5 32q5 33 51.5 68t86.5 35q28 0 40 -18q3 2 9 2q9 0 15 -7.5t5 -17.5q-12 -56 -12 -59
q0 -28 15.5 -41.5t39.5 -13.5q44 0 107 33.5t104 70.5q81 76 62 97q-9 11 -3 22.5t18 11.5q8 0 13 -6zM15 181q38 0 98 57q-4 6 -13 6q-16 0 -41.5 -16.5t-32.5 -24.5q-17 -20 -11 -22z" />
    <glyph glyph-name="d.calt" horiz-adv-x="523" 
d="M507 339q58 -60 -70 -144q-95 -63 -180 -63q-95 0 -132 84q-2 -1 -4 -3t-4 -3q-1 -1 -15 -13.5l-22.5 -19.5t-23 -17t-27.5 -15t-24 -5q-16 0 -26 13q-19 24 7 62.5t57 67.5q5 5 14 5q13 0 19 -11.5t-5 -21.5q-10 -10 -36 -43.5t-21 -36.5q-1 0 17 15l37.5 31t20.5 17
l23 20q-13 61 2.5 136t43.5 129q30 55 79 97t103 42q28 0 45.5 -15.5t14.5 -45.5q-7 -73 -100 -193q-76 -98 -142 -161q0 -1 1 -3t1 -3q27 -66 100 -66q37 0 76 14q13 5 39 18t56.5 31.5t46 38.5t1.5 34q-9 11 -3 22.5t18 11.5q7 0 13 -6zM147 292q61 61 130.5 151t75.5 134
q5 41 -24 41q-19 0 -42 -13q-69 -38 -110 -132.5t-30 -180.5z" />
    <glyph glyph-name="e.calt" horiz-adv-x="455" 
d="M377 475q53 -1 70 -28.5t3 -66t-36.5 -74.5t-46.5 -61q-54 -54 -138.5 -97.5t-152.5 -43.5q-36 0 -58 13q-38 21 -38.5 57.5t25.5 70.5t61 62t62 35q6 2 19 2q22 0 34.5 -12t7.5 -35q-15 -64 -155 -104h-9q-7 -32 30 -46q11 -3 24 -3q55 0 129 37.5t120 80.5
q24 23 50.5 58t31.5 59q4 18 -5.5 37t-27.5 19q-19 1 -19 20.5t19 19.5zM70 262q-6 -6 -20 -22q77 22 89 50q4 9 -2 9q-9 0 -35 -15.5t-32 -21.5z" />
    <glyph glyph-name="f.calt" horiz-adv-x="446" 
d="M163 288q177 58 236 58q60 0 42 -49q-4 -12 -16 -12q-10 0 -17 9t-3 20q-2 -7 -30.5 -14t-64.5 -13t-40 -7l-121 -39q-10 -3 -32.5 -11l-42 -14.5t-37.5 -9.5q0 -2 -0.5 -5.5t-0.5 -4.5q10 -33 7 -116q-1 -19 -3 -53t-3.5 -62t-2.5 -52q0 -13 -0.5 -28.5t-1 -29
t-4.5 -27.5t-12 -24q-5 -8 -15 -8t-16 8q-25 27 -27.5 83t3.5 91q5 100 33 215q-4 9 -12 12q-3 1 -8.5 3.5t-7.5 3.5q-16 8 -12 22.5t21 14.5h2q7 -1 21 -6h4q4 0 5 -1q21 79 69.5 223t67.5 208q4 15 21 15q10 0 16 -6t3 -16q-20 -70 -67 -207.5t-67 -207.5q-1 -3 -2 -4
q26 6 69 23t46 18z" />
    <glyph glyph-name="g.calt" horiz-adv-x="526" 
d="M485 270q30 -8 42 -35t-5 -53q-6 -9 -17 -9t-18 9t0 20q19 27 -20 27q-40 0 -58 -9q-83 -24 -198 -92q-7 -134 -82.5 -252t-193.5 -195q-72 -51 -118 -51q-21 0 -36 11q-47 33 0 129q32 68 102.5 144.5t143.5 134.5t145 103q0 52 -10 99q-92 -132 -153 -132q-20 0 -36 17
q-28 31 26 99q49 60 126 77q2 1 6 1q12 0 17 -12q0 1 2 3.5t2 4.5q6 10 16 10q16 0 21 -15q20 -59 23 -129q180 99 245 99q16 0 28 -4zM94 228q16 18 35 43q-49 -13 -81 -42q-42 -38 -36 -55q1 -6 10 -8q13 -3 72 62zM-62 -269q95 70 157 165.5t74 205.5
q-109 -70 -203.5 -157.5t-142.5 -179.5q-10 -18 -14.5 -28t-9 -27t4 -25.5t29.5 -8.5h5q30 2 100 55z" />
    <glyph glyph-name="h.calt" horiz-adv-x="603" 
d="M32 106q-28 0 -35.5 34.5t-2.5 68.5q12 78 68 183.5t118 186.5q3 4 10.5 15l12 17.5t12 15.5t15 15t15.5 9q13 5 21 5q24 0 35 -22.5t5 -48.5q-17 -90 -107 -215q-66 -93 -164 -168l-2 -1q-1 -1 -2 -1q-3 -21 -1 -31q4 -16 12 -16q4 0 8.5 3.5t11.5 11.5t9 10l86 81
q32 30 55 30q18 0 29 -19q7 -11 11 -37.5t7 -34.5q26 -70 103 -70q29 2 73 30t72 56q2 2 13.5 17.5t20.5 19.5h-4q-10 0 -15.5 8.5t-2.5 18t13 12.5q8 2 12 2q25 0 33 -25q8 -29 -42 -81q-97 -97 -182 -97q-53 0 -88.5 33t-49.5 87q-1 5 -2 11t-2 9t-1.5 6t-2 4.5t-3.5 1.5
q-6 0 -19 -10q-8 -6 -16.5 -14l-18.5 -18l-15 -15t-23.5 -25.5t-33.5 -33t-30 -16.5q-9 -3 -16 -3zM49 264q74 64 125 139q27 39 59 98t32 84q0 21 -5 21q-4 0 -15 -6q-10 -6 -46.5 -61t-56.5 -88q-69 -114 -93 -187z" />
    <glyph glyph-name="i.calt" horiz-adv-x="429" 
d="M383 282q4 14 18 14q10 0 16.5 -7t3.5 -18q-7 -24 -26 -43t-33.5 -27.5t-45.5 -23.5q-118 -54 -182 -67q-38 -8 -60 -8q-43 0 -65 26q-34 39 -4 126q6 13 19 13q11 0 17.5 -6.5t2.5 -17.5q-15 -36 -15 -56q1 -43 57 -43q45 0 110 25q1 0 21.5 7l27.5 9.5t27.5 10.5
t30 13.5l26 14.5t25.5 17t17.5 19t11.5 22zM40 356q0 -9 -6 -14t-14 -5t-14 5t-6 14q1 20 13.5 48t29.5 28q12 0 18.5 -12t-3.5 -22q-18 -18 -18 -42z" />
    <glyph glyph-name="k.calt" horiz-adv-x="504" 
d="M469 266q4 13 19 13q10 0 16.5 -6.5t2.5 -17.5q-24 -73 -86.5 -108.5t-144.5 -35.5q-62 0 -124 20t-106 54q-9 -7 -23 -19q-18 -90 -9 -157q1 -9 -4.5 -14t-13.5 -5q-21 0 -22 19q-9 79 12 171q0 1 0.5 2.5t0.5 2.5q11 47 39 141l102 351q4 14 18 14q10 0 16.5 -7
t3.5 -18l-96 -331q-22 -70 -31 -106l111.5 84t79.5 50q13 0 18 -14t-8 -23q-92 -61 -162 -116q81 -61 181 -61q68 0 129.5 29.5t80.5 87.5z" />
    <glyph glyph-name="l.calt" horiz-adv-x="415" 
d="M353 307h7q36 0 48.5 -35t-4.5 -62q-34 -63 -115 -108t-155 -45q-106 0 -130 91q-7 25 -7.5 51.5t5.5 56.5t11 48.5t15 51.5q34 108 80 209q10 23 15.5 33t19.5 33t29.5 34t32.5 11q6 0 9 -1q30 -6 38 -38t4 -66q-4 -33 -19.5 -69t-28.5 -57.5t-38 -58.5
q-47 -71 -129 -176q-1 -2 -5 -4q-2 -101 81 -110q5 -1 16 -1q61 0 126 38t103 90q-2 30 -4 44h-3q-17 0 -18.5 19t16.5 21zM184 612q-22 -13 -70.5 -137.5t-64.5 -185.5q107 136 146 223q29 63 22 93q6 16 -5 16q-1 0 -9 -2q-3 1 -7 1q-9 0 -12 -8z" />
    <glyph glyph-name="m.calt" horiz-adv-x="711" 
d="M669 316q4 1 12 1q18 0 25.5 -10t5 -24.5t-10.5 -30t-18 -25.5q-49 -49 -121 -84t-137 -35q-99 0 -122 96q0 4 -3 27.5t-4 24.5q-5 2 -28.5 -21.5t-51 -54.5t-28.5 -32q-6 -6 -13 -6q-15 0 -20 15q-5 6 -0.5 44t3.5 49l-140 -160q-4 -6 -13 -6t-15.5 5.5t-5.5 14.5
q6 103 27 207q3 14 17 14q9 0 16 -7t5 -18q-14 -70 -21 -139l123 140q5 6 13 6q9 0 15 -6q10 -10 13.5 -23.5t4 -19.5t-3 -26.5t-3.5 -22.5q44 50 74 72q20 14 36 14q31 0 35 -24q9 -126 88 -126q48 0 114.5 31t104.5 67l10 10.5l15.5 16t11.5 8.5h-4q-17 0 -20.5 17.5
t14.5 20.5z" />
    <glyph glyph-name="n.calt" horiz-adv-x="484" 
d="M-13 149q-1 18 2 37.5t10 47.5t9 37q3 14 17 14q9 0 16 -7t5 -18q-1 -8 -8.5 -39t-9.5 -48q11 6 32 24.5t23 19.5q56 45 67 50q12 6 22 6q17 0 27 -17q4 -7 4.5 -23t1.5 -20q9 -48 48 -48q51 0 123 47q2 2 15.5 14l25.5 22t14 9q-14 7 -8.5 21.5t20.5 14.5q3 0 9 -2
q55 -26 -32 -96q-94 -72 -175 -72q-41 0 -62 28q-9 11 -11 36t-7 33q2 11 -1 11t-14 -13q-6 -4 -16 -12l-63 -47l-13.5 -10.5t-14 -10.5t-12.5 -6.5t-16 -3.5q-3 0 -13 2q-13 4 -15 19z" />
    <glyph glyph-name="o.calt" horiz-adv-x="524" 
d="M411 283q6 -11 -1 -20.5t-18 -9.5q-10 0 -16 10q-12 22 -58 22q-24 0 -67 -7.5t-48 -7.5q-16 -2 -48.5 -5.5t-48.5 -5.5q16 -27 12 -65t-28 -64q-22 -25 -52 -25q-23 0 -37 18q-6 8 -9 19t-3.5 20.5t1.5 25t3.5 22.5t5.5 24t5 19q3 7 7 11q-6 22 13 26q14 3 25 3l226 24
q50 5 60 5q55 0 76 -39zM67 166q33 45 -24 80v-3q0 -2 -6 -22t-6.5 -26t0.5 -21q-3 -16 9 -16q8 0 27 8z" />
    <glyph glyph-name="r.calt" horiz-adv-x="410" 
d="M338 344q5 1 14 1q30 0 45 -24.5t5 -55.5q-13 -41 -45.5 -73t-81.5 -63q-113 -74 -172 -74q-6 0 -20 2q-33 7 -41.5 37.5t6.5 59.5q3 8 12 21t11 18q3 5 8 11t7 9.5t2.5 7t-4 5t-14.5 1.5q-9 0 -25 -2.5t-24 -2.5q-9 0 -20 3q-1 0 -2 -0.5t-2 -0.5q-11 0 -16 11
q-25 21 -24 48t22 56q11 16 29 30t34 14q17 0 27 -21q21 -44 -30 -103h4q8 0 28 4t30 4q6 0 14 -2q12 -4 13 -14q6 -31 -15 -67q-3 -5 -12 -18t-13 -20q-11 -21 0 -32.5t32 -11.5q10 0 21 3q54 17 117 59t92 85q21 26 -1 57h-4q-17 0 -20.5 17t13.5 21zM13 288q23 27 18 39
q-3 1 -7 1q-16 0 -21 -24q1 -1 4.5 -6.5t5.5 -9.5z" />
    <glyph glyph-name="s.calt" horiz-adv-x="445" 
d="M435 268q4 -11 -2.5 -17.5t-16.5 -6.5q-13 0 -19 13q-4 10 -26 10q-35 0 -105 -22.5t-116 -44.5q29 -39 -8 -80q-16 -18 -64.5 -41.5t-81.5 -23.5q-42 0 -43 39q0 11 5.5 22t17.5 22t20 17t24.5 16.5t18.5 11.5l34 21q-6 1 -15 3t-15 3.5t-10 3.5q-24 11 -39 28
q-13 15 0 28q41 43 95 54q1 0 2.5 0.5t2.5 0.5q16 0 19.5 -17.5t-13.5 -22.5q-36 -8 -62 -29q13 -8 41 -16.5t37 -12.5q162 80 248 80q56 0 71 -39zM85 125q4 4 12.5 10t10.5 7q9 12 11 20t-1.5 11.5t-9.5 3.5h-3q-47 -28 -53 -33q-44 -28 -49 -42q-2 -5 6 -5q26 0 76 28z
" />
    <glyph glyph-name="t.calt" horiz-adv-x="432" 
d="M387 289q-7 11 -0.5 20t17.5 9t17 -9q19 -27 -5 -75.5t-71 -95t-98 -86t-85 -54.5q-43 -18 -79 -18q-74 0 -92 73q-2 9 -3 18.5t-1.5 17t1 19t2.5 17t4 18.5t3.5 16.5t5 18.5t4.5 17t0.5 4t0.5 3q-11 -1 -18 11t1 24q24 31 42 58l24 77l15 47l-133 -25h-4q-17 0 -20.5 17
t13.5 21q88 18 159 29q37 105 94 232q4 10 16 10q9 0 16 -5.5t6 -14.5q-10 -107 -49 -211q64 8 96 11q12 1 17 -8.5t0 -20t-17 -11.5q-36 -3 -113 -13q-32 -73 -82 -150q-13 -40 -24 -86l-7 -25t-7.5 -29t-5 -27t-1.5 -30t5 -26q14 -40 56 -40q40 0 84 30q77 50 124.5 89.5
t66 68.5t23 46t2.5 38z" />
    <glyph glyph-name="u.calt" horiz-adv-x="504" 
d="M461 322q21 -4 30 -15.5t7.5 -27t-8 -31t-16.5 -28.5q-41 -54 -109.5 -95.5t-131.5 -41.5q-43 0 -69 26t-26 70q-47 -67 -87 -66q-61 3 -51 143q1 19 22 19q19 0 18 -19q-3 -33 -1 -56q3 -34 17 -34q10 0 27 14q11 8 22 22.5t17.5 25t17.5 30t15 25.5q6 10 16 10
q9 0 15.5 -7.5t4.5 -17.5q-1 -3 -6 -26.5t-5.5 -32.5t-1 -27t6 -30t17.5 -22q12 -9 31 -9q36 0 85.5 24.5t80.5 52.5q18 16 44 49.5t8 36.5q-17 3 -14 20.5t20 17.5h4z" />
    <glyph glyph-name="x.calt" horiz-adv-x="456" 
d="M440 302q10 -4 13.5 -14.5t-4.5 -18.5q-66 -61 -148 -107.5t-151 -46.5q-45 0 -75 27l-3 -3l-1 -2q-32 -45 -65 -109q-6 -10 -15 -10q-11 0 -18.5 9.5t-1.5 20.5q31 62 77 124q-30 47 -40 114q-1 11 6 18t16 7q13 0 16 -14q10 -64 26 -93q53 70 93 78q1 0 2.5 0.5
t2.5 0.5q16 0 19.5 -17.5t-13.5 -21.5q-32 -7 -79 -70q23 -17 53 -17q49 0 119 36.5t119 76.5q-6 7 -3.5 18t13.5 15q14 4 20 4q9 0 22 -5z" />
    <glyph glyph-name="y.calt" horiz-adv-x="571" 
d="M217 175q188 94 272 94q74 0 75 -68q0 -19 -19 -19q-20 0 -21 19q0 28 -38 28q-42 0 -141.5 -39.5t-143.5 -68.5q-39 -104 -141 -217q-3 -3 -17 -20.5t-25.5 -29.5l-27 -27t-31 -23t-28.5 -8q-7 0 -14 3q-24 10 -26.5 37t7 51.5t21.5 42.5q85 123 250 219q19 55 16 110
q-60 -64 -93 -91q-26 -22 -48 -22q-10 0 -18 4q-30 12 -33 40.5t10 53.5t31 45q6 6 13 6q12 0 18 -11.5t-3 -22.5q-26 -22 -31 -60q3 -17 13 -17q5 0 13 6q6 1 14.5 9t18 19.5t12.5 14.5l82 83q6 6 15 6q16 0 19 -15q15 -62 -1 -132zM-20 -121q97 91 160 205
q-46 -30 -110.5 -88t-80.5 -94l-4.5 -16t-1 -20t9.5 -12q2 0 7.5 4.5t12.5 12.5z" />
  </font>
</defs>
</svg>
