<svg xmlns="http://www.w3.org/2000/svg" width="55" height="73" viewBox="0 0 55 73">
    <defs>
        <linearGradient id="a" x1="50%" x2="50%" y1="0%" y2="100%">
            <stop offset="0%" stop-color="#F5CC87"/>
            <stop offset="31.429%" stop-color="#F3A27B"/>
            <stop offset="65.844%" stop-color="#DA879E"/>
            <stop offset="100%" stop-color="#C383C0"/>
        </linearGradient>
        <linearGradient id="b" x1="50%" x2="50%" y1="0%" y2="100%">
            <stop offset="0%" stop-color="#F5CC87"/>
            <stop offset="31.429%" stop-color="#F3A27B"/>
            <stop offset="65.844%" stop-color="#DA879E"/>
            <stop offset="100%" stop-color="#C383C0"/>
        </linearGradient>
    </defs>
    <g fill="none" fill-rule="nonzero">
        <path fill="url(#a)" d="M19.938 72v-7.257c4.559-.357 8.143-1.815 10.753-4.374 2.61-2.559 3.915-5.927 3.915-10.103 0-2.648-.503-4.92-1.509-6.818-1.006-1.897-2.52-3.54-4.545-4.927-2.025-1.388-5.271-2.84-9.74-4.354-4.47-1.516-7.633-3.133-9.492-4.851-1.859-1.72-2.788-4.106-2.788-7.162 0-3.158 1.012-5.685 3.036-7.582 2.025-1.897 4.845-2.846 8.46-2.846 3.591 0 6.424 1.178 8.5 3.533 2.075 2.356 3.112 5.533 3.112 9.53h4.546c0-5.067-1.229-9.078-3.686-12.031-2.458-2.954-5.927-4.635-10.409-5.042V0h-3.896v7.716c-4.38.356-7.843 1.827-10.39 4.411C3.26 14.712 1.987 18.08 1.987 22.23c0 3.947 1.159 7.162 3.476 9.645 2.317 2.483 6.353 4.628 12.108 6.436 4.635 1.604 7.869 3.304 9.702 5.1 1.834 1.794 2.75 4.105 2.75 6.932 0 3.106-1.14 5.627-3.418 7.563-2.28 1.935-5.227 2.902-8.843 2.902-4.15 0-7.384-1.126-9.702-3.38-2.317-2.253-3.475-5.366-3.475-9.339H0c0 5.017 1.4 8.97 4.202 11.86 2.8 2.89 6.76 4.5 11.879 4.832V72h3.857z" transform="translate(.193 .725)"/>
        <path fill="url(#b)" d="M48.89 29.136V26.22c1.832-.143 3.272-.729 4.32-1.757 1.05-1.029 1.574-2.382 1.574-4.06 0-1.064-.202-1.978-.606-2.74-.404-.762-1.013-1.422-1.827-1.98-.813-.558-2.118-1.14-3.914-1.75-1.796-.609-3.067-1.258-3.814-1.95-.747-.69-1.12-1.65-1.12-2.877 0-1.269.406-2.284 1.22-3.047.813-.762 1.947-1.143 3.4-1.143 1.442 0 2.58.473 3.415 1.42.834.946 1.25 2.223 1.25 3.83h1.827c0-2.037-.493-3.649-1.48-4.836-.988-1.187-2.383-1.862-4.184-2.026v-3.1h-1.565v3.1c-1.76.143-3.152.734-4.175 1.773-1.023 1.038-1.535 2.392-1.535 4.06 0 1.586.466 2.878 1.397 3.875.931.998 2.553 1.86 4.865 2.587 1.863.644 3.162 1.327 3.9 2.049.736.721 1.104 1.65 1.104 2.786 0 1.248-.458 2.261-1.374 3.039-.915.777-2.1 1.166-3.553 1.166-1.668 0-2.967-.453-3.898-1.358-.932-.906-1.397-2.157-1.397-3.753h-1.842c0 2.016.563 3.604 1.688 4.766 1.126 1.161 2.717 1.808 4.774 1.941v2.901h1.55z" transform="translate(.193 .725)"/>
    </g>
</svg>
