<svg xmlns="http://www.w3.org/2000/svg" xmlns:xlink="http://www.w3.org/1999/xlink" width="43" height="36" viewBox="0 0 43 36">
    <defs>
        <path id="a" d="M0 .18h19.558V35.7H0z"/>
        <path id="c" d="M.031.18H19.59V35.7H.03z"/>
    </defs>
    <g fill="none" fill-rule="evenodd" opacity=".365">
        <g transform="rotate(-180 21.5 17.915)">
            <mask id="b" fill="#fff">
                <use xlink:href="#a"/>
            </mask>
            <path fill="#E5E5E5" d="M1.934.18h15.688a1.94 1.94 0 0 1 1.935 1.934V16.16c0 1.645-.139 2.654-.368 4.3 0 .096-.048.332-.065.44l-.034.224-.037.229-.039.232-.04.236-.043.24-.044.243-.046.246-.049.25-.05.253-.053.256-.055.26-.057.262-.06.265-.062.269-.064.27v.001l-.067.274-.07.277-.071.279-.075.282-.077.285-.08.287c-.026.096-.054.192-.082.29l-.085.29v.001l-.088.293-.09.296h-.001l-.094.299-.096.3-.1.302-.103.304-.105.306a30.038 30.038 0 0 1-.221.616v.002l-.116.31-.118.313-.122.314-.126.315v.001l-.128.316-.132.319-.136.319c-.046.107-.092.214-.14.32-.046.108-.094.215-.142.322l-.146.323-.15.324c-.05.108-.102.216-.154.324l-.157.325-.162.326a36.357 36.357 0 0 1-.334.654c-.847 1.623-1.48.772-1.946.373l-2.658-2.105c-1.724-1.366-1.32-.657-.57-2.828.557-1.618 1.278-4.158 1.41-6.936.022-.468.007-.92-.033-1.354-.076-.823.04-2.16-2.179-2.16H1.934A1.94 1.94 0 0 1 0 17.803V2.114A1.94 1.94 0 0 1 1.934.179zm17.623 15.56s.002.126 0 .361v-.36z" mask="url(#b)"/>
        </g>
        <g transform="rotate(-180 9.95 17.915)">
            <mask id="d" fill="#fff">
                <use xlink:href="#c"/>
            </mask>
            <path fill="#E5E5E5" d="M1.965.18h15.689a1.94 1.94 0 0 1 1.934 1.934V16.16c0 1.645-.139 2.654-.368 4.3 0 .096-.048.332-.065.44l-.035.224-.036.229-.039.232-.04.236-.042.24-.045.243-.046.246-.049.25-.05.253-.053.256-.055.26-.057.262-.06.265-.062.269-.064.27v.001l-.067.274-.07.277-.071.279-.075.282-.077.285-.08.287c-.026.096-.054.192-.082.29l-.085.29v.001l-.088.293-.091.296-.093.299-.097.3-.1.302-.103.304-.105.306a30.038 30.038 0 0 1-.221.616v.002l-.116.31-.118.313-.122.314-.125.315v.001l-.13.316-.131.319-.136.319-.139.32a51.475 51.475 0 0 1-.289.644v.001l-.15.324c-.05.108-.102.216-.154.324l-.157.325-.162.326a36.357 36.357 0 0 1-.334.654c-.847 1.623-1.48.772-1.946.373l-2.658-2.105c-1.724-1.366-1.32-.657-.57-2.828.558-1.618 1.278-4.158 1.41-6.936.023-.468.007-.92-.033-1.354-.076-.823.04-2.16-2.179-2.16H1.965a1.94 1.94 0 0 1-1.934-1.933V2.114A1.94 1.94 0 0 1 1.965.179zm17.623 15.56s.002.126 0 .361v-.36z" mask="url(#d)"/>
        </g>
    </g>
</svg>
