<svg xmlns="http://www.w3.org/2000/svg" width="67" height="70" viewBox="0 0 67 70">
    <defs>
        <linearGradient id="a" x1="50%" x2="50%" y1="0%" y2="99.815%">
            <stop offset="0%" stop-color="#F5CA86"/>
            <stop offset="26.7%" stop-color="#F1A07E"/>
            <stop offset="61.006%" stop-color="#E29094"/>
            <stop offset="100%" stop-color="#C683BB"/>
        </linearGradient>
        <linearGradient id="b" x1="50%" x2="50%" y1="0%" y2="99.815%">
            <stop offset="0%" stop-color="#F5CA86"/>
            <stop offset="26.7%" stop-color="#F1A07E"/>
            <stop offset="61.006%" stop-color="#E29094"/>
            <stop offset="100%" stop-color="#C683BB"/>
        </linearGradient>
    </defs>
    <g fill="none" fill-rule="evenodd" stroke-linecap="round" stroke-linejoin="round">
        <path stroke="url(#a)" stroke-width="4" d="M43.893 65.966l-15.308-8.499S14.37 64.625 13.167 65.23c-1.205.604-4.07-.342-3.58-2.859l3.288-16.87S2.408 34.851.852 33.366c-1.555-1.484-.981-4.115 1.72-4.445l16.831-2.058s7.433-14.232 8.12-15.534c.688-1.304 3.515-1.399 4.222.117l7.4 15.865s16.091 2.693 17.43 2.938c2.078.386 2.236 2.947.986 4.11A126896.35 126896.35 0 0 1 44.82 46.225s2.406 15.928 2.65 17.882c.245 1.955-1.97 2.75-3.576 1.858z" transform="translate(2.383 1.395)"/>
        <path stroke="url(#b)" stroke-width="2" d="M58.509 18.877l-5.194-2.884-5.23 2.634c-.41.205-1.382-.116-1.216-.97l1.116-5.724s-3.552-3.614-4.08-4.117c-.527-.504-.332-1.396.584-1.508l5.71-.699S52.723.781 52.956.34c.233-.443 1.193-.475 1.432.04l2.51 5.383s5.46.913 5.915.996c.705.131.758 1 .334 1.395l-4.323 4.026s.816 5.404.9 6.067c.082.663-.67.933-1.214.63z" transform="translate(2.383 1.395)"/>
    </g>
</svg>
