<?xml version="1.0" encoding="UTF-8"?>
<svg width="102px" height="73px" viewBox="0 0 102 73" version="1.1" xmlns="http://www.w3.org/2000/svg" xmlns:xlink="http://www.w3.org/1999/xlink">
    <!-- Generator: Sketch 61.1 (89650) - https://sketch.com -->
    <title>Benefits</title>
    <desc>Created with Sketch.</desc>
    <g id="Page-1" stroke="none" stroke-width="1" fill="none" fill-rule="evenodd">
        <g id="Benefits" transform="translate(1.000000, 0.000000)" fill="#7E8FA8">
            <g id="Group" transform="translate(0.000000, 0.724795)">
                <path d="M7.3319625,30.8631705 C8.50616705,30.8781705 9.74287159,31.1513523 10.9743489,31.7435114 C10.9743489,31.7435114 10.9743489,31.7435114 10.9754852,31.7435114 L32.2617352,41.9729545 C33.2709398,39.6417045 35.697417,38.0322727 38.4308261,38.1106818 C38.4321898,38.1106818 38.433667,38.1106818 38.4350307,38.1106818 L50.6612807,38.4843182 C53.6573034,38.4843182 55.918667,37.7639773 58.7769625,36.9373864 C61.6428716,36.10875 65.0516216,35.2119318 69.7632125,35.2119318 C73.6458261,35.2119318 78.8775307,36.3847727 83.1385534,37.8284091 L83.1385534,35.1661364 C83.1385534,34.8686364 83.197758,34.5713636 83.3116216,34.2965909 C83.4254852,34.0218182 83.5938943,33.7697727 83.8042352,33.5594318 C84.0145761,33.3490909 84.2666216,33.1806818 84.5413943,33.0668182 C84.816167,32.9529432 85.1135534,32.8937386 85.4109398,32.8937386 L97.7291216,32.8937386 C98.0266216,32.8937386 98.3238943,32.9528295 98.5987807,33.0667045 C98.8735534,33.1805682 99.1257125,33.3489773 99.3360534,33.5593182 C99.5463943,33.7696591 99.714917,34.0217045 99.8287807,34.2964773 C99.9426443,34.5713636 100.001849,34.8686364 100.001849,35.1661364 L100.001849,44.4502273 L100.001849,68.9729545 C100.001849,69.2704545 99.9426443,69.5677273 99.8287807,69.8426136 C99.714917,70.1173864 99.5463943,70.3694318 99.3360534,70.5797727 C99.1257125,70.7901136 98.8735534,70.9585227 98.5987807,71.0723864 C98.3238943,71.1861364 98.0266216,71.2453409 97.7291216,71.2453409 L85.4109398,71.2453409 C85.1135534,71.2453409 84.816167,71.18625 84.5413943,71.0722727 C84.2666216,70.9584091 84.0145761,70.79 83.8042352,70.5796591 C83.5938943,70.3693182 83.4254852,70.1172727 83.3116216,69.8425 C83.197758,69.5677273 83.1385534,69.2703409 83.1385534,68.9729545 L83.1385534,66.0642045 C68.1750307,63.4163636 59.2766216,67.9271591 45.7973034,67.9271591 C45.7960534,67.9271591 45.794917,67.9271591 45.793667,67.9271591 C43.0073034,67.9271591 40.084008,66.5629545 36.4268489,64.6654545 C32.7698034,62.7678409 28.5866216,60.2210227 24.3544625,57.4885227 C15.8917352,52.0247727 7.22253068,45.8013636 2.7077575,42.7428409 C2.70662114,42.7417045 2.70559841,42.7417045 2.70457568,42.7428409 C1.15707568,41.6969318 0.228780227,40.0511364 0.0401438636,38.42 C-0.148606136,36.7878409 0.308552955,35.1871591 1.21809841,33.8656818 C2.46866659,32.0487386 4.74878068,30.8316932 7.33241705,30.8646477 L7.3319625,30.8631705 Z M7.0219625,35.2879545 C5.99855341,35.2731818 5.38980341,35.8188636 4.96162159,36.4409091 C4.63537159,36.9148864 4.50548477,37.4719318 4.55457614,37.8965909 C4.60378068,38.3211364 4.73684886,38.6302273 5.24991705,38.9764773 C5.25105341,38.9776136 5.25230341,38.9776136 5.25343977,38.9764773 C9.89866705,42.1231818 18.4885534,48.2901136 26.8195761,53.6688636 C30.9850307,56.3582955 35.0830989,58.84625 38.5198034,60.6295455 C41.9560534,62.4125 44.9382125,63.3793182 45.8000307,63.3809091 L45.8000307,63.3809091 C57.999008,63.3809091 67.5338943,58.8838636 83.137758,61.45125 L83.137758,59.4942045 C83.134008,59.1943182 83.1903716,58.8938636 83.3025307,58.6157955 C83.4146898,58.3377273 83.5825307,58.0822727 83.7933261,57.8688636 C84.004008,57.6555682 84.257417,57.4845455 84.534008,57.3688636 C84.8107125,57.2532955 85.1104852,57.1931818 85.410258,57.1931818 C85.7101443,57.1931818 86.009917,57.2534091 86.2866216,57.3688636 C86.5632125,57.4845455 86.8166216,57.6555682 87.0273034,57.8688636 C87.2380989,58.0822727 87.4059398,58.3377273 87.5180989,58.6157955 C87.630258,58.8938636 87.6866216,59.1943182 87.6828716,59.4942045 L87.6828716,66.6990909 L88.8195761,66.6990909 L88.8195761,37.4370455 L87.6828716,37.4370455 L87.6828716,44.6305682 C87.6866216,44.9303409 87.630258,45.2309091 87.5180989,45.5089773 C87.4059398,45.7870455 87.2380989,46.0425 87.0273034,46.2559091 C86.8166216,46.4692045 86.5632125,46.6402273 86.2866216,46.7559091 C86.009917,46.8714773 85.7101443,46.9315909 85.410258,46.9315909 C85.1104852,46.9315909 84.8107125,46.8713636 84.534008,46.7559091 C84.257417,46.6402273 84.004008,46.4692045 83.7933261,46.2559091 C83.5825307,46.0425 83.4146898,45.7870455 83.3025307,45.5089773 C83.1903716,45.2309091 83.134008,44.9303409 83.137758,44.6305682 L83.137758,42.66 C79.1254852,41.1795455 72.9832125,39.7552273 69.762417,39.7552273 C65.610258,39.7552273 62.8319625,40.4947727 60.038667,41.3023864 C57.2453716,42.1101136 54.3796898,43.0279545 50.637417,43.0279545 C50.6143489,43.0279545 50.591167,43.0279545 50.5680989,43.0268182 L38.2996898,42.6518182 L38.2996898,42.6518182 C37.147758,42.6188636 36.3078716,43.5257955 36.3078716,44.3688636 C36.3078716,45.2302273 37.1067352,46.035 38.4516216,46.0864773 C38.4550307,46.0864773 38.4585534,46.0876136 38.4619625,46.0876136 L61.8028716,47.0876136 C62.1029852,47.0989773 62.4012807,47.1648864 62.674917,47.2885227 C62.9484398,47.4121591 63.1970761,47.5906818 63.4017352,47.8103409 C63.6063943,48.0301136 63.7668489,48.2907955 63.8708261,48.5725 C63.9748034,48.8540909 64.0221898,49.1565909 64.0093489,49.4564773 C63.996508,49.7564773 63.9234398,50.05375 63.7958261,50.3255682 C63.6682125,50.5972727 63.4860534,50.8432955 63.2634398,51.0447727 C63.0408261,51.24625 62.777758,51.4028409 62.4946898,51.5027273 C62.211508,51.6027273 61.9084398,51.6455682 61.608667,51.6284091 L38.2779852,50.62875 L38.267758,50.62875 L38.267758,50.62875 C35.8232125,50.5310227 33.532417,49.1718182 32.4370761,47.0985227 L9.00559886,35.8386364 C9.00559886,35.8386364 9.0044625,35.8386364 9.0044625,35.8386364 C8.20707614,35.4551136 7.55718977,35.2942045 7.02116705,35.2868182 L7.0219625,35.2879545 Z M95.4562807,37.4392045 L93.3650307,37.4392045 L93.3650307,66.70125 L95.4562807,66.70125 L95.4562807,44.4509091 L95.4562807,37.4392045 Z" id="Shape" stroke="#7E8FA8" stroke-width="0.2"></path>
                <path d="M43.9676443,14.2371477 C44.264917,14.2416932 44.5612807,14.3051023 44.8342352,14.4229432 C45.1071898,14.5407841 45.3566216,14.7128295 45.5637807,14.926125 C45.7709398,15.1394205 45.9355989,15.3938523 46.0454852,15.6702159 C46.155258,15.9464659 46.2101443,16.2445341 46.2059398,16.5418068 L46.2059398,21.9626023 L51.6263943,21.9626023 C51.9271898,21.9569205 52.229008,22.012375 52.5084398,22.1238523 C52.7879852,22.2352159 53.044917,22.4028295 53.2595761,22.613625 C53.4742352,22.8245341 53.6462807,23.0783977 53.7626443,23.3558977 C53.8791216,23.6333977 53.9395761,23.9340795 53.9395761,24.2349886 C53.9395761,24.5358977 53.8791216,24.8365795 53.7626443,25.1140795 C53.6462807,25.3914659 53.4742352,25.6454432 53.2595761,25.8562386 C53.044917,26.0671477 52.7879852,26.2347614 52.5084398,26.346125 C52.229008,26.4576023 51.9271898,26.5127159 51.6263943,26.507375 L46.2059398,26.507375 L46.2059398,31.9281705 C46.2096898,32.2279432 46.1533261,32.5285114 46.041167,32.8065795 C45.929008,33.0846591 45.761167,33.3401136 45.5503716,33.5535227 C45.3396898,33.7668182 45.0862807,33.9378409 44.8096898,34.0535227 C44.5329852,34.1690909 44.2332125,34.2292045 43.9333261,34.2292045 C43.6335534,34.2292045 43.3337807,34.1689773 43.0570761,34.0535227 C42.7804852,33.9378409 42.5270761,33.7668182 42.3163943,33.5535227 C42.1055989,33.3401136 41.937758,33.0846591 41.8255989,32.8065795 C41.7134398,32.5285114 41.6570761,32.2279432 41.6608261,31.9281705 L41.6608261,26.507375 L36.2400307,26.507375 C35.9392352,26.5130568 35.637417,26.4576023 35.3579852,26.346125 C35.0784398,26.2347614 34.821508,26.0671477 34.6068489,25.8562386 C34.3921898,25.6454432 34.2201443,25.3914659 34.1037807,25.1140795 C33.9873034,24.8365795 33.9268489,24.5358977 33.9268489,24.2349886 C33.9268489,23.9340795 33.9873034,23.6333977 34.1037807,23.3558977 C34.2201443,23.0783977 34.3921898,22.8245341 34.6068489,22.613625 C34.821508,22.4028295 35.0784398,22.2352159 35.3579852,22.1238523 C35.637417,22.012375 35.9392352,21.9572614 36.2400307,21.9626023 L41.6608261,21.9626023 L41.6608261,16.5418068 C41.656508,16.2387386 41.713667,15.9349886 41.8276443,15.6543068 C41.9417352,15.3735114 42.1126443,15.1160114 42.3269625,14.9018068 C42.5413943,14.6876023 42.7991216,14.5169205 43.079917,14.4031705 C43.3608261,14.2893068 43.6646898,14.2324886 43.9676443,14.2371477 L43.9676443,14.2371477 Z" id="Path"></path>
                <path d="M34.6721898,0.0326022727 C34.9694625,0.0371477273 35.2658261,0.100556818 35.5387807,0.218397727 C35.8117352,0.336238636 36.061167,0.508284091 36.2683261,0.721579545 C36.4754852,0.934875 36.6401443,1.18930682 36.7500307,1.46567045 C36.8598034,1.74192045 36.9146898,2.03998864 36.9104852,2.33726136 L36.9104852,4.50805682 L39.0809398,4.50805682 C39.3817352,4.502375 39.6835534,4.55782955 39.9629852,4.66930682 C40.2425307,4.78067045 40.4994625,4.94828409 40.7141216,5.15907955 C40.9287807,5.36998864 41.1008261,5.62385227 41.2171898,5.90135227 C41.333667,6.17885227 41.3941216,6.47953409 41.3941216,6.78044318 C41.3941216,7.08135227 41.333667,7.38203409 41.2171898,7.65953409 C41.1008261,7.93692045 40.9287807,8.19089773 40.7141216,8.40169318 C40.4994625,8.61260227 40.2425307,8.78021591 39.9629852,8.89157955 C39.6835534,9.00305682 39.3817352,9.05817045 39.0809398,9.05282955 L36.9104852,9.05282955 L36.9104852,11.2122614 C36.9142352,11.5120341 36.8578716,11.8126023 36.7457125,12.0906705 C36.6335534,12.3687386 36.4657125,12.6241932 36.254917,12.8376023 C36.0442352,13.0508977 35.7908261,13.2219205 35.5142352,13.3376023 C35.2375307,13.4531705 34.937758,13.5132841 34.6378716,13.5132841 C34.3380989,13.5132841 34.0383261,13.4531705 33.7616216,13.3376023 C33.4850307,13.2219205 33.2316216,13.0508977 33.0209398,12.8376023 C32.8101443,12.6241932 32.6423034,12.3687386 32.5301443,12.0906705 C32.4179852,11.8126023 32.3616216,11.5120341 32.3653716,11.2122614 L32.3653716,9.05282955 L30.2059398,9.05282955 C29.9051443,9.05851136 29.6033261,9.00305682 29.3238943,8.89157955 C29.0443489,8.78021591 28.787417,8.61260227 28.572758,8.40169318 C28.3580989,8.19089773 28.1860534,7.93692045 28.0696898,7.65953409 C27.9532125,7.38203409 27.892758,7.08135227 27.892758,6.78044318 C27.892758,6.47953409 27.9532125,6.17885227 28.0696898,5.90135227 C28.1860534,5.62385227 28.3580989,5.36998864 28.572758,5.15907955 C28.787417,4.94828409 29.0443489,4.78067045 29.3238943,4.66930682 C29.6033261,4.55782955 29.9051443,4.50271591 30.2059398,4.50805682 L32.3653716,4.50805682 L32.3653716,2.33726136 C32.3610534,2.03419318 32.4182125,1.73044318 32.5321898,1.44976136 C32.6462807,1.16896591 32.8171898,0.911465909 33.031508,0.697261364 C33.2459398,0.483056818 33.503667,0.312375 33.7844625,0.198625 C34.0653716,0.0847613636 34.3692352,0.0279431818 34.6721898,0.0326022727 L34.6721898,0.0326022727 Z" id="Path"></path>
                <path d="M53.2630989,0.0326022727 C53.5603716,0.0371477273 53.8567352,0.100556818 54.1296898,0.218397727 C54.4026443,0.336238636 54.6520761,0.508284091 54.8592352,0.721579545 C55.0663943,0.934875 55.2310534,1.18930682 55.3409398,1.46567045 C55.4507125,1.74192045 55.5055989,2.03998864 55.5013943,2.33726136 L55.5013943,4.50805682 L57.6718489,4.50805682 C57.9726443,4.502375 58.2744625,4.55782955 58.5538943,4.66930682 C58.8334398,4.78067045 59.0903716,4.94828409 59.3050307,5.15907955 C59.5196898,5.36998864 59.6917352,5.62385227 59.8080989,5.90135227 C59.9245761,6.17885227 59.9850307,6.47953409 59.9850307,6.78044318 C59.9850307,7.08135227 59.9245761,7.38203409 59.8080989,7.65953409 C59.6917352,7.93692045 59.5196898,8.19089773 59.3050307,8.40169318 C59.0903716,8.61260227 58.8334398,8.78021591 58.5538943,8.89157955 C58.2744625,9.00305682 57.9726443,9.05817045 57.6718489,9.05282955 L55.5013943,9.05282955 L55.5013943,11.2122614 C55.5051443,11.5120341 55.4487807,11.8126023 55.3366216,12.0906705 C55.2244625,12.3687386 55.0566216,12.6241932 54.8458261,12.8376023 C54.6351443,13.0508977 54.3817352,13.2219205 54.1051443,13.3376023 C53.8284398,13.4531705 53.528667,13.5132841 53.2287807,13.5132841 C52.929008,13.5132841 52.6292352,13.4531705 52.3525307,13.3376023 C52.0759398,13.2219205 51.8225307,13.0508977 51.6118489,12.8376023 C51.4010534,12.6241932 51.2332125,12.3687386 51.1210534,12.0906705 C51.0088943,11.8126023 50.9525307,11.5120341 50.9562807,11.2122614 L50.9562807,9.05282955 L48.7968489,9.05282955 C48.4960534,9.05851136 48.1942352,9.00305682 47.9148034,8.89157955 C47.635258,8.78021591 47.3783261,8.61260227 47.163667,8.40169318 C46.949008,8.19089773 46.7769625,7.93692045 46.6605989,7.65953409 C46.5441216,7.38203409 46.483667,7.08135227 46.483667,6.78044318 C46.483667,6.47953409 46.5441216,6.17885227 46.6605989,5.90135227 C46.7769625,5.62385227 46.949008,5.36998864 47.163667,5.15907955 C47.3783261,4.94828409 47.635258,4.78067045 47.9148034,4.66930682 C48.1942352,4.55782955 48.4960534,4.50271591 48.7968489,4.50805682 L50.9562807,4.50805682 L50.9562807,2.33726136 C50.9519625,2.03419318 51.0091216,1.73044318 51.1230989,1.44976136 C51.2371898,1.16896591 51.4080989,0.911465909 51.622417,0.697261364 C51.8368489,0.483056818 52.0945761,0.312375 52.3753716,0.198625 C52.6562807,0.0847613636 52.9601443,0.0279431818 53.2630989,0.0326022727 L53.2630989,0.0326022727 Z" id="Path"></path>
            </g>
        </g>
    </g>
</svg>