<?xml version="1.0" encoding="UTF-8"?>
<svg width="100px" height="100px" viewBox="0 0 100 100" version="1.1" xmlns="http://www.w3.org/2000/svg" xmlns:xlink="http://www.w3.org/1999/xlink">
    <!-- Generator: Sketch 61.1 (89650) - https://sketch.com -->
    <title>Current position</title>
    <desc>Created with Sketch.</desc>
    <g id="Page-1" stroke="none" stroke-width="1" fill="none" fill-rule="evenodd">
        <g id="Current-position" fill="#828FA6" fill-rule="nonzero">
            <path d="M96.2452471,14.2585551 L71.2927757,14.2585551 L71.2927757,3.56463878 C71.2927757,1.59594314 69.6968325,0 67.7281369,0 L32.081749,0 C30.1130534,0 28.5171103,1.59594314 28.5171103,3.56463878 L28.5171103,14.2585551 L3.56463878,14.2585551 C1.59594314,14.2585551 0,15.8544983 0,17.8231939 L0,81.986692 C0,83.9553877 1.59594314,85.5513308 3.56463878,85.5513308 L35.6463878,85.5513308 C35.6314065,86.4937392 35.9902736,87.4037236 36.6444867,88.0822243 L47.338403,98.7761407 C48.0077231,99.4509719 48.9188301,99.8305549 49.8692966,99.8305549 C50.8197631,99.8305549 51.73087,99.4509719 52.4001901,98.7761407 L63.0941065,88.0822243 C63.7744379,87.4153822 64.1595434,86.5039659 64.1634981,85.5513308 L96.2452471,85.5513308 C98.2139428,85.5513308 99.8098859,83.9553877 99.8098859,81.986692 L99.8098859,17.8231939 C99.8098859,15.8544983 98.2139428,14.2585551 96.2452471,14.2585551 Z M35.6463878,7.12927757 L64.1634981,7.12927757 L64.1634981,14.2585551 L35.6463878,14.2585551 L35.6463878,7.12927757 Z M92.6806084,78.4220532 L61.4187262,78.4220532 L53.8260456,60.5988593 L63.7713878,40.7081749 C64.2778186,39.6143754 64.1971857,38.3387325 63.5570588,37.3174064 C62.9169319,36.2960804 61.804026,35.6674255 60.5988593,35.6463878 L39.2110266,35.6463878 C37.975547,35.6501267 36.8301024,36.2933419 36.1838037,37.3463005 C35.537505,38.3992591 35.4825241,39.7117933 36.0384981,40.8151141 L45.9838403,60.5988593 L38.3911597,78.4220532 L7.12927757,78.4220532 L7.12927757,21.3878327 L92.6806084,21.3878327 L92.6806084,78.4220532 Z" id="Shape"></path>
        </g>
    </g>
</svg>