<?xml version="1.0" encoding="UTF-8"?>
<svg width="89px" height="101px" viewBox="0 0 89 101" version="1.1" xmlns="http://www.w3.org/2000/svg" xmlns:xlink="http://www.w3.org/1999/xlink">
    <!-- Generator: Sketch 61.1 (89650) - https://sketch.com -->
    <title>why</title>
    <desc>Created with Sketch.</desc>
    <g id="Page-1" stroke="none" stroke-width="1" fill="none" fill-rule="evenodd">
        <g id="why" transform="translate(1.000000, 1.000000)" fill="#828FA6" fill-rule="nonzero" stroke="#828FA6">
            <path d="M33.2663078,40.5356121 C29.4160407,43.1537937 34.3443826,42.537751 18.3272714,49.1602104 C14.3229936,50.854328 11.3967906,54.5505844 10.6267372,58.8628835 L7.70053422,58.8628835 C6.00641669,58.8628835 4.62032053,60.2489797 4.62032053,61.9430972 L4.62032053,95.6714371 L1.69411753,95.6714371 C0.770053422,95.6714371 0.154010684,96.2874798 0.154010684,97.2115439 C0.154010684,98.135608 0.770053422,98.7516508 1.69411753,98.7516508 C25.873795,98.7516508 60.3721882,98.7516508 84.5518657,98.7516508 C85.4759298,98.7516508 86.0919725,98.135608 86.0919725,97.2115439 C86.0919725,96.2874798 85.4759298,95.6714371 84.5518657,95.6714371 L81.6256627,95.6714371 L81.6256627,61.9430972 C81.6256627,60.2489797 80.2395665,58.8628835 78.545449,58.8628835 L75.619246,58.8628835 C74.8491926,54.5505844 72.0770003,50.854328 67.9187118,49.1602104 C51.4395686,42.2297296 56.9839532,42.9997831 53.4417075,40.5356121 L53.4417075,31.9110138 C55.7518677,28.5227787 56.9839532,25.442565 57.1379639,24.8265223 C62.5283378,14.3537958 60.5261989,3.88106924 48.9753976,0.800855558 C39.1187138,-1.81732607 18.6352928,2.80299445 29.5700514,23.9024582 C29.7240621,24.5185009 30.9561475,27.7527253 33.2663078,31.4489817 L33.2663078,40.5356121 Z M54.2117609,23.9024582 C52.3636327,28.8308001 48.8213869,35.1452382 43.431013,34.9912275 C38.1946497,34.9912275 34.1903719,28.0607467 32.4962544,23.2864155 C33.1122971,19.8981804 35.7304788,16.201924 39.1187138,16.201924 C42.1989275,16.201924 45.4331519,18.3580736 45.7411732,18.8201056 C46.0491946,19.2821377 46.5112267,19.4361484 46.9732587,19.4361484 C47.4352908,19.4361484 47.8973228,19.2821377 48.2053442,18.9741163 L51.2855579,15.5858813 C52.671654,16.8179667 54.9818143,19.590159 54.2117609,23.9024582 Z M43.1229916,43.4618151 L36.3465215,40.2275907 L36.3465215,35.2992488 C38.1946497,36.9933664 40.8128313,38.0714412 43.431013,38.0714412 C43.431013,38.0714412 43.431013,38.0714412 43.431013,38.0714412 C45.8951839,38.0714412 48.3593549,37.1473771 50.2074831,35.6072702 L50.2074831,40.2275907 L43.1229916,43.4618151 Z M35.114436,43.1537937 L40.8128313,45.9259861 L37.7326177,50.854328 L32.6502651,45.463954 L35.114436,43.1537937 Z M78.545449,95.6714371 L7.70053422,95.6714371 L7.70053422,61.9430972 C22.947592,61.9430972 -3.85026711,61.9430972 78.6994597,61.9430972 L78.545449,95.6714371 Z M72.5390323,58.8628835 L13.7069509,58.8628835 C14.4770043,55.7826699 16.4791432,53.3184989 19.4053462,52.0864134 C24.1796774,50.0842745 28.3379659,48.0821356 30.1860941,47.1580715 L36.8085535,54.3965737 C37.4245963,55.1666271 38.6566818,55.0126164 39.2727245,54.242563 L42.9689809,48.2361463 L46.6652373,54.242563 C47.1272694,55.1666271 48.3593549,55.1666271 49.1294083,54.3965737 L55.7518677,47.1580715 C57.5999959,48.0821356 61.7582844,50.0842745 66.5326156,52.0864134 C69.76684,53.3184989 71.7689789,55.7826699 72.5390323,58.8628835 Z M48.3593549,50.7003173 L45.2791412,45.9259861 L51.4395686,43.1537937 L53.4417075,45.3099433 L48.3593549,50.7003173 Z M29.8780728,10.349518 C33.2663078,0.184812821 60.2181776,-0.893261969 56.5219211,17.4340095 C55.4438464,15.1238492 51.7475899,10.5035287 49.8994617,12.5056676 L46.9732587,15.8939026 C40.8128313,11.4275928 34.0363612,12.3516569 30.6481262,19.128127 C29.4160407,15.5858813 29.1080193,12.6596783 29.8780728,10.349518 Z" id="Shape" stroke-width="1.88999987"></path>
            <path d="M62.3743271,77.190155 L52.209622,77.190155 C51.4395686,72.8778558 47.7433121,69.4896208 43.1229916,69.4896208 C38.5026711,69.4896208 34.8064147,72.8778558 34.0363612,77.190155 L23.2556133,77.190155 C22.3315492,77.190155 21.7155065,77.8061977 21.7155065,78.7302618 C21.7155065,79.6543259 22.3315492,80.2703687 23.2556133,80.2703687 L34.0363612,80.2703687 C34.8064147,84.5826678 38.5026711,87.9709029 43.1229916,87.9709029 C47.7433121,87.9709029 51.4395686,84.5826678 52.209622,80.2703687 L62.3743271,80.2703687 C63.2983913,80.2703687 63.914434,79.6543259 63.914434,78.7302618 C63.914434,77.9602084 63.2983913,77.190155 62.3743271,77.190155 Z M43.1229916,84.8906892 C39.7347566,84.8906892 36.9625642,82.1184969 36.9625642,78.7302618 C36.9625642,75.3420268 39.7347566,72.5698344 43.1229916,72.5698344 C46.5112267,72.5698344 49.283419,75.3420268 49.283419,78.7302618 C49.283419,82.1184969 46.5112267,84.8906892 43.1229916,84.8906892 Z" id="Shape" stroke-width="1.07999992"></path>
        </g>
    </g>
</svg>