<?xml version="1.0" encoding="UTF-8"?>
<svg width="99px" height="94px" viewBox="0 0 99 94" version="1.1" xmlns="http://www.w3.org/2000/svg" xmlns:xlink="http://www.w3.org/1999/xlink">
    <!-- Generator: Sketch 61.1 (89650) - https://sketch.com -->
    <title>The Book</title>
    <desc>Created with Sketch.</desc>
    <g id="Page-1" stroke="none" stroke-width="1" fill="none" fill-rule="evenodd">
        <g id="The-Book" transform="translate(1.000000, 0.000000)" fill="#8592A8" fill-rule="nonzero">
            <path d="M2.0327619,1.01485714 C0.911238095,1.01485714 -6.49639073e-13,1.92304762 -6.49639073e-13,3.04457143 L-6.49639073e-13,76.1874286 C-6.49639073e-13,77.312 0.911238095,78.2201905 2.0327619,78.2201905 L35.7790476,78.2201905 C38.5645714,78.2201905 41.3592381,78.8693333 43.8613333,80.1005714 L47.8628571,82.072381 C48.1493333,82.2125714 48.4540952,82.2826667 48.7619048,82.2826667 C49.0514286,82.2826667 49.3409524,82.2217143 49.6091429,82.0967619 L54.4213333,79.8872381 C56.8350476,78.7809524 59.4011429,78.2201905 62.055619,78.2201905 L95.4940952,78.2201905 C96.615619,78.2201905 97.5268571,77.312 97.5268571,76.1874286 L97.5268571,3.04457143 C97.5268571,1.92 96.615619,1.01180952 95.4940952,1.01180952 L61.0224762,1.01180952 C56.6582857,1.01180952 52.4251429,2.27657143 48.7710476,4.66895238 C45.12,2.27657143 40.8868571,1.01180952 36.519619,1.01180952 L2.0327619,1.01485714 Z M6.0952381,5.08038095 L37.5344762,5.08038095 C41.5420952,5.08038095 45.4186667,6.21714286 48.7649524,8.37180952 C52.1142857,6.21714286 55.9969524,5.08038095 59.9984762,5.08038095 L91.4285714,5.08038095 C92.5500952,5.08038095 93.4613333,5.99161905 93.4613333,7.11314286 L93.4613333,72.536381 C93.4613333,73.6579048 92.5500952,74.5691429 91.4285714,74.5691429 L57.28,74.5691429 L49.5390476,78.0586667 C49.2921905,78.1714286 49.0270476,78.2262857 48.7619048,78.2262857 C48.4784762,78.2262857 48.1980952,78.1622857 47.9390476,78.0373333 L40.7740952,74.5691429 L6.0952381,74.5691429 C4.97371429,74.5691429 4.06247619,73.6579048 4.06247619,72.536381 L4.06247619,7.11314286 C4.06247619,5.99161905 4.97371429,5.08038095 6.0952381,5.08038095 L6.0952381,5.08038095 Z" id="Shape" stroke="#8592A8" stroke-width="0.8"></path>
            <polygon id="Path" stroke="#8592A8" stroke-width="0.5" points="46.7291429 18.919619 46.7291429 22.9820952 50.791619 22.9820952 50.791619 18.919619"></polygon>
            <polygon id="Path" stroke="#8592A8" stroke-width="0.5" points="46.7291429 28.5714286 46.7291429 32.6339048 50.791619 32.6339048 50.791619 28.5714286"></polygon>
            <polygon id="Path" stroke="#8592A8" stroke-width="0.5" points="46.7291429 37.1428571 46.7291429 41.2053333 50.791619 41.2053333 50.791619 37.1428571"></polygon>
            <polygon id="Path" stroke="#8592A8" stroke-width="0.5" points="46.7291429 45.7142857 46.7291429 49.7767619 50.791619 49.7767619 50.791619 45.7142857"></polygon>
            <polygon id="Path" stroke="#8592A8" stroke-width="0.5" points="46.7291429 54.2857143 46.7291429 58.3481905 50.791619 58.3481905 50.791619 54.2857143"></polygon>
            <polygon id="Path" stroke="#8592A8" stroke-width="0.5" points="46.7291429 62.8571429 46.7291429 66.919619 50.791619 66.919619 50.791619 62.8571429"></polygon>
            <path d="M38.501689,21.669024 L10.0697396,21.669024 C9.24207257,21.669024 8.57142857,20.6560679 8.57142857,19.4059406 C8.57142857,18.1558133 9.24207257,17.1428571 10.0697396,17.1428571 L38.501689,17.1428571 C39.329356,17.1428571 40,18.1558133 40,19.4059406 C40,20.6560679 39.329356,21.669024 38.501689,21.669024 Z" id="Path"></path>
            <path d="M38.501689,33.0975955 L10.0697396,33.0975955 C9.24207257,33.0975955 8.57142857,32.0846393 8.57142857,30.834512 C8.57142857,29.5843847 9.24207257,28.5714286 10.0697396,28.5714286 L38.501689,28.5714286 C39.329356,28.5714286 40,29.5843847 40,30.834512 C40,32.0846393 39.329356,33.0975955 38.501689,33.0975955 Z" id="Path"></path>
            <path d="M-7.81597009e-13,77.3958095 L-7.81597009e-13,87.1725714 C-7.81597009e-13,88.2971429 0.911238095,89.2053333 2.0327619,89.2053333 L36.5165714,89.2053333 C40.1371429,89.2053333 43.6449524,90.2659048 46.6620952,92.2773333 L47.640381,92.9264762 C47.9817143,93.1550476 48.3748571,93.2678095 48.7649524,93.2678095 C49.1550476,93.2678095 49.5481905,93.1550476 49.8895238,92.9264762 L50.8678095,92.2773333 C53.8819048,90.2659048 57.3866667,89.2053333 61.0102857,89.2053333 L95.4940952,89.2053333 C96.615619,89.2053333 97.5268571,88.2971429 97.5268571,87.1725714 L97.5268571,77.3958095 L93.464381,77.3958095 L93.464381,85.1398095 L61.0133333,85.1398095 C56.6430476,85.1398095 52.4129524,86.4045714 48.7649524,88.7969524 C45.1169524,86.4045714 40.8868571,85.1398095 36.5165714,85.1398095 L4.06552381,85.1398095 L4.06552381,77.3958095 L-7.81597009e-13,77.3958095 Z" id="Path" stroke="#8592A8" stroke-width="0.8"></path>
        </g>
    </g>
</svg>