<?xml version="1.0" encoding="UTF-8"?>
<svg width="83px" height="101px" viewBox="0 0 83 101" version="1.1" xmlns="http://www.w3.org/2000/svg" xmlns:xlink="http://www.w3.org/1999/xlink">
    <!-- Generator: Sketch 61.1 (89650) - https://sketch.com -->
    <title>Patent</title>
    <desc>Created with Sketch.</desc>
    <g id="Page-1" stroke="none" stroke-width="1" fill="none" fill-rule="evenodd">
        <g id="Patent" fill="#8592A8" fill-rule="nonzero">
            <path d="M79.0374382,99.9940594 C79.0309399,99.9940594 79.0222756,99.9940594 79.0157773,99.9940594 L3.20266081,99.9940594 C1.70697632,99.9940594 0.495049505,98.8871287 0.495049505,97.519802 L0.495049505,3.47029703 C0.495049505,2.1039604 1.70697632,0.995049505 3.20266081,0.995049505 L79.008196,0.984158416 C79.7262545,0.984158416 80.4150708,1.24455446 80.9230187,1.70891089 C81.4309666,2.17326733 81.7158073,2.8029703 81.7158073,3.45940594 L81.7233886,97.2049505 C81.7385512,97.3079208 81.7450495,97.4138614 81.7450495,97.519802 C81.7450495,98.8871287 80.5320396,99.9940594 79.0374382,99.9940594 Z M5.44554455,95.0445545 L77.3205446,95.0445545 L77.3116984,5.93564356 L5.44554455,5.94455446 L5.44554455,95.0445545 Z" id="Shape" stroke="#8592A8" stroke-width="0.6"></path>
            <g id="Group" transform="translate(10.891089, 16.831683)">
                <path d="M50.2178218,4.95346535 L3.24752475,4.95346535 C1.88019802,4.95346535 0.772277228,3.84554455 0.772277228,2.47821782 C0.772277228,1.11089109 1.88019802,0.00297029703 3.24752475,0.00297029703 L50.2178218,0.00297029703 C51.5851485,0.00297029703 52.6930693,1.11089109 52.6930693,2.47821782 C52.6930693,3.84554455 51.5851485,4.95346535 50.2178218,4.95346535 Z" id="Path"></path>
                <path d="M34.3465347,16.5861386 L3.24752475,16.5861386 C1.88019802,16.5861386 0.772277228,15.4782178 0.772277228,14.1108911 C0.772277228,12.7445545 1.88019802,11.6356436 3.24752475,11.6356436 L34.3465347,11.6356436 C35.7138614,11.6356436 36.8217822,12.7435644 36.8217822,14.1108911 C36.8217822,15.4782178 35.7138614,16.5861386 34.3465347,16.5861386 Z" id="Path"></path>
            </g>
            <g id="Group" transform="translate(26.887376, 42.574257)">
                <path d="M20.9009901,32.7693069 C12.1069307,32.7693069 4.95346535,25.6168317 4.95346535,16.8247525 C4.95346535,8.03168317 12.1079208,0.879207921 20.9009901,0.879207921 C29.6940594,0.879207921 36.8465347,8.03267327 36.8465347,16.8247525 C36.8475248,25.6168317 29.6940594,32.7693069 20.9009901,32.7693069 Z M20.9009901,5.82871287 C14.8366337,5.82871287 9.9039604,10.7613861 9.9039604,16.8247525 C9.9039604,22.8871287 14.8376238,27.8188119 20.9009901,27.8188119 C26.9643564,27.8188119 31.8960398,22.8871287 31.8960398,16.8247525 C31.8970297,10.7613861 26.9643564,5.82871287 20.9009901,5.82871287 Z" id="Shape"></path>
                <g transform="translate(0.000000, 22.772277)" id="Path">
                    <path d="M13.4118812,24.8960396 C13.0178218,24.8960396 12.6178218,24.8019802 12.2455446,24.6029703 L1.46534653,18.8336634 C0.883168317,18.5227723 0.448514851,17.990099 0.26039604,17.3574257 C0.0722772277,16.7237624 0.144554455,16.0435644 0.461386139,15.4633663 L7.94653465,1.7970297 C8.6029703,0.598019802 10.1079208,0.157425743 11.3069307,0.815841584 C12.5059406,1.47227723 12.9455446,2.97722772 12.2891089,4.17623762 L6.0039604,15.649505 L12.419802,19.0821782 L18.729703,7.56633663 C19.3861386,6.36534653 20.8920792,5.92772277 22.090099,6.58514851 C23.2891089,7.24158416 23.7277228,8.74554455 23.0712871,9.94455446 L15.5841584,23.609901 C15.1346535,24.4306931 14.2871287,24.8960396 13.4118812,24.8960396 Z"></path>
                    <path d="M28.3881188,24.8960396 C27.5128713,24.8960396 26.6653465,24.4306931 26.2158416,23.609901 L18.729703,9.94356436 C18.0732673,8.74455446 18.5118812,7.24158416 19.7108911,6.58415842 C20.9079208,5.92673267 22.4138614,6.36435644 23.0712871,7.56534653 L29.3792079,19.0811881 L35.7950495,15.6485149 L29.509901,4.17524752 C28.8534653,2.97623762 29.2920792,1.47227723 30.4910891,0.814851485 C31.6881188,0.157425743 33.1940594,0.596039604 33.8514851,1.7960396 L41.3376238,15.4623762 C41.6554455,16.0425743 41.7287129,16.7227723 41.539604,17.3564356 C41.350495,17.990099 40.9168317,18.5217822 40.3346535,18.8326733 L29.5544554,24.6029703 C29.1821782,24.8019802 28.7821782,24.8960396 28.3881188,24.8960396 Z"></path>
                </g>
            </g>
        </g>
    </g>
</svg>