<?xml version="1.0" encoding="UTF-8"?>
<svg width="81px" height="100px" viewBox="0 0 81 100" version="1.1" xmlns="http://www.w3.org/2000/svg" xmlns:xlink="http://www.w3.org/1999/xlink">
    <!-- Generator: Sketch 61.1 (89650) - https://sketch.com -->
    <title>Features</title>
    <desc>Created with Sketch.</desc>
    <g id="Page-1" stroke="none" stroke-width="1" fill="none" fill-rule="evenodd">
        <g id="Features" transform="translate(1.000000, 0.000000)" fill="#828FA6" fill-rule="nonzero">
            <g id="Group">
                <g>
                    <path d="M25.8333333,33.75 C25.5208333,33.75 25.2083333,33.5416667 25.1041667,33.2291667 L23.75,30 C23.4375,29.2708333 22.5,29.2708333 22.1875,30 L20.8333333,33.2291667 C20.7291667,33.5416667 20.4166667,33.75 20.1041667,33.75 L16.6666667,34.0625 C15.9375,34.1666667 15.625,35.1041667 16.1458333,35.5208333 L18.8541667,37.8125 C19.0625,38.0208333 19.1666667,38.3333333 19.1666667,38.6458333 L18.3333333,42.0833333 C18.125,42.8125 18.9583333,43.4375 19.5833333,43.0208333 L22.6041667,41.25 C22.9166667,41.0416667 23.2291667,41.0416667 23.5416667,41.25 L26.5625,43.0208333 C27.1875,43.4375 28.0208333,42.8125 27.8125,42.0833333 L26.9791667,38.6458333 C26.875,38.3333333 26.9791667,38.0208333 27.2916667,37.8125 L30,35.5208333 C30.625,35 30.3125,34.0625 29.4791667,34.0625 L25.8333333,33.75 Z" id="Path"></path>
                    <path d="M60.625,34.7916667 L36.4583333,34.7916667 C34.8958333,34.7916667 33.6458333,36.0416667 33.6458333,37.6041667 C33.6458333,39.1666667 34.8958333,40.4166667 36.4583333,40.4166667 L60.5208333,40.4166667 C62.0833333,40.4166667 63.3333333,39.1666667 63.3333333,37.6041667 C63.4375,36.0416667 62.1875,34.7916667 60.625,34.7916667 Z" id="Path"></path>
                    <path d="M25.8333333,53.3333333 C25.5208333,53.3333333 25.2083333,53.125 25.1041667,52.8125 L23.75,49.5833333 C23.4375,48.8541667 22.5,48.8541667 22.1875,49.5833333 L20.8333333,52.8125 C20.7291667,53.125 20.4166667,53.3333333 20.1041667,53.3333333 L16.6666667,53.6458333 C15.9375,53.75 15.625,54.6875 16.1458333,55.1041667 L18.8541667,57.3958333 C19.0625,57.6041667 19.1666667,57.9166667 19.1666667,58.2291667 L18.3333333,61.6666667 C18.125,62.3958333 18.9583333,63.0208333 19.5833333,62.6041667 L22.6041667,60.7291667 C22.9166667,60.5208333 23.2291667,60.5208333 23.5416667,60.7291667 L26.5625,62.6041667 C27.1875,63.0208333 28.0208333,62.3958333 27.8125,61.6666667 L26.875,58.3333333 C26.7708333,58.0208333 26.875,57.7083333 27.1875,57.5 L29.8958333,55.2083333 C30.5208333,54.6875 30.2083333,53.75 29.375,53.75 L25.8333333,53.3333333 Z" id="Path"></path>
                    <path d="M60.625,54.375 L36.4583333,54.375 C34.8958333,54.375 33.6458333,55.625 33.6458333,57.1875 C33.6458333,58.75 34.8958333,60 36.4583333,60 L60.5208333,60 C62.0833333,60 63.3333333,58.75 63.3333333,57.1875 C63.4375,55.625 62.1875,54.375 60.625,54.375 Z" id="Path"></path>
                    <path d="M25.8333333,73.0208333 C25.5208333,73.0208333 25.2083333,72.8125 25.1041667,72.5 L23.75,69.2708333 C23.4375,68.5416667 22.5,68.5416667 22.1875,69.2708333 L20.8333333,72.5 C20.7291667,72.8125 20.4166667,73.0208333 20.1041667,73.0208333 L16.6666667,73.2291667 C15.9375,73.3333333 15.625,74.2708333 16.1458333,74.6875 L18.75,77.0833333 C18.9583333,77.2916667 19.0625,77.6041667 19.0625,77.9166667 L18.2291667,81.3541667 C18.0208333,82.0833333 18.8541667,82.7083333 19.4791667,82.2916667 L22.5,80.5208333 C22.8125,80.3125 23.125,80.3125 23.4375,80.5208333 L26.4583333,82.3958333 C27.0833333,82.8125 27.9166667,82.1875 27.7083333,81.4583333 L26.875,78.0208333 C26.7708333,77.7083333 26.875,77.3958333 27.1875,77.1875 L29.8958333,74.8958333 C30.5208333,74.375 30.2083333,73.4375 29.375,73.4375 L25.8333333,73.0208333 Z" id="Path"></path>
                    <path d="M60.625,73.9583333 L36.4583333,73.9583333 C34.8958333,73.9583333 33.6458333,75.2083333 33.6458333,76.7708333 C33.6458333,78.3333333 34.8958333,79.5833333 36.4583333,79.5833333 L60.5208333,79.5833333 C62.0833333,79.5833333 63.3333333,78.3333333 63.3333333,76.7708333 C63.4375,75.3125 62.1875,73.9583333 60.625,73.9583333 Z" id="Path"></path>
                    <path d="M74.5833333,7.08333333 L61.3541667,7.08333333 L61.3541667,3.33333333 C61.3541667,1.77083333 60.1041667,0.520833333 58.5416667,0.520833333 C56.9791667,0.520833333 55.7291667,1.77083333 55.7291667,3.33333333 L55.7291667,7.08333333 L42.3958333,7.08333333 L42.3958333,3.33333333 C42.3958333,1.77083333 41.1458333,0.520833333 39.5833333,0.520833333 C38.0208333,0.520833333 36.7708333,1.77083333 36.7708333,3.33333333 L36.7708333,7.08333333 L23.4375,7.08333333 L23.4375,3.33333333 C23.4375,1.77083333 22.1875,0.520833333 20.625,0.520833333 C19.0625,0.520833333 17.8125,1.77083333 17.8125,3.33333333 L17.8125,7.08333333 L4.58333333,7.08333333 C2.08333333,7.08333333 -1.85037171e-15,9.16666667 -1.85037171e-15,11.6666667 L-1.85037171e-15,94.8958333 C-1.85037171e-15,97.3958333 2.08333333,99.4791667 4.58333333,99.4791667 L74.5833333,99.4791667 C77.0833333,99.4791667 79.1666667,97.3958333 79.1666667,94.8958333 L79.1666667,11.6666667 C79.1666667,9.16666667 77.0833333,7.08333333 74.5833333,7.08333333 Z M73.5416667,93.8541667 L5.625,93.8541667 L5.625,12.7083333 L17.8125,12.7083333 L17.8125,16.4583333 C17.8125,18.0208333 19.0625,19.2708333 20.625,19.2708333 C22.1875,19.2708333 23.4375,18.0208333 23.4375,16.4583333 L23.4375,12.7083333 L36.7708333,12.7083333 L36.7708333,16.4583333 C36.7708333,18.0208333 38.0208333,19.2708333 39.5833333,19.2708333 C41.1458333,19.2708333 42.3958333,18.0208333 42.3958333,16.4583333 L42.3958333,12.7083333 L55.7291667,12.7083333 L55.7291667,16.4583333 C55.7291667,18.0208333 56.9791667,19.2708333 58.5416667,19.2708333 C60.1041667,19.2708333 61.3541667,18.0208333 61.3541667,16.4583333 L61.3541667,12.7083333 L73.5416667,12.7083333 L73.5416667,93.8541667 L73.5416667,93.8541667 Z" id="Shape" stroke="#828FA6" stroke-width="0.3"></path>
                </g>
            </g>
        </g>
    </g>
</svg>