<svg xmlns="http://www.w3.org/2000/svg" xmlns:xlink="http://www.w3.org/1999/xlink" width="29" height="30" viewBox="0 0 29 30">
    <defs>
        <path id="a" d="M0 .7h28.586v13.346H0z"/>
    </defs>
    <g fill="none" fill-rule="evenodd">
        <path fill="#858FA4" d="M20.935 29.3H7.875a4.297 4.297 0 0 1-4.292-4.293V15.66a1.435 1.435 0 1 1 2.871 0v9.348c0 .784.638 1.421 1.421 1.421h13.06c.784 0 1.422-.637 1.422-1.42v-9.35a1.436 1.436 0 0 1 2.871 0v9.35a4.298 4.298 0 0 1-4.293 4.292"/>
        <g transform="translate(.112 .015)">
            <mask id="b" fill="#fff">
                <use xlink:href="#a"/>
            </mask>
            <path fill="#858FA4" d="M27.15 14.046c-.319 0-.64-.106-.907-.323l-11.95-9.735-11.95 9.735A1.437 1.437 0 0 1 .53 11.497L13.386 1.023a1.437 1.437 0 0 1 1.814 0l12.858 10.474a1.437 1.437 0 0 1-.908 2.55" mask="url(#b)"/>
        </g>
    </g>
</svg>
