<?xml version="1.0" encoding="UTF-8"?>
<svg width="101px" height="93px" viewBox="0 0 101 93" version="1.1" xmlns="http://www.w3.org/2000/svg" xmlns:xlink="http://www.w3.org/1999/xlink">
    <!-- Generator: Sketch 61.1 (89650) - https://sketch.com -->
    <title>Process</title>
    <desc>Created with Sketch.</desc>
    <g id="Page-1" stroke="none" stroke-width="1" fill="none" fill-rule="evenodd">
        <g id="Process" transform="translate(1.000000, 1.000000)" fill="#828FA6" fill-rule="nonzero" stroke="#828FA6" stroke-width="0.5">
            <g id="Group">
                <path d="M59.8930481,54.0106952 L59.8930481,44.1176471 L59.8930481,31.2834225 L37.1657754,31.2834225 L37.1657754,39.8395722 L12.8342246,39.8395722 C5.75828877,39.8395722 0,45.597861 0,52.6737968 L0,69.7860963 C0,76.8620321 5.75828877,82.6203209 12.8342246,82.6203209 L56.5009948,82.5851359 L56.5009948,91.1412856 L77.0053476,79.6727798 L56.5009948,68.4140129 L56.5009948,76.9701626 L12.8342246,77.0053476 C8.55614973,77.0053476 5.61497326,72.1475936 5.61497326,69.7860963 L5.61497326,52.6737968 C5.61497326,50.3165775 8.55614973,45.4545455 12.8342246,45.4545455 L37.1657754,45.4545455 L37.1657754,54.0106952 L59.8930481,54.0106952 Z M44.1176471,38.2352941 L52.6737968,38.2352941 L52.6737968,46.7914439 L44.1176471,46.7914439 L44.1176471,38.2352941 Z" id="Shape"></path>
                <path d="M99.7326203,91.1764706 L99.7326203,68.4491979 L77.0053476,68.4491979 L77.0053476,78.342246 L77.0053476,91.1764706 L99.7326203,91.1764706 Z M83.8917452,75.7044175 L92.4233829,75.7044175 L92.4233829,84.6844841 L83.8917452,84.6844841 L83.8917452,75.7044175 Z" id="Shape"></path>
                <path d="M82.6203209,45.4545455 L89.8395722,45.4545455 C96.915508,45.4545455 99.7326203,42.6374332 99.7326203,35.5614973 L99.7326203,18.4491979 C99.7326203,11.373262 96.915508,8.55614973 89.8395722,8.55614973 L25.6684492,8.55614973 L25.6684492,0 L2.94117647,0 L2.94117647,22.7272727 L25.6684492,22.7272727 L25.6684492,14.171123 L89.8395722,14.171123 C92.2010695,14.171123 94.1176471,16.0919786 94.1176471,18.4491979 L94.1176471,35.5614973 C94.1176471,37.9187166 92.2010695,39.8395722 89.8395722,39.8395722 L82.6203209,39.8395722 L82.6203209,31.2834225 L59.9002614,42.513369 L82.6203209,54.0106952 L82.6203209,45.4545455 Z M18.3705049,16.074865 L9.70782112,16.074865 L9.70782112,6.79428998 L18.3705049,6.79428998 L18.3705049,16.074865 Z" id="Shape"></path>
            </g>
        </g>
    </g>
</svg>