<?xml version="1.0" encoding="UTF-8"?>
<svg width="53px" height="100px" viewBox="0 0 53 100" version="1.1" xmlns="http://www.w3.org/2000/svg" xmlns:xlink="http://www.w3.org/1999/xlink">
    <!-- Generator: Sketch 61.1 (89650) - https://sketch.com -->
    <title>Pricing</title>
    <desc>Created with Sketch.</desc>
    <g id="Page-1" stroke="none" stroke-width="1" fill="none" fill-rule="evenodd">
        <g id="Pricing" fill="#828FA6" fill-rule="nonzero">
            <g id="Group">
                <path d="M52.4811214,68.3923706 C53.8959659,54.7683924 43.860179,44.3242507 29.994703,44.3242507 L21.6375117,43.3242507 C15.9781338,43.3242507 11.1676626,38.4196185 11.7336003,32.9700272 C12.2995381,28.0653951 17.8270405,22.5231608 23.2034495,22.5231608 L30.9754853,22.5231608 C34.3711121,22.5231608 38.9178321,25.7029973 39.7667388,28.7002725 C40.0497077,29.5177112 40.6156455,30.0626703 41.7475211,30.0626703 L49.6514325,30.0626703 C50.7833081,30.0626703 51.6322148,29.2452316 51.6322148,28.1553134 C50.5003392,18.6185286 42.5772101,11.9891008 32.3903298,11.4441417 L32.3903298,1.90735695 C32.3903298,0.817438692 31.5414231,0 30.4095475,0 L22.5056361,0 C21.3737606,0 20.5248539,0.817438692 20.5248539,1.90735695 L20.5248539,11.4441417 C8.35719131,13.0790191 0.0192177242,23.7057221 1.15109331,36.239782 C2.2829689,47.9564033 11.3187559,55.6757493 23.7693873,55.6757493 L30.2776719,55.6757493 C35.9370499,55.6757493 41.7475211,61.5803815 41.1815833,67.0299728 C40.6156455,71.9346049 35.0881432,77.4768392 29.7117341,77.4768392 L21.6567294,77.4768392 C18.2611027,77.4768392 13.7143826,73.2970027 12.8654759,70.2997275 C12.582507,69.4822888 11.7336003,68.9373297 10.8846937,68.9373297 L1.98078228,68.9373297 C0.84890669,68.9373297 5.68434189e-14,69.7547684 5.68434189e-14,70.8446866 C1.13187559,80.3814714 9.05500469,87.0108992 19.241885,87.5558583 C19.241885,90.3418105 19.241885,92.2646079 19.241885,93.3242507 C19.241885,94.3838934 19.241885,95.9733576 19.241885,98.0926431 C19.241885,99.1825613 20.0907917,100 21.2226672,100 L31.1265786,100 C32.2584542,100 33.1073609,99.1825613 33.1073609,98.0926431 L33.1073609,87.2833787 C43.5772101,85.6485014 51.3492459,78.746594 52.4811214,68.3923706 Z" id="Path"></path>
            </g>
        </g>
    </g>
</svg>