<svg xmlns="http://www.w3.org/2000/svg" xmlns:xlink="http://www.w3.org/1999/xlink" width="35" height="29" viewBox="0 0 35 29">
    <defs>
        <path id="a" d="M0 .299h34.298v22.706H0z"/>
        <path id="c" d="M.239.456h14.743v7.698H.239z"/>
    </defs>
    <g fill="none" fill-rule="evenodd">
        <g transform="translate(.5 5.717)">
            <mask id="b" fill="#fff">
                <use xlink:href="#a"/>
            </mask>
            <path fill="#858FA4" d="M4.182 2.543A1.94 1.94 0 0 0 2.245 4.48v14.343a1.94 1.94 0 0 0 1.937 1.937h25.934a1.94 1.94 0 0 0 1.937-1.937V4.48a1.94 1.94 0 0 0-1.937-1.937H4.182zm25.934 20.462H4.182a4.187 4.187 0 0 1-4.181-4.182V4.48A4.186 4.186 0 0 1 4.182.299h25.934a4.186 4.186 0 0 1 4.182 4.18v14.344a4.186 4.186 0 0 1-4.182 4.182z" mask="url(#b)"/>
        </g>
        <g transform="translate(10.038 .106)">
            <mask id="d" fill="#fff">
                <use xlink:href="#c"/>
            </mask>
            <path fill="#858FA4" d="M2.483 5.91h10.255V4.481c0-.983-.8-1.783-1.782-1.783h-6.69c-.983 0-1.783.8-1.783 1.783v1.427zM13.86 8.153H1.36c-.62 0-1.122-.503-1.122-1.122v-2.55A4.031 4.031 0 0 1 4.266.455h6.69a4.03 4.03 0 0 1 4.026 4.027v2.55c0 .62-.502 1.122-1.122 1.122z" mask="url(#d)"/>
        </g>
        <path fill="#858FA4" d="M20.393 17.261a1.122 1.122 0 0 1-.263-2.213l13.264-3.209a1.122 1.122 0 1 1 .528 2.182L20.659 17.23c-.09.021-.178.031-.266.031M14.876 17.259c-.088 0-.177-.01-.266-.032L1.358 14.021a1.122 1.122 0 1 1 .529-2.182l13.252 3.207a1.122 1.122 0 0 1-.263 2.213"/>
        <path fill="#858FA4" d="M16.158 16.676h2.982v-1.092h-2.982v1.092zm3.372 2.245h-3.762a1.857 1.857 0 0 1-1.855-1.855v-1.872c0-1.022.833-1.854 1.855-1.854h3.762c1.023 0 1.855.832 1.855 1.854v1.872a1.857 1.857 0 0 1-1.855 1.855z"/>
    </g>
</svg>
