<svg xmlns="http://www.w3.org/2000/svg" xmlns:xlink="http://www.w3.org/1999/xlink" width="30" height="34" viewBox="0 0 30 34">
    <defs>
        <path id="a" d="M0 33.358h29.06V.312H0z"/>
    </defs>
    <g fill="none" fill-rule="evenodd">
        <path fill="#858FA5" d="M14.81 18.798h4.8v-1.283h-4.8z"/>
        <path fill="#858FA5" d="M15.13 18.477h4.16v-.641h-4.16v.641zm-.641.642h5.442v-1.925h-5.442v1.925zM15.586 20.692h3.248v-1.283h-3.248z"/>
        <path fill="#858FA5" d="M15.907 20.371h2.606v-.641h-2.606v.641zm-.642.642h3.89v-1.925h-3.89v1.925z"/>
        <g transform="translate(.612 .329)">
            <path fill="#858FA5" d="M19.156 16.368H14.04v-.775c0-.924-.261-1.779-.757-2.472a4.048 4.048 0 0 1-.759-2.477c.056-2.09 1.731-3.829 3.816-3.957a4.043 4.043 0 0 1 3.048 1.096 4.088 4.088 0 0 1 1.284 2.97c0 .817-.241 1.606-.698 2.28-.162.241-.302.492-.417.745l-.264.585-1.17-.528.265-.585c.144-.32.32-.635.524-.935a2.782 2.782 0 0 0 .477-1.562c0-.779-.312-1.501-.88-2.035-.567-.532-1.3-.8-2.09-.751a2.806 2.806 0 0 0-2.612 2.71 2.77 2.77 0 0 0 .52 1.698c.558.781.891 1.71.975 2.71h3.854v1.283z"/>
            <path fill="#858FA5" d="M15.59 14.764h3.812l-1.704-.768.397-.878c.151-.335.337-.666.552-.983.275-.409.422-.887.422-1.382a2.45 2.45 0 0 0-.78-1.801 2.428 2.428 0 0 0-1.851-.665 2.482 2.482 0 0 0-2.31 2.399 2.444 2.444 0 0 0 .46 1.502 5.706 5.706 0 0 1 1.002 2.576zm-1.229 1.283h4.474v-.641h-3.828l-.024-.294a5.11 5.11 0 0 0-.917-2.55 3.084 3.084 0 0 1-.579-1.893 3.129 3.129 0 0 1 2.912-3.022 3.094 3.094 0 0 1 2.33.838c.633.594.981 1.4.981 2.268 0 .624-.184 1.226-.532 1.741a5.95 5.95 0 0 0-.498.888l-.132.293.584.264.132-.292c.122-.27.271-.536.445-.793.42-.621.643-1.348.643-2.101 0-1.032-.431-2.03-1.184-2.736a3.716 3.716 0 0 0-2.808-1.01c-1.92.118-3.464 1.72-3.515 3.645-.02.826.22 1.616.698 2.283.535.747.818 1.666.818 2.658v.454zm5.116.642H13.72v-1.096c0-.857-.241-1.647-.698-2.285a4.367 4.367 0 0 1-.818-2.672c.059-2.255 1.867-4.13 4.116-4.27a4.344 4.344 0 0 1 3.288 1.183 4.414 4.414 0 0 1 1.385 3.204c0 .882-.26 1.733-.753 2.46-.153.227-.284.461-.39.698l-.386.853h.013v1.925z"/>
            <mask id="b" fill="#fff">
                <use xlink:href="#a"/>
            </mask>
            <path fill="#858FA5" d="M15.956 5.512h1.283V3.999h-1.283z" mask="url(#b)"/>
            <path fill="#858FA5" d="M16.277 5.191h.642V4.32h-.642v.872zm-.641.642h1.924V3.678h-1.924v2.155zM13.093 6.86L12.2 5.638l1.037-.757.892 1.222z" mask="url(#b)"/>
            <path fill="#858FA5" d="M12.649 5.708l.514.704.518-.379-.514-.704-.518.379zm.375 1.6l-1.271-1.74 1.553-1.135 1.272 1.74-1.554 1.135zM11.563 9.635l-1.438-.47.399-1.22 1.437.471z" mask="url(#b)"/>
            <path fill="#858FA5" d="M10.53 8.96l.827.271.2-.61-.828-.27-.2.61zm1.239 1.08L9.72 9.371l.598-1.83 2.048.67-.597 1.83zM22.675 13.244l-1.44-.467.396-1.22 1.44.467z" mask="url(#b)"/>
            <path fill="#858FA5" d="M21.639 12.57l.83.27.198-.61-.83-.27-.198.61zm1.242 1.078l-2.05-.665.594-1.83 2.05.665-.594 1.83zM10.522 13.244l-.396-1.22 1.438-.468.396 1.22z" mask="url(#b)"/>
            <path fill="#858FA5" d="M10.53 12.23l.199.61.828-.27-.199-.61-.828.27zm-.214 1.418l-.595-1.83 2.05-.666.594 1.83-2.049.666zM21.632 9.635l-.398-1.22 1.44-.469.397 1.22z" mask="url(#b)"/>
            <path fill="#858FA5" d="M21.638 8.62l.2.611.83-.27-.2-.61-.83.27zm-.212 1.42l-.596-1.83 2.05-.668.595 1.83-2.049.667zM20.105 6.86l-1.038-.755.89-1.224 1.038.755z" mask="url(#b)"/>
            <path fill="#858FA5" d="M19.515 6.034l.52.377.511-.705-.518-.377-.513.705zm.66 1.274L18.62 6.176l1.266-1.743 1.556 1.132-1.267 1.743z" mask="url(#b)"/>
            <path fill="#858FA5" d="M13.864 29.15H7.842a3.466 3.466 0 0 1-3.462-3.463v-5.116H.495L4.31 12.08a12.126 12.126 0 0 1 4.135-8.407C10.934 1.484 14.143.418 17.46.669c5.993.455 10.827 5.32 11.244 11.318.168 2.408-.297 4.677-1.342 6.562l-.311.562-1.122-.623.31-.561c.926-1.668 1.335-3.691 1.185-5.85-.373-5.367-4.699-9.722-10.06-10.128a10.87 10.87 0 0 0-8.074 2.687 10.854 10.854 0 0 0-3.707 7.632l-.007.12-3.1 6.9h3.186v6.4c0 1.2.977 2.179 2.179 2.179h6.022v1.283z" mask="url(#b)"/>
            <path fill="#858FA5" d="M.991 20.25h3.71v5.437a3.145 3.145 0 0 0 3.141 3.142h5.7v-.642h-5.7c-1.379 0-2.5-1.121-2.5-2.5V19.61h-3.36l3.282-7.36a11.17 11.17 0 0 1 3.815-7.854c2.296-2.018 5.248-2.998 8.31-2.766 5.52.419 9.971 4.9 10.356 10.425.154 2.222-.27 4.307-1.224 6.029l-.155.28.561.311.156-.28c1.014-1.832 1.465-4.039 1.302-6.384C27.979 6.17 23.272 1.432 17.437.99 14.2.744 11.08 1.782 8.655 3.912a11.814 11.814 0 0 0-4.025 8.186l-.028.111-3.61 8.04zm13.193 9.22H7.842a3.787 3.787 0 0 1-3.783-3.783v-4.795h-4.06L3.994 12a12.453 12.453 0 0 1 4.239-8.57C10.787 1.187 14.07.093 17.486.35c6.15.466 11.11 5.46 11.539 11.615.172 2.47-.306 4.8-1.381 6.74l-.468.841-1.682-.933.466-.841c.895-1.613 1.29-3.575 1.144-5.674-.36-5.209-4.558-9.435-9.763-9.83-2.89-.22-5.674.707-7.838 2.609a10.536 10.536 0 0 0-3.6 7.408l-.034.234-2.896 6.448h3.01v6.72c0 1.025.834 1.859 1.86 1.859h6.341v1.924z" mask="url(#b)"/>
            <path fill="#858FA5" d="M24.388 33.038h1.283V20.394h-1.283z" mask="url(#b)"/>
            <path fill="#858FA5" d="M24.708 32.717h.642V20.714h-.642v12.003zm-.641.641h1.924V20.073h-1.924v13.285zM12.58 33.038h1.284v-5.171H12.58z" mask="url(#b)"/>
            <path fill="#858FA5" d="M12.901 32.717h.642v-4.53H12.9v4.53zm-.641.641h1.924v-5.812H12.26v5.812z" mask="url(#b)"/>
        </g>
    </g>
</svg>
