<?xml version="1.0" encoding="UTF-8"?>
<svg width="99px" height="71px" viewBox="0 0 99 71" version="1.1" xmlns="http://www.w3.org/2000/svg" xmlns:xlink="http://www.w3.org/1999/xlink">
    <!-- Generator: Sketch 61.1 (89650) - https://sketch.com -->
    <title>contact</title>
    <desc>Created with Sketch.</desc>
    <g id="Page-1" stroke="none" stroke-width="1" fill="none" fill-rule="evenodd">
        <g id="contact" transform="translate(0.000000, -1.000000)" fill="#8592A8" fill-rule="nonzero">
            <g id="Group" transform="translate(0.000000, 0.746921)">
                <path d="M10.5394729,0.424131835 C4.76141854,0.424131835 0,5.18551465 0,10.9636054 L0,60.1478151 C0,65.9259058 4.76141854,70.6872886 10.5394729,70.6872886 L87.8289465,70.6872886 C93.6070009,70.6872886 98.3684247,65.9259058 98.3684247,60.1478151 L98.3684247,10.9636054 C98.3684247,5.18551465 93.6070009,0.424131835 87.8289465,0.424131835 L10.5394729,0.424131835 Z M11.1249992,7.45044751 L87.2068248,7.45044751 L51.5629098,40.3497654 C49.8930707,41.8911049 48.3983509,41.890168 46.7323177,40.3497654 L11.1249992,7.45044751 Z M7.02631509,13.1958658 L41.9383211,45.5096574 C45.9674693,49.2351271 52.3273495,49.2293889 56.3569064,45.5096574 L91.3421044,13.1958658 L91.3421044,60.1478151 C91.3421044,62.1548822 89.8359539,63.6609729 87.8289465,63.6609729 L10.5394729,63.6609729 C8.53246441,63.6609729 7.02631509,62.1548822 7.02631509,60.1478151 L7.02631509,13.1958658 Z" id="Shape"></path>
            </g>
        </g>
    </g>
</svg>