<?xml version="1.0" encoding="UTF-8"?>
<svg width="99px" height="96px" viewBox="0 0 99 96" version="1.1" xmlns="http://www.w3.org/2000/svg" xmlns:xlink="http://www.w3.org/1999/xlink">
    <!-- Generator: Sketch 61.1 (89650) - https://sketch.com -->
    <title>Showcase</title>
    <desc>Created with Sketch.</desc>
    <g id="Page-1" stroke="none" stroke-width="1" fill="none" fill-rule="evenodd">
        <g id="Showcase" transform="translate(0.000000, -1.000000)" fill="#7E8FA8" fill-rule="nonzero">
            <path d="M93.8605123,11.1657234 L82.6619536,11.1657234 L82.6619536,5.43683112 C82.6619536,3.32751122 80.9906984,1.61756959 78.9291007,1.61756959 L19.2034543,1.61756959 C17.1418566,1.61756959 15.4706014,3.32751122 15.4706014,5.43683112 L15.4706014,11.1657234 L4.27204276,11.1657234 C2.21044503,11.1657234 0.539189863,12.875665 0.539189863,14.9849849 L0.539189863,60.8161233 C0.539189863,62.9254432 2.21044503,64.6353848 4.27204276,64.6353848 L15.4706014,64.6353848 L15.4706014,66.5450156 C15.4706014,68.6543355 17.1418566,70.3642771 19.2034543,70.3642771 L78.9291007,70.3642771 C80.9906984,70.3642771 82.6619536,68.6543355 82.6619536,66.5450156 L82.6619536,64.6353848 L93.8605123,64.6353848 C95.92211,64.6353848 97.5933651,62.9254432 97.5933651,60.8161233 L97.5933651,14.9849849 C97.5933651,12.875665 95.92211,11.1657234 93.8605123,11.1657234 Z M19.9500249,5.66149356 L78.1825301,5.66149356 L78.1825301,13.3428687 L78.1825301,52.875066 L66.730744,40.7903426 C66.0201256,40.0406751 64.8682135,40.0406751 64.1575952,40.7903426 L54.1106683,51.3925606 L39.5379838,33.2261084 C39.1808699,32.814634 38.6764272,32.580324 38.1476828,32.580324 C37.6189384,32.580324 37.1144957,32.814634 36.7573817,33.2261084 L19.9500249,54.1885812 L19.9500249,5.66149356 Z M4.42135687,62.2764291 L4.42135687,13.7493415 L16.0678579,13.7493415 L16.0678579,62.2764291 L4.42135687,62.2764291 Z M19.9500249,66.3203531 L19.9500249,59.6630053 L38.1476828,38.0128853 L51.5266008,53.9253022 L49.5994689,55.8653493 C48.9098282,56.5841723 48.919691,57.7267775 49.6216362,58.4334269 C50.3235813,59.1400763 51.45858,59.1500052 52.1726177,58.4557428 L65.4441696,45.0952482 L78.1825301,57.9189781 L78.1825301,62.6564303 L78.1825301,62.6729179 L78.1825301,66.3203531 L19.9500249,66.3203531 Z M93.7111981,62.2764291 L82.0646971,62.2764291 L82.0646971,13.7493415 L93.7111981,13.7493415 L93.7111981,62.2764291 Z" id="Shape" stroke="#7E8FA8" stroke-width="0.960431943"></path>
            <path d="M56.6149356,40.4392397 C61.0817307,40.4392397 64.7027835,36.8181868 64.7027835,32.3513918 C64.7027835,27.8845967 61.0817307,24.2635438 56.6149356,24.2635438 C52.1481405,24.2635438 48.5270876,27.8845967 48.5270876,32.3513918 C48.5270876,36.8181868 52.1481405,40.4392397 56.6149356,40.4392397 Z M56.6149356,28.3074678 C58.8483331,28.3074678 60.6588596,30.1179942 60.6588596,32.3513918 C60.6588596,34.5847893 58.8483331,36.3953157 56.6149356,36.3953157 C54.381538,36.3953157 52.5710116,34.5847893 52.5710116,32.3513918 C52.5710116,30.1179942 54.381538,28.3074678 56.6149356,28.3074678 Z" id="Shape"></path>
            <circle id="Oval" cx="48.5270876" cy="90.0447071" r="2.15675945"></circle>
            <circle id="Oval" cx="39.9000498" cy="90.0447071" r="2.15675945"></circle>
            <circle id="Oval" cx="31.273012" cy="90.0447071" r="2.15675945"></circle>
            <circle id="Oval" cx="65.7811632" cy="90.0447071" r="2.15675945"></circle>
            <circle id="Oval" cx="57.1541254" cy="90.0447071" r="2.15675945"></circle>
            <path d="M22.0140437,84.2063592 C21.1718294,83.3643994 19.8066002,83.3643994 18.9643859,84.2063592 L14.6508669,88.5198781 C13.8089071,89.3620925 13.8089071,90.7273217 14.6508669,91.569536 L18.9643859,95.8830549 C19.8106528,96.7004068 21.1558363,96.6887176 21.9877714,95.8567826 C22.8197064,95.0248475 22.8313956,93.6796639 22.0140437,92.833397 L19.2253537,90.0447071 L22.0140437,87.2560171 C22.8560036,86.4138028 22.8560036,85.0485736 22.0140437,84.2063592 L22.0140437,84.2063592 Z" id="Shape"></path>
            <path d="M78.0897894,84.2063592 C77.2435225,83.3890074 75.8983389,83.4006966 75.0664039,84.2326316 C74.2344689,85.0645666 74.2227797,86.4097502 75.0401316,87.2560171 L77.8288215,90.0447071 L75.0401316,92.833397 C74.4794677,93.3749043 74.2546126,94.1767948 74.4519893,94.9308614 C74.6493662,95.6849281 75.2382584,96.2738202 75.9923251,96.4711972 C76.7463916,96.6685739 77.5482821,96.4437188 78.0897894,95.8830549 L82.4033083,91.569536 C83.2452682,90.7273217 83.2452682,89.3620925 82.4033083,88.5198781 L78.0897894,84.2063592 Z" id="Shape"></path>
        </g>
    </g>
</svg>