<?xml version="1.0" encoding="UTF-8"?>
<svg width="101px" height="101px" viewBox="0 0 101 101" version="1.1" xmlns="http://www.w3.org/2000/svg" xmlns:xlink="http://www.w3.org/1999/xlink">
    <!-- Generator: Sketch 61.1 (89650) - https://sketch.com -->
    <title>Blog</title>
    <desc>Created with Sketch.</desc>
    <g id="Page-1" stroke="none" stroke-width="1" fill="none" fill-rule="evenodd">
        <g id="Blog" transform="translate(1.000000, 1.000000)" fill="#8592A8" fill-rule="nonzero">
            <path d="M82.3255814,0 C83.3591736,0.266767671 84.3745548,0.599679551 85.3654485,0.996677741 C89.7489527,2.74960364 92.5630834,7.06247823 92.4019934,11.7807309 C92.4817276,23.2524917 92.4019934,34.7043189 92.4019934,46.1960133 C92.4019934,46.4152824 92.4019934,46.6445183 92.3322259,46.9335548 C89.7627253,46.4044733 87.0909459,46.7227088 84.717608,47.8405316 L84.717608,9.37333887 L7.74418605,9.37333887 C7.74418605,9.69227575 7.68438538,10.041113 7.68438538,10.3700166 C7.68438538,31.5859635 7.68438538,58.9269103 7.68438538,80.1428571 C7.68438538,83.2425249 9.14950166,84.7076412 12.2192691,84.7076412 L50.0930233,84.7076412 C49.3554817,87.2192691 48.6578073,89.6910299 47.910299,92.0531561 C47.7555665,92.2700379 47.5087822,92.4026385 47.2425249,92.4119601 C46.2458472,92.4119601 45.2491694,92.4119601 44.2524917,92.4119601 C33.5282392,92.4119601 22.807309,92.4119601 12.089701,92.4119601 C6.84390214,92.6330085 2.10462386,89.300384 0.53820598,84.2890365 C0.338870432,83.641196 0.179401993,82.9833887 0,82.2956811 C0,58.2425249 0,34.1893688 0,10.1362126 C0.0754492148,9.97162837 0.138741479,9.80173861 0.189368771,9.62790698 C0.789269445,5.81999743 3.29830871,2.5849543 6.8372093,1.05647841 C7.92175183,0.629658276 9.0339253,0.276693044 10.166113,0 L82.3255814,0 Z" id="Path" stroke="#F5F5F5" stroke-width="0.4"></path>
            <path d="M77.9401993,64.0963455 L90.1395349,76.1960133 C89.9501661,76.4053156 89.730897,76.6445183 89.5116279,76.8637874 C83.5315615,82.8438538 77.5249169,88.8239203 71.4916944,94.8039867 C71.0325157,95.2597632 70.4725958,95.6011778 69.8571429,95.8006645 C65.6013289,97.0963455 61.3255814,98.3421927 57.0398671,99.5681063 C56.5496599,99.7218592 56.0285557,99.7492857 55.5249169,99.6478405 C55.1167253,99.5279251 54.7733734,99.2498729 54.5712255,98.875525 C54.3690776,98.501177 54.3248952,98.0615732 54.448505,97.654485 C55.7774086,93.0033223 57.1295681,88.3887043 58.5049834,83.8106312 C58.62376,83.4728752 58.8220261,83.1686393 59.0830565,82.923588 C65.3023256,76.6578073 71.5215947,70.4252492 77.7408638,64.2259136 C77.7981347,64.170027 77.8658749,64.1259959 77.9401993,64.0963455 L77.9401993,64.0963455 Z M68.6810631,92.5215947 C68.3222591,90.6179402 67.9833887,88.7940199 67.6146179,86.9900332 C67.5561608,86.751042 67.3906448,86.5524228 67.166113,86.4518272 C65.3421927,86.0431894 63.4983389,85.6744186 61.6245847,85.2956811 C60.9468439,87.6079734 60.358804,89.8405316 59.6312292,92.0232558 C59.3739843,92.8188746 59.6406396,93.6904791 60.2990033,94.2059801 C60.7667212,94.723757 61.5361368,94.8366604 62.1328904,94.4750831 L68.6810631,92.5215947 Z" id="Shape"></path>
            <polygon id="Path" points="73.1063123 43.1407807 73.1063123 50.695598 19.2857143 50.695598 19.2857143 43.1407807"></polygon>
            <polygon id="Path" points="73.0963455 27.77201 73.0963455 35.336794 19.2757475 35.336794 19.2757475 27.77201"></polygon>
            <path d="M69.4983389,58.5593854 C65.9401993,61.0610465 62.5215947,63.5427741 58.9933555,65.9148671 C58.5987538,66.1148549 58.1596687,66.2109048 57.717608,66.1939369 C45.2458472,66.1939369 32.7740864,66.1939369 20.3023256,66.1939369 C19.9833887,66.1939369 19.6644518,66.1939369 19.255814,66.1142027 L19.255814,58.5593854 L69.4983389,58.5593854 Z" id="Path"></path>
            <path d="M93.8372093,71.7607973 L82.3156146,60.3887043 C84.0199336,58.5747508 85.6146179,56.6810631 87.4285714,55.0465116 C88.8815472,53.9052712 90.9539166,54.0116557 92.282392,55.2956811 C94.4551495,57.3488372 96.5780731,59.461794 98.6212625,61.6445183 C99.9907716,63.1619366 99.9907716,65.4692926 98.6212625,66.986711 C98.4112376,67.2373068 98.1883463,67.4768317 97.9534884,67.7043189 L93.8372093,71.7607973 Z" id="Path"></path>
        </g>
    </g>
</svg>