<?xml version="1.0" encoding="UTF-8"?>
<svg width="101px" height="85px" viewBox="0 0 101 85" version="1.1" xmlns="http://www.w3.org/2000/svg" xmlns:xlink="http://www.w3.org/1999/xlink">
    <!-- Generator: Sketch 61.1 (89650) - https://sketch.com -->
    <title>what</title>
    <desc>Created with Sketch.</desc>
    <g id="Page-1" stroke="none" stroke-width="1" fill="none" fill-rule="evenodd">
        <g id="what" transform="translate(1.000000, 1.000000)" fill="#7E8FA8" fill-rule="nonzero">
            <path d="M89.3089034,12.5933267 L69.3489304,12.5933267 L69.3489304,7.6774772 C69.3445312,3.43917313 65.9098237,0.00443590048 61.6715197,0 L37.3770528,0 C33.1387747,0.0044358351 29.7040779,3.43913259 29.6996421,7.67741069 L29.6996421,12.5932602 L9.73966906,12.5932602 C4.36310404,12.5992837 0.00603579085,16.956342 0,22.332907 L0,72.4818923 C0.00598692917,77.8584919 4.36306946,82.2156042 9.73966906,82.2216279 L89.3089034,82.2216279 C94.6854771,82.2156043 99.0425489,77.8585325 99.0485725,72.4819588 L99.0485725,22.3329736 C99.0425367,16.9564085 94.6854684,12.5993502 89.3089034,12.5933267 Z M34.1337481,7.6774772 C34.1357396,5.88706429 35.5866399,4.43613426 37.3770528,4.43410602 L61.6715197,4.43410602 C63.4619066,4.43613419 64.9127962,5.88702375 64.9148243,7.67741069 L64.9148243,12.5932602 L34.1337481,12.5932602 L34.1337481,7.6774772 Z M9.73966906,17.0274327 L89.3089034,17.0274327 C92.2375925,17.0310119 94.610875,19.4042845 94.6144664,22.3329736 L94.6144664,24.8571993 L49.5242862,53.9617178 L4.43410602,24.8571993 L4.43410602,22.3329736 C4.43769747,19.4042845 6.81097999,17.0310119 9.73966906,17.0274327 Z M89.3089034,77.7875219 L9.73966906,77.7875219 C6.81094542,77.7839425 4.43764861,75.410616 4.43410602,72.4818923 L4.43410602,30.1359581 L48.3215793,58.4640204 C49.0539419,58.936057 49.9947192,58.936057 50.7270818,58.4640204 L94.6144664,30.1359581 L94.6144664,72.4818923 C94.6109238,75.410616 92.237627,77.7839425 89.3089034,77.7875219 Z" id="Shape" stroke="#7E8FA8" stroke-width="1.65600003"></path>
            <path d="M49.2449819,43.2012712 C51.060086,43.201056 52.6963331,42.1074685 53.3907425,40.4304478 C54.0851518,38.7534271 53.700971,36.8232345 52.4173433,35.5399174 C51.1337155,34.2566004 49.20343,33.8728868 47.5265774,34.5677021 C45.8497249,35.2625174 44.7565335,36.8990292 44.7567576,38.7141333 C44.7597274,41.1915041 46.7676105,43.1989012 49.2449819,43.2012712 L49.2449819,43.2012712 Z" id="Path"></path>
        </g>
    </g>
</svg>