<?xml version="1.0" encoding="UTF-8"?>
<svg width="55px" height="97px" viewBox="0 0 55 97" version="1.1" xmlns="http://www.w3.org/2000/svg" xmlns:xlink="http://www.w3.org/1999/xlink">
    <!-- Generator: Sketch 61.1 (89650) - https://sketch.com -->
    <title>question</title>
    <desc>Created with Sketch.</desc>
    <g id="Page-1" stroke="none" stroke-width="1" fill="none" fill-rule="evenodd">
        <g id="question" transform="translate(-1.000000, -1.000000)" fill="#828FA6" fill-rule="nonzero" stroke-width="0.5">
            <path d="M34.9202473,90.4761905 C34.9202473,93.9825149 32.077753,96.8250092 28.5714286,96.8250092 C25.0651042,96.8250092 22.2226098,93.9825149 22.2226098,90.4761905 C22.2226098,86.9698661 25.0651042,84.1273717 28.5714286,84.1273717 C32.077753,84.1273717 34.9202473,86.9698661 34.9202473,90.4761905 Z" id="Path" stroke="#798FAA"></path>
            <path d="M28.5714286,69.8416574 C25.9428479,69.8416574 23.8095238,67.7083333 23.8095238,65.0797527 L23.8095238,58.6669923 C23.8095238,52.6227679 27.6448568,47.2063336 33.3461217,45.1939173 C40.9330821,42.5211589 46.0321336,34.4377792 46.0321336,28.5714286 C46.0321336,18.9394997 38.2033574,11.1107235 28.5714286,11.1107235 C18.9394997,11.1107235 11.1107235,18.9394997 11.1107235,28.5714286 C11.1107235,31.2000092 8.9773994,33.3333333 6.34881875,33.3333333 C3.7202381,33.3333333 1.58691399,31.2000092 1.58691399,28.5714286 C1.58691399,13.6951265 13.6893137,1.58691399 28.5714286,1.58691399 C43.4535435,1.58691399 55.5559432,13.6951265 55.5559432,28.5714286 C55.5559432,39.1624815 47.1935452,50.4069012 36.5141369,54.1782923 C34.6098399,54.8444476 33.3333333,56.6534134 33.3333333,58.6728051 L33.3333333,65.0797527 C33.3333333,67.7083333 31.2000092,69.8416574 28.5714286,69.8416574 L28.5714286,69.8416574 Z" id="Path" stroke="#828FA6"></path>
        </g>
    </g>
</svg>