<svg xmlns="http://www.w3.org/2000/svg" xmlns:xlink="http://www.w3.org/1999/xlink" width="29" height="27" viewBox="0 0 29 27">
    <defs>
        <path id="a" d="M18.783.036a1.075 1.075 0 0 0 0 2.15h2.002v8.633a6.938 6.938 0 0 1-6.93 6.93 6.938 6.938 0 0 1-6.93-6.93V2.187h4.602a1.075 1.075 0 1 0 0-2.15H5.85c-.594 0-1.076.48-1.076 1.074v1.326A5.86 5.86 0 0 0 0 8.187a5.857 5.857 0 0 0 5.35 5.828 9.059 9.059 0 0 0 2.084 3.225 9.066 9.066 0 0 0 2.895 1.952v4.985H9a1.075 1.075 0 0 0 0 2.15h9.71a1.075 1.075 0 0 0 0-2.15h-1.33v-4.985a9.064 9.064 0 0 0 2.896-1.952 9.05 9.05 0 0 0 2.083-3.225 5.858 5.858 0 0 0 5.351-5.828 5.86 5.86 0 0 0-4.774-5.75V1.11c0-.593-.481-1.075-1.075-1.075h-3.077zm4.152 10.783V4.647a3.705 3.705 0 0 1 2.623 3.54 3.705 3.705 0 0 1-2.67 3.553c.031-.304.047-.611.047-.92zM2.15 8.187a3.706 3.706 0 0 1 2.623-3.54v6.172c0 .31.016.617.046.921a3.706 3.706 0 0 1-2.67-3.553zm13.078 11.61v4.38h-2.75v-4.38a9.184 9.184 0 0 0 2.75 0z"/>
    </defs>
    <g fill="none" fill-rule="evenodd" transform="translate(.612 .13)">
        <mask id="b" fill="#fff">
            <use xlink:href="#a"/>
        </mask>
        <path fill="#858FA4" d="M18.783.036a1.075 1.075 0 0 0 0 2.15h2.002v8.633a6.938 6.938 0 0 1-6.93 6.93 6.938 6.938 0 0 1-6.93-6.93V2.187h4.602a1.075 1.075 0 1 0 0-2.15H5.85c-.594 0-1.076.48-1.076 1.074v1.326A5.86 5.86 0 0 0 0 8.187a5.857 5.857 0 0 0 5.35 5.828 9.059 9.059 0 0 0 2.084 3.225 9.066 9.066 0 0 0 2.895 1.952v4.985H9a1.075 1.075 0 0 0 0 2.15h9.71a1.075 1.075 0 0 0 0-2.15h-1.33v-4.985a9.064 9.064 0 0 0 2.896-1.952 9.05 9.05 0 0 0 2.083-3.225 5.858 5.858 0 0 0 5.351-5.828 5.86 5.86 0 0 0-4.774-5.75V1.11c0-.593-.481-1.075-1.075-1.075h-3.077zm4.152 10.783V4.647a3.705 3.705 0 0 1 2.623 3.54 3.705 3.705 0 0 1-2.67 3.553c.031-.304.047-.611.047-.92zM2.15 8.187a3.706 3.706 0 0 1 2.623-3.54v6.172c0 .31.016.617.046.921a3.706 3.706 0 0 1-2.67-3.553zm13.078 11.61v4.38h-2.75v-4.38a9.184 9.184 0 0 0 2.75 0z" mask="url(#b)"/>
    </g>
</svg>
