<svg xmlns="http://www.w3.org/2000/svg" xmlns:xlink="http://www.w3.org/1999/xlink" width="35" height="34" viewBox="0 0 35 34">
    <defs>
        <path id="a" d="M17.025.03c-.289.004-1.152.121-1.53 1.286l-3.231 9.942a.206.206 0 0 1-.037.027H1.772c-1.255 0-1.62.825-1.703 1.078A1.49 1.49 0 0 0 0 12.81v.015c.002.39.152.931.814 1.411l8.457 6.145c.006.013.012.03.015.044l-3.231 9.943c-.388 1.193.284 1.796.499 1.952.124.09.436.279.872.281h.017c.318-.002.7-.102 1.123-.41l8.457-6.144a.19.19 0 0 1 .046 0l8.457 6.144c.427.31.812.41 1.131.41.441 0 .756-.19.881-.28.215-.157.887-.76.5-1.954l-3.232-9.942a.19.19 0 0 1 .014-.044l8.458-6.145c1.016-.737.827-1.62.744-1.873-.082-.253-.448-1.078-1.703-1.078h-4.213a1.324 1.324 0 0 0 0 2.646h1.09l-5.964 4.333c-.881.64-1.292 1.904-.955 2.94l2.278 7.01-5.964-4.332c-.88-.64-2.209-.64-3.09 0l-5.964 4.333 2.278-7.011c.336-1.036-.074-2.3-.955-2.94l-5.964-4.332h7.371c1.09 0 2.165-.781 2.5-1.817l2.279-7.011 2.278 7.01a1.324 1.324 0 0 0 2.517-.818l-3.243-9.98C18.219.15 17.356.033 17.066.028h-.04z"/>
    </defs>
    <g fill="none" fill-rule="evenodd" transform="translate(.112 .675)">
        <mask id="b" fill="#fff">
            <use xlink:href="#a"/>
        </mask>
        <path fill="#858FA4" d="M17.025.03c-.289.004-1.152.121-1.53 1.286l-3.231 9.942a.206.206 0 0 1-.037.027H1.772c-1.255 0-1.62.825-1.703 1.078A1.49 1.49 0 0 0 0 12.81v.015c.002.39.152.931.814 1.411l8.457 6.145c.006.013.012.03.015.044l-3.231 9.943c-.388 1.193.284 1.796.499 1.952.124.09.436.279.872.281h.017c.318-.002.7-.102 1.123-.41l8.457-6.144a.19.19 0 0 1 .046 0l8.457 6.144c.427.31.812.41 1.131.41.441 0 .756-.19.881-.28.215-.157.887-.76.5-1.954l-3.232-9.942a.19.19 0 0 1 .014-.044l8.458-6.145c1.016-.737.827-1.62.744-1.873-.082-.253-.448-1.078-1.703-1.078h-4.213a1.324 1.324 0 0 0 0 2.646h1.09l-5.964 4.333c-.881.64-1.292 1.904-.955 2.94l2.278 7.01-5.964-4.332c-.88-.64-2.209-.64-3.09 0l-5.964 4.333 2.278-7.011c.336-1.036-.074-2.3-.955-2.94l-5.964-4.332h7.371c1.09 0 2.165-.781 2.5-1.817l2.279-7.011 2.278 7.01a1.324 1.324 0 0 0 2.517-.818l-3.243-9.98C18.219.15 17.356.033 17.066.028h-.04z" mask="url(#b)"/>
    </g>
</svg>
