<?xml version="1.0" encoding="UTF-8"?>
<svg width="43px" height="36px" viewBox="0 0 43 36" version="1.1" xmlns="http://www.w3.org/2000/svg" xmlns:xlink="http://www.w3.org/1999/xlink">
    <!-- Generator: sketchtool 54 (76480) - https://sketchapp.com -->
    <title>C8D6B19A-42A3-467E-BBE6-518217F4C608</title>
    <desc>Created with sketchtool.</desc>
    <defs>
        <polygon id="path-1" points="0 0.179550012 19.5577758 0.179550012 19.5577758 35.6999017 0 35.6999017"></polygon>
        <polygon id="path-3" points="0.0313600021 0.179550012 19.5888013 0.179550012 19.5888013 35.6999017 0.0313600021 35.6999017"></polygon>
    </defs>
    <g id="Homepage" stroke="none" stroke-width="1" fill="none" fill-rule="evenodd">
        <g id="desktop" transform="translate(-619.000000, -928.000000)">
            <g id="Experience" transform="translate(0.000000, 619.000000)">
                <g id="Group-7" transform="translate(640.000000, 326.500000) rotate(-180.000000) translate(-640.000000, -326.500000) translate(618.000000, 308.000000)">
                    <g id="Group-3" transform="translate(0.000000, 0.170450)">
                        <mask id="mask-2" fill="white">
                            <use xlink:href="#path-1"></use>
                        </mask>
                        <g id="Clip-2"></g>
                        <path d="M1.93403013,0.179480012 L17.6224312,0.179480012 C18.6860813,0.179480012 19.5565313,1.04958007 19.5565313,2.11358014 L19.5565313,15.7404811 L19.5565313,16.1013311 L19.5565313,16.1604811 C19.5565313,17.8058312 19.4182813,18.8148813 19.1886813,20.4616314 C19.1886813,20.5568314 19.1407313,20.7930814 19.1242813,20.9001814 L19.0896313,21.1252314 L19.0896313,21.1252314 L19.0528813,21.3537815 L19.0143813,21.5861815 L19.0143813,21.5865315 L18.9737813,21.8220815 L18.9737813,21.8224315 L18.9314313,22.0618315 L18.9314313,22.0618315 L18.8873313,22.3047315 L18.8869813,22.3050815 L18.8407813,22.5511315 L18.8407813,22.5511315 L18.7921313,22.8006816 L18.7921313,22.8010316 L18.7413813,23.0537316 L18.7413813,23.0540816 L18.6888813,23.3102816 L18.6888813,23.3102816 L18.6335813,23.5696316 L18.6335813,23.5699816 L18.5765313,23.8321316 L18.5765313,23.8324816 L18.5166813,24.0970816 L18.5166813,24.0977816 L18.4550813,24.3658817 L18.4547313,24.3658817 L18.3906813,24.6367817 L18.3906813,24.6371317 L18.3238312,24.9108317 L18.3238312,24.9115317 L18.2545312,25.1876817 L18.2545312,25.1880317 L18.1827812,25.4669817 L18.1827812,25.4673317 L18.1082312,25.7490818 L18.1082312,25.7494318 L18.0312312,26.0336318 L18.0312312,26.0339818 C18.0049812,26.1291818 17.9787312,26.2247318 17.9517812,26.3206318 L17.9514312,26.3206318 C17.9248312,26.4168818 17.8968312,26.5131318 17.8691812,26.6100818 L17.8688312,26.6104318 L17.7841312,26.9016318 L17.7837812,26.9019818 L17.6959312,27.1952819 L17.6959312,27.1956319 C17.6661812,27.2939819 17.6360812,27.3923319 17.6052812,27.4913819 L17.6049312,27.4917319 L17.5114812,27.7895819 L17.5111312,27.7902819 C17.4796312,27.8896819 17.4474312,27.9894319 17.4145312,28.0898819 L17.4145312,28.0902319 C17.3819812,28.1906819 17.3487312,28.2911319 17.3151312,28.3919319 L17.3147812,28.3926319 C17.2811812,28.4934319 17.2468812,28.5945819 17.2122312,28.696082 L17.2122312,28.696782 C17.1772312,28.798282 17.1422312,28.900132 17.1065312,29.002332 L17.1065312,29.002682 C17.0708312,29.104882 17.0344312,29.207082 16.9976812,29.309982 L16.9973312,29.310332 C16.9605812,29.412882 16.9234812,29.516132 16.8853312,29.619032 L16.8853312,29.619732 C16.8471811,29.722982 16.8090311,29.826582 16.7701811,29.930182 L16.7698311,29.930532 C16.7309811,30.034482 16.6917811,30.1387821 16.6515311,30.2430821 L16.6515311,30.2430821 C16.6112811,30.3477321 16.5706811,30.4520321 16.5297311,30.5570321 L16.5293811,30.5573821 C16.4880811,30.6623821 16.4464311,30.7673821 16.4044311,30.8723821 L16.4040811,30.8730821 C16.3620811,30.9780821 16.3193811,31.0837821 16.2756311,31.1894821 L16.2756311,31.1898321 C16.2322311,31.2955321 16.1881311,31.4015821 16.1436811,31.5076321 L16.1436811,31.5079821 C16.0988811,31.6140322 16.0537311,31.7204322 16.0078811,31.8268322 L16.0078811,31.8271822 C15.9620311,31.9339322 15.9158311,32.0406822 15.8689311,32.1474322 L15.8685811,32.1477822 C15.8220311,32.2548822 15.7744311,32.3619822 15.7261311,32.4690822 L15.7261311,32.4694322 C15.6778311,32.5765322 15.6291811,32.6843322 15.5798311,32.7917822 L15.5794811,32.7921322 C15.5304811,32.8995822 15.4804311,33.0073822 15.4300311,33.1155323 L15.4296811,33.1158823 C15.379281,33.2236823 15.327831,33.3318323 15.276031,33.4399823 L15.276031,33.4399823 C15.224231,33.5484823 15.171731,33.6566323 15.118531,33.7651323 L15.118531,33.7654823 C15.065331,33.8743323 15.011431,33.9824823 14.957181,34.0913323 L14.957181,34.0916823 C14.938631,34.1287823 14.801781,34.4084323 14.791981,34.4182323 C14.736331,34.5274324 14.679981,34.6362824 14.622931,34.7454824 L14.622931,34.7454824 C13.7759309,36.3684325 13.1431309,35.5165324 12.6769309,35.1178824 L10.0190307,33.0126322 C8.29458057,31.6465822 8.69953059,32.3563822 9.44853064,30.1849821 C10.0064307,28.5672819 10.7267307,26.0273318 10.8590307,23.2490316 C10.8814307,22.7814316 10.8656807,22.3281815 10.8257807,21.8952315 C10.7501807,21.0720314 10.8663807,19.7357313 8.64738059,19.7357313 L1.93403013,19.7357313 C0.870380059,19.7357313 -7.00000048e-05,18.8656313 -7.00000048e-05,17.8019812 L-7.00000048e-05,2.11358014 C-7.00000048e-05,1.04958007 0.870030059,0.179480012 1.93403013,0.179480012 L1.93403013,0.179480012 Z M19.5565313,15.7404811 C19.5565313,15.7404811 19.5593313,15.8657811 19.5565313,16.1013311 L19.5565313,15.7404811 Z" id="Fill-1" fill="#858FA4" mask="url(#mask-2)"></path>
                    </g>
                    <g id="Group-6" transform="translate(23.100002, 0.170450)">
                        <mask id="mask-4" fill="white">
                            <use xlink:href="#path-3"></use>
                        </mask>
                        <g id="Clip-5"></g>
                        <path d="M1.96511013,0.179480012 L17.6535112,0.179480012 C18.7171613,0.179480012 19.5876113,1.04958007 19.5876113,2.11358014 L19.5876113,15.7404811 L19.5876113,16.1013311 L19.5876113,16.1604811 C19.5876113,17.8058312 19.4493613,18.8148813 19.2197613,20.4616314 C19.2197613,20.5568314 19.1718113,20.7930814 19.1553613,20.9001814 L19.1203613,21.1252314 L19.1203613,21.1252314 L19.0839613,21.3537815 L19.0451113,21.5861815 L19.0451113,21.5865315 L19.0048613,21.8220815 L19.0048613,21.8224315 L18.9625113,22.0618315 L18.9625113,22.0618315 L18.9180613,22.3047315 L18.9180613,22.3050815 L18.8718613,22.5511315 L18.8718613,22.5511315 L18.8232113,22.8006816 L18.8232113,22.8010316 L18.7724613,23.0537316 L18.7724613,23.0540816 L18.7199613,23.3102816 L18.7199613,23.3102816 L18.6646613,23.5696316 L18.6646613,23.5699816 L18.6076113,23.8321316 L18.6076113,23.8324816 L18.5477613,24.0970816 L18.5477613,24.0977816 L18.4858113,24.3658817 L18.4858113,24.3658817 L18.4217613,24.6367817 L18.4214113,24.6371317 L18.3549113,24.9108317 L18.3545613,24.9115317 L18.2856112,25.1876817 L18.2852612,25.1880317 L18.2138612,25.4669817 L18.2138612,25.4673317 L18.1393112,25.7490818 L18.1393112,25.7494318 L18.0623112,26.0336318 L18.0623112,26.0339818 C18.0360612,26.1291818 18.0098112,26.2247318 17.9828612,26.3206318 L17.9825112,26.3206318 C17.9555612,26.4168818 17.9279112,26.5131318 17.9002612,26.6100818 L17.8999112,26.6104318 L17.8152112,26.9016318 L17.8148612,26.9019818 L17.7270112,27.1952819 L17.7270112,27.1956319 C17.6972612,27.2939819 17.6668112,27.3923319 17.6360112,27.4913819 L17.6360112,27.4917319 L17.5425612,27.7895819 L17.5422112,27.7902819 C17.5107112,27.8896819 17.4785112,27.9894319 17.4456112,28.0898819 L17.4456112,28.0902319 C17.4130612,28.1906819 17.3798112,28.2911319 17.3458612,28.3919319 L17.3458612,28.3926319 C17.3122612,28.4934319 17.2779612,28.5945819 17.2433112,28.696082 L17.2429612,28.696782 C17.2083112,28.798282 17.1733112,28.900132 17.1376112,29.002332 L17.1376112,29.002682 C17.1015612,29.104882 17.0655112,29.207082 17.0287612,29.309982 L17.0284112,29.310332 C16.9916612,29.412882 16.9545612,29.516132 16.9164112,29.619032 L16.9164112,29.619732 C16.8782611,29.722982 16.8401111,29.826582 16.8012611,29.930182 L16.8009111,29.930532 C16.7620611,30.034482 16.7228611,30.1387821 16.6826111,30.2430821 L16.6822611,30.2430821 C16.6423611,30.3477321 16.6017611,30.4520321 16.5608111,30.5570321 L16.5604611,30.5573821 C16.5191611,30.6623821 16.4775111,30.7673821 16.4355111,30.8723821 L16.4351611,30.8730821 C16.3931611,30.9780821 16.3501111,31.0837821 16.3067111,31.1894821 L16.3067111,31.1898321 C16.2633111,31.2955321 16.2192111,31.4015821 16.1747611,31.5076321 L16.1744111,31.5079821 C16.1299611,31.6140322 16.0848111,31.7204322 16.0389611,31.8268322 L16.0389611,31.8271822 C15.9931111,31.9339322 15.9469111,32.0406822 15.9000111,32.1474322 L15.8996611,32.1477822 C15.8527611,32.2548822 15.8055111,32.3619822 15.7572111,32.4690822 L15.7572111,32.4694322 C15.7089111,32.5765322 15.6602611,32.6843322 15.6109111,32.7917822 L15.6105611,32.7921322 C15.5615611,32.8995822 15.5115111,33.0073822 15.4611111,33.1155323 L15.4607611,33.1158823 C15.410361,33.2236823 15.358911,33.3318323 15.307111,33.4399823 L15.307111,33.4399823 C15.255311,33.5484823 15.202811,33.6566323 15.149611,33.7651323 L15.149611,33.7654823 C15.096411,33.8743323 15.042511,33.9824823 14.988261,34.0913323 L14.988261,34.0916823 C14.969711,34.1287823 14.832861,34.4084323 14.823061,34.4182323 C14.767411,34.5274324 14.711061,34.6362824 14.654011,34.7454824 L14.654011,34.7454824 C13.8070109,36.3684325 13.1742109,35.5165324 12.7080109,35.1178824 L10.0497607,33.0126322 C8.32566057,31.6465822 8.73061059,32.3563822 9.47961065,30.1849821 C10.0375107,28.5672819 10.7578107,26.0273318 10.8901107,23.2490316 C10.9125107,22.7814316 10.8967607,22.3281815 10.8568607,21.8952315 C10.7812607,21.0720314 10.8974607,19.7357313 8.67846059,19.7357313 L1.96511013,19.7357313 C0.901460061,19.7357313 0.0313600021,18.8656313 0.0313600021,17.8019812 L0.0313600021,2.11358014 C0.0313600021,1.04958007 0.901110061,0.179480012 1.96511013,0.179480012 L1.96511013,0.179480012 Z M19.5876113,15.7404811 C19.5876113,15.7404811 19.5904113,15.8657811 19.5876113,16.1013311 L19.5876113,15.7404811 Z" id="Fill-4" fill="#858FA4" mask="url(#mask-4)"></path>
                    </g>
                </g>
            </g>
        </g>
    </g>
</svg>