<svg xmlns="http://www.w3.org/2000/svg" width="174" height="59" viewBox="0 0 174 59">
    <g fill="#D0953A" fill-rule="evenodd">
        <path d="M88.87.868l4.224 8.7c.222.459.653.776 1.152.85l9.442 1.395c1.255.187 1.757 1.755.848 2.655l-6.832 6.77a1.57 1.57 0 0 0-.44 1.377l1.612 9.563c.214 1.271-1.098 2.24-2.22 1.64l-8.447-4.515a1.508 1.508 0 0 0-1.425 0l-8.443 4.514c-1.123.6-2.435-.369-2.22-1.64l1.613-9.562a1.575 1.575 0 0 0-.44-1.378l-6.83-6.77c-.908-.9-.407-2.467.848-2.654l9.44-1.395a1.533 1.533 0 0 0 1.151-.85l4.222-8.7a1.518 1.518 0 0 1 2.744 0M40.399 13.303l5.64 4.957c.293.257.698.358 1.082.27l7.397-1.715c.968-.224 1.78.729 1.374 1.613l-3.102 6.754c-.16.351-.134.757.071 1.085l3.96 6.317c.519.828-.161 1.873-1.15 1.771l-7.559-.782a1.215 1.215 0 0 0-1.037.4l-4.948 5.618c-.648.735-1.88.43-2.086-.518l-1.573-7.24a1.176 1.176 0 0 0-.713-.836l-7.016-2.844a1.155 1.155 0 0 1-.138-2.09l6.59-3.694c.342-.192.565-.535.596-.919l.61-7.375c.08-.965 1.263-1.421 2.002-.772M3.82 36.809l6.41 2.423a.907.907 0 0 0 .842-.108l5.61-3.956c.62-.437 1.466.032 1.433.794l-.301 6.902a.923.923 0 0 0 .361.774l5.463 4.163c.602.46.422 1.417-.307 1.62l-6.596 1.844c-.289.08-.52.3-.618.586l-2.237 6.53a.907.907 0 0 1-1.62.206l-3.777-5.76a.91.91 0 0 0-.743-.413l-6.844-.128C.141 52.272-.27 51.39.2 50.795l4.264-5.407a.925.925 0 0 0 .158-.84l-1.993-6.61c-.22-.73.484-1.396 1.192-1.13M133.604 13.302l-5.645 4.958a1.225 1.225 0 0 1-1.082.269l-7.393-1.714c-.968-.224-1.78.73-1.375 1.613l3.1 6.754c.16.352.134.757-.07 1.085l-3.96 6.319c-.519.826.161 1.872 1.15 1.77l7.558-.783c.392-.041.78.11 1.037.4l4.95 5.619c.647.734 1.88.427 2.084-.519l1.572-7.239c.08-.377.348-.69.712-.837l7.02-2.844c.917-.372.999-1.607.138-2.09l-6.589-3.694a1.162 1.162 0 0 1-.596-.919l-.611-7.374c-.08-.965-1.262-1.422-2-.774M170.014 37.706l-5.666 2.14c-.36.135-.76.084-1.076-.137l-4.956-3.495c-.792-.558-1.874.042-1.831 1.015l.266 6.096c.017.387-.155.757-.463.99l-4.825 3.678c-.77.587-.539 1.81.392 2.07l5.825 1.629c.37.103.665.383.79.748l1.978 5.769a1.16 1.16 0 0 0 2.072.264l3.337-5.09c.212-.322.566-.519.95-.526l6.047-.113c.966-.018 1.492-1.145.89-1.907l-3.766-4.775a1.18 1.18 0 0 1-.203-1.074l1.76-5.838c.283-.933-.617-1.785-1.521-1.444"/>
    </g>
</svg>
