<svg xmlns="http://www.w3.org/2000/svg" xmlns:xlink="http://www.w3.org/1999/xlink" width="72" height="43" viewBox="0 0 72 43">
    <defs>
        <path id="a" d="M0 0h71.803v41.965H0z"/>
        <linearGradient id="b" x1="50%" x2="50%" y1="0%" y2="100%">
            <stop offset="0%" stop-color="#F1C986"/>
            <stop offset="29.128%" stop-color="#DC7C82"/>
            <stop offset="59.602%" stop-color="#C57DA9"/>
            <stop offset="100%" stop-color="#BA7EB8"/>
        </linearGradient>
    </defs>
    <g fill="none" fill-rule="evenodd" transform="translate(0 .5)">
        <mask id="c" fill="#fff">
            <use xlink:href="#a"/>
        </mask>
        <path fill="url(#b)" d="M54.64 24.472l-.597 1.053 8.211-1.819-3.59-16.72-7.673 1.468a3.95 3.95 0 0 1-2.732-.472L38.417 2.2a2.268 2.268 0 0 0-2.229-.031l-2.993 1.645-4.854 2.86a1.2 1.2 0 0 0-.55.718l-2.08 7.583a1.59 1.59 0 0 0 .98 1.917l1.223.458c.428.16.886.133 1.292-.076.405-.21.693-.568.81-1.01l1.517-5.714a2.892 2.892 0 0 1 1.44-1.81l3.084-1.625c.025-.013.05-.027.076-.037a.845.845 0 0 1 .76.053L55.319 17.8a2.757 2.757 0 0 1 1.014 3.739l-1.58 2.78a.848.848 0 0 1-.111.153zm-52.804.813l5.337 1.146.567-2.644a.538.538 0 0 1 .01-.055l.04-.18 4.417-20.57L6.87 1.834l-5.034 23.45zm62.276-.919l.518 2.416 5.337-1.146-5.035-23.45-5.337 1.147.495 2.301c.03.06.052.125.067.193l3.936 18.336c.015.07.02.137.019.203zm-44.727 2.988a1.01 1.01 0 0 0-.888.516l-1.465 2.578c-.149.262-.187.565-.106.855.079.29.267.531.529.68l1.988 1.13 2.525-4.443-2.083-1.183a1.01 1.01 0 0 0-.5-.133zm19.43 4.386l6.421 3.698c.25.143.542.181.818.104.277-.075.509-.255.65-.505l1.154-2.029-10.134-5.783a.837.837 0 1 1 .83-1.456l10.132 5.78 1.687-2.968-10.134-5.783a.838.838 0 1 1 .832-1.457l10.133 5.783 1.692-2.977-10.134-5.783a.84.84 0 0 1 .832-1.457l10.15 5.792 1.13-1.989c.289-.51.111-1.164-.397-1.458L36.442 8.808l-2.685 1.415a1.211 1.211 0 0 0-.602.756l-1.517 5.715a3.278 3.278 0 0 1-4.312 2.226l-1.224-.458a3.26 3.26 0 0 1-2.009-3.932l2.081-7.583a2.87 2.87 0 0 1 1.315-1.72l3.485-2.053-.641-.296a2.268 2.268 0 0 0-2.057.084L20.515 7.35a3.909 3.909 0 0 1-2.82.409l-4.432-1.04-3.717 16.668 7.982 3.028a2.677 2.677 0 0 1 1.14-.642c.692-.191 1.42-.1 2.047.256l2.208 1.254a2.68 2.68 0 0 1 1.07-.578 2.68 2.68 0 0 1 2.048.255l2.156 1.226a2.701 2.701 0 0 1 3.363-.57l2.813 1.598.045.027 4.39 2.495c.002 0 .004.003.006.004zm-17.92 2.217l2.97 1.686 3.431-6.04-2.085-1.183a1.003 1.003 0 0 0-.773-.097c-.243.067-.45.218-.585.43l-.01.018-2.947 5.186zm4.452 2.53l2.97 1.688 4.498-7.916-2.084-1.184a1.019 1.019 0 0 0-1.388.382l-3.996 7.03zm4.434 2.523l1.992 1.131a1.126 1.126 0 0 0 1.535-.423l3.941-6.937-2.968-1.687-4.5 7.916zm2.544 2.955c-.47 0-.945-.118-1.38-.365l-2.721-1.546-.044-.027-4.39-2.495c-.017-.008-.032-.018-.047-.029L19.336 35a.828.828 0 0 1-.133-.095l-2.578-1.463a2.789 2.789 0 0 1-1.317-1.694 2.784 2.784 0 0 1 .265-2.129l1.005-1.77-7.391-2.804-.55 2.558a.84.84 0 0 1-.996.645L.664 26.75a.84.84 0 0 1-.645-.996L5.405.663a.839.839 0 0 1 .997-.644l6.977 1.498a.839.839 0 0 1 .644.996l-.543 2.533 4.596 1.08a2.243 2.243 0 0 0 1.612-.236l7.763-4.388a3.942 3.942 0 0 1 3.585-.148l1.711.79L35.38.697a3.955 3.955 0 0 1 3.887.056l9.842 5.782a2.264 2.264 0 0 0 1.567.271l7.635-1.461-.532-2.48a.838.838 0 0 1 .644-.997L65.4.37a.838.838 0 0 1 .996.644l5.388 25.09c.097.453-.191.9-.644.996l-6.978 1.498a.834.834 0 0 1-.996-.644l-.56-2.608-9.68 2.145-.674 1.185a2.14 2.14 0 0 1-.03.05L49.73 33.11l-.01.017-1.557 2.74a2.73 2.73 0 0 1-1.668 1.294 2.73 2.73 0 0 1-2.096-.269l-5.692-3.278-3.94 6.934a2.806 2.806 0 0 1-2.442 1.417z" mask="url(#c)"/>
    </g>
</svg>
