<svg xmlns="http://www.w3.org/2000/svg" xmlns:xlink="http://www.w3.org/1999/xlink" width="59" height="47" viewBox="0 0 59 47">
    <defs>
        <path id="a" d="M0 .543h58.08v46.551H0z"/>
        <linearGradient id="b" x1="50%" x2="50%" y1="0%" y2="100%">
            <stop offset="0%" stop-color="#EABA84"/>
            <stop offset="29.051%" stop-color="#E7AD83"/>
            <stop offset="63.667%" stop-color="#D88487"/>
            <stop offset="100%" stop-color="#BB7398"/>
        </linearGradient>
        <linearGradient id="d" x1="50%" x2="50%" y1="0%" y2="100%">
            <stop offset="0%" stop-color="#EAB984"/>
            <stop offset="28.262%" stop-color="#E4A684"/>
            <stop offset="62.511%" stop-color="#D98687"/>
            <stop offset="100%" stop-color="#D68388"/>
        </linearGradient>
    </defs>
    <g fill="none" fill-rule="evenodd">
        <g transform="translate(0 -.137)">
            <mask id="c" fill="#fff">
                <use xlink:href="#a"/>
            </mask>
            <path fill="url(#b)" d="M55.345 30.534v1.789a4.988 4.988 0 0 1-4.981 4.981H32.868a1.305 1.305 0 0 0-.286-.017c-.04.002-.078.012-.117.017h-6.628c-.031-.004-.06-.012-.091-.014-.072-.002-.142.006-.212.014H7.698a4.987 4.987 0 0 1-4.981-4.981v-1.626l52.628-.163zM33.639 44.377h-8.934c1.223-1.395 1.872-3.024 2.158-4.356h4.601c.287 1.332.944 2.961 2.175 4.356zM56.72 25.81c.75 0 1.359-.607 1.359-1.357V8.24c0-4.245-3.454-7.698-7.698-7.698H7.698C3.453.543 0 3.996 0 8.241v24.082c0 4.244 3.453 7.698 7.698 7.698h16.356c-.422 1.439-1.503 3.543-4.246 4.356h-3.37a1.358 1.358 0 1 0 0 2.717H41.65a1.359 1.359 0 0 0 0-2.717h-3.09c-2.766-.813-3.858-2.917-4.287-4.356h16.09c4.245 0 7.698-3.454 7.698-7.698V29.17c0-.36-.143-.707-.4-.962s-.635-.377-.963-.396l-53.982.167V8.241a4.986 4.986 0 0 1 4.981-4.98h42.684a4.987 4.987 0 0 1 4.98 4.98v16.212c0 .75.609 1.357 1.36 1.357z" mask="url(#c)"/>
        </g>
        <path fill="#D98687" d="M28.193 34.975h1.703a1.358 1.358 0 0 0 0-2.717h-1.703a1.358 1.358 0 1 0 0 2.717"/>
        <path fill="url(#d)" d="M29.957 9.5v2.565h3.353l-8.214 8.81-1.752 1.875 1.878 1.75 9.869-10.58v3.276h2.565V9.5z" transform="translate(0 -.5)"/>
    </g>
</svg>
