<svg xmlns="http://www.w3.org/2000/svg" width="43" height="37" viewBox="0 0 43 37">
    <defs>
        <linearGradient id="a" x1="50%" x2="50%" y1="0%" y2="100%">
            <stop offset="0%" stop-color="#ECC385"/>
            <stop offset="29.809%" stop-color="#DF8C81"/>
            <stop offset="65.686%" stop-color="#D27C8D"/>
            <stop offset="100%" stop-color="#B7719A"/>
        </linearGradient>
    </defs>
    <g fill="none" fill-rule="evenodd">
        <path fill="url(#a)" d="M2.643 26.429h7.928c.35 0 .688.138.935.387l5.673 5.673V27.75c0-.73.592-1.321 1.321-1.321h21.143V2.643h-37v23.786zM18.5 37c-.344 0-.682-.135-.934-.387l-7.542-7.542H1.321C.592 29.071 0 28.481 0 27.75V1.321C0 .592.592 0 1.321 0h39.643c.731 0 1.322.592 1.322 1.321V27.75c0 .73-.591 1.321-1.322 1.321H19.821v6.608A1.322 1.322 0 0 1 18.5 37z"/>
        <path fill="#E29882" d="M33.036 10.571H9.25a1.322 1.322 0 0 1 0-2.642h23.786a1.321 1.321 0 1 1 0 2.642"/>
        <path fill="#DC8883" d="M33.036 15.857H9.25a1.322 1.322 0 0 1 0-2.643h23.786a1.321 1.321 0 1 1 0 2.643"/>
        <path fill="#D78289" d="M33.036 21.143H9.25a1.321 1.321 0 1 1 0-2.643h23.786a1.321 1.321 0 1 1 0 2.643"/>
    </g>
</svg>
