<svg xmlns="http://www.w3.org/2000/svg" width="52" height="48" viewBox="0 0 52 48">
    <defs>
        <radialGradient id="a" cy="0%" r="228.795%" fx="50%" fy="0%" gradientTransform="matrix(0 1 -.98301 0 .5 -.5)">
            <stop offset="0%" stop-color="#E3B481"/>
            <stop offset="29.022%" stop-color="#DD7C81"/>
            <stop offset="69.777%" stop-color="#AF79B9"/>
            <stop offset="100%" stop-color="#5C43B0"/>
        </radialGradient>
        <radialGradient id="b" cy="0%" r="228.795%" fx="50%" fy="0%" gradientTransform="matrix(0 1 -.9199 0 .5 -.5)">
            <stop offset="0%" stop-color="#F1CB86"/>
            <stop offset="29.928%" stop-color="#D17A8D"/>
            <stop offset="68.605%" stop-color="#B582C6"/>
            <stop offset="100%" stop-color="#5C43B0"/>
        </radialGradient>
    </defs>
    <g fill="none" fill-rule="evenodd">
        <path fill="url(#a)" d="M33.433 15.609l-2.706 2.607.63 3.672a1.33 1.33 0 0 1-.544 1.308 1.377 1.377 0 0 1-1.432.104l-3.36-1.724-3.358 1.724a1.385 1.385 0 0 1-1.433-.104 1.33 1.33 0 0 1-.542-1.308l.63-3.672-2.706-2.607a1.324 1.324 0 0 1-.342-1.372c.16-.483.584-.838 1.097-.912l3.747-.546 1.687-3.335c.23-.455.704-.743 1.22-.743.518 0 .992.288 1.221.743l1.688 3.335 3.748.546c.512.075.938.429 1.097.912.16.484.027 1.016-.342 1.372m-7.411-9.89c-6.165 0-11.164 4.914-11.164 10.975 0 6.06 4.999 10.975 11.164 10.975 6.166 0 11.165-4.914 11.165-10.975S32.19 5.72 26.022 5.72" transform="translate(.595)"/>
        <path fill="url(#b)" d="M35.95 41.91c-2.515-2.656-4.695-5.661-6.268-8.948a5.272 5.272 0 0 0 3.225-1.417l1.653-1.56 1.287-.501c1.163 3.281 4.057 5.923 6.761 8.015.72.558 1.463 1.097 2.221 1.618-2.55-.733-5.1-1.464-7.651-2.195-.554-.159-1.159.389-.968.951l2.205 6.466a47.173 47.173 0 0 1-2.465-2.43M12.918 16.695c0-7.115 5.867-12.882 13.104-12.882 7.238 0 13.105 5.767 13.105 12.882 0 7.113-5.867 12.881-13.105 12.881-7.237 0-13.104-5.768-13.104-12.881m2.358 25.214c-.785.842-1.61 1.65-2.464 2.424l2.204-6.461c.19-.563-.414-1.11-.968-.952-2.561.736-5.122 1.47-7.684 2.205a55.661 55.661 0 0 0 2.254-1.627c2.79-2.118 5.762-4.889 6.855-8.297l2.012.783 1.652 1.562a5.266 5.266 0 0 0 2.458 1.305c-1.583 3.33-3.788 6.343-6.319 9.058m35.561-1.045c-2.256-1.12-4.405-2.488-6.441-3.957-2.71-1.955-6.02-4.68-7.122-8.02a5.158 5.158 0 0 0 2.582-3.322l.53-2.192 1.337-1.83a5.071 5.071 0 0 0 .687-4.703l-.758-2.126.118-2.25a5.103 5.103 0 0 0-2.008-4.32l-1.807-1.386-1.137-1.956a5.235 5.235 0 0 0-4.065-2.568l-2.283-.205L28.438.99a5.313 5.313 0 0 0-4.834 0l-2.031 1.04-2.282.205a5.235 5.235 0 0 0-4.065 2.568l-1.138 1.956-1.807 1.386a5.104 5.104 0 0 0-2.007 4.321l.117 2.25-.757 2.126a5.069 5.069 0 0 0 .687 4.703l1.336 1.83.532 2.192a5.128 5.128 0 0 0 1.896 2.88c-.943 3.55-4.432 6.393-7.255 8.463C4.81 38.39 2.642 39.748.39 40.865c-.805.399-.24 1.655.606 1.413l12.039-3.454-2.628 7.707c-.207.606.6 1.286 1.155.873 4.957-3.68 9.168-8.821 11.7-14.448a5.46 5.46 0 0 0 .511-.07l2.25-.436 1.88.364c2.523 5.682 6.765 10.879 11.764 14.59.555.413 1.361-.267 1.154-.873l-2.628-7.707 12.04 3.454c.846.241 1.41-1.015.605-1.414" transform="translate(.595)"/>
    </g>
</svg>
