<svg xmlns="http://www.w3.org/2000/svg" xmlns:xlink="http://www.w3.org/1999/xlink" width="61" height="50" viewBox="0 0 61 50">
    <defs>
        <path id="a" d="M33.94 0v49H0z"/>
        <linearGradient id="b" x1="50%" x2="50%" y1="0%" y2="100%">
            <stop offset="0%" stop-color="#EAB984"/>
            <stop offset="27.357%" stop-color="#E5A983"/>
            <stop offset="62.656%" stop-color="#885176"/>
            <stop offset="100%" stop-color="#A9688E"/>
        </linearGradient>
        <path id="c" d="M0 0h34.94v50H0z"/>
        <linearGradient id="d" x1="50%" x2="50%" y1="0%" y2="97.545%">
            <stop offset="0%" stop-color="#EAB784"/>
            <stop offset="26.549%" stop-color="#D89D81"/>
            <stop offset="64.34%" stop-color="#8B5378"/>
            <stop offset="100%" stop-color="#B16D93"/>
        </linearGradient>
    </defs>
    <g fill="none" fill-rule="evenodd">
        <path fill="url(#b)" d="M24.59 26.184c.247-.384.263-.868.042-1.264a11.657 11.657 0 0 1-1.467-5.654c0-6.426 5.228-11.653 11.655-11.653 6.426 0 11.654 5.227 11.654 11.653 0 6.427-5.228 11.655-11.654 11.655H21.514l3.076-4.737zM34.82 5.158c-7.78 0-14.11 6.329-14.11 14.108 0 2.133.494 4.265 1.43 6.184l-3.916 6.03a1.228 1.228 0 0 0 1.03 1.896H34.82c7.78 0 14.109-6.33 14.109-14.11 0-7.78-6.33-14.108-14.11-14.108z" transform="translate(11.25 -4)"/>
        <g transform="translate(.75)">
            <mask id="e" fill="#fff">
                <use xlink:href="#c"/>
            </mask>
            <path fill="url(#d)" d="M33.699 34.926l-.007-.003a1.745 1.745 0 0 0-2.138 1.178c-1.062 3.643-.787 7.14-.528 8.9.009.066-.02.117-.035.128-3.264 1.885-11.226 1.872-14.44-.025-.1-.06-.164-.191-.164-.336v-5.462c0-1.307-.993-2.625-3.212-2.625-.14 0-.234.004-.28.01-.071.002-.24.006-.474.006-2.976 0-4.343-.617-4.48-.775-.32-1.683-.098-5.082.084-6.821a1.732 1.732 0 0 0-1.094-1.8c-.198-.077-1.973-.788-3.393-1.61l-.021-.012c3.897-6.09 4.378-8.121 4.4-8.677C9.394 4.43 19.492 3.454 22.55 3.454c.269 0 .507.007.776.014l.373.007c.885 0 4.02.099 7.2 1.383.428.172.896.169 1.32-.013.427-.181.757-.517.93-.945a1.734 1.734 0 0 0-.957-2.247C28.432.137 24.74.019 23.699.019c-.07 0-.162-.001-.287-.006A32.056 32.056 0 0 0 22.55 0C18.769 0 6.294 1.197 4.488 16.589c-.011.066-.316 1.663-3.862 7.202-.09.125-.86 1.263-.555 2.656.139.64.554 1.547 1.736 2.234a28.321 28.321 0 0 0 2.666 1.337c-.138 1.783-.28 4.694.075 6.552.446 2.343 3.169 3.582 7.873 3.582.213 0 .384-.003.51-.007v4.623c0 1.36.715 2.629 1.864 3.31C16.862 49.3 20.144 50 23.798 50c3.597 0 6.848-.684 8.919-1.877 1.247-.72 1.94-2.175 1.726-3.621-.217-1.482-.45-4.421.428-7.435a1.732 1.732 0 0 0-1.172-2.141" mask="url(#e)"/>
        </g>
    </g>
</svg>
